SplineFontDB: 3.2
FontName: Purisa-Oblique
FullName: Purisa Oblique
FamilyName: Purisa
Weight: Regular
Copyright: Purisa, Thai handwriting outline font.\n\nCopyright (C) 2003, 2004 Poonlap Veerathanabutr <poonlap@linux.thai.net>
UComments: "2003-11-27: Created.+AAoACgAA-Acknowlegement:+AAoA-Hanwriting by Ms.Purisa Cholasueksa. +AAoA-Co-operated by Mr.Teeratep Sosakul.+AAoACgAA-2004-02-14:+AAoA-Modified most characters. Make numbers bigger."
Version: 004.003
ItalicAngle: -12
UnderlinePosition: -100
UnderlineWidth: 50
Ascent: 800
Descent: 200
InvalidEm: 0
LayerCount: 3
Layer: 0 0 "Back" 1
Layer: 1 0 "Fore" 0
Layer: 2 1 "Quad" 0
FSType: 8
OS2Version: 4
OS2_WeightWidthSlopeOnly: 0
OS2_UseTypoMetrics: 1
CreationTime: 1153666222
ModificationTime: 1587960972
PfmFamily: 65
TTFWeight: 400
TTFWidth: 5
LineGap: 0
VLineGap: 0
OS2TypoAscent: 1109
OS2TypoAOffset: 0
OS2TypoDescent: -503
OS2TypoDOffset: 0
OS2TypoLinegap: 0
OS2WinAscent: 0
OS2WinAOffset: 1
OS2WinDescent: 0
OS2WinDOffset: 1
HheadAscent: 0
HheadAOffset: 1
HheadDescent: 0
HheadDOffset: 1
OS2Vendor: 'PfEd'
Lookup: 4 8 1 "'liga' Standard Ligatures lookup 2" { "'liga' Standard Ligatures lookup 2 subtable"  } ['liga' ('latn' <'dflt' > ) ]
Lookup: 6 0 0 "'ccmp' Thai Tone Tilde Reordering" { "'ccmp' Thai Tone Tilde Reordering"  } ['ccmp' ('DFLT' <'dflt' > 'latn' <'dflt' > 'thai' <'KUY ' 'MLY ' 'PAL ' 'SAN ' 'THA ' 'dflt' > ) ]
Lookup: 6 0 0 "'ccmp' Thai Tone Macron Reordering" { "'ccmp' Thai Tone Macron Reordering"  } ['ccmp' ('DFLT' <'dflt' > 'latn' <'dflt' > 'thai' <'KUY ' 'MLY ' 'PAL ' 'SAN ' 'THA ' 'dflt' > ) ]
Lookup: 6 0 0 "'ccmp' Thai Below Vowel Macron Reordering" { "'ccmp' Thai Below Vowel Macron Reordering"  } ['ccmp' ('DFLT' <'dflt' > 'latn' <'dflt' > 'thai' <'KUY ' 'MLY ' 'PAL ' 'SAN ' 'THA ' 'dflt' > ) ]
Lookup: 4 0 0 "'ccmp' Patani Malay Ligatures" { "'ccmp' Patani Malay Ligatures"  } ['ccmp' ('DFLT' <'dflt' > 'thai' <'KUY ' 'MLY ' 'PAL ' 'SAN ' 'THA ' 'dflt' > ) ]

StartChar: uni0E34
Encoding: 3636 3636 0
Width: 0
Flags: W
HStem: 566 21G<31.5 46.5> 584 47<-273.364 -0.257996> 726 40<-177.45 -54.9355>
VStem: 17 41<566.046 580.223>
AnchorPoint: "AboveMark" 22 560 mark 0
AnchorPoint: "AboveMark" 69 780 basemark 0
AnchorPoint: "AboveBase" 57 560 mark 0
LayerCount: 3
Fore
SplineSet
-334 616 m 0x70
 -334 649 -226 766 -92 766 c 0
 -42 766 25 735 25 713 c 0
 25 691 58 657 58 582 c 0
 58 573 58 566 35 566 c 0xb0
 28 566 17 568 17 575 c 0
 17 580 -28 584 -99 584 c 0
 -298 585 -334 597 -334 616 c 0x70
1 619 m 0
 4 619 4 619 4 622 c 0
 4 638 -44 704 -65 714 c 0
 -82 722 -99 726 -115 726 c 0
 -145 726 -176 712 -217 682 c 2
 -275 639 l 1
 -242 633 l 2
 -230 630 -213 629 -199 629 c 0
 -178 629 -183 631 -158 631 c 0x70
 -105 631 -25 619 1 619 c 0
EndSplineSet
Validated: 1
Layer: 2
SplineSet
-334 616 m 0,0,1
 -334 629 -334 629 -314.5 653.5 c 128,-1,2
 -295 678 -295 678 -264 703.5 c 128,-1,3
 -233 729 -233 729 -186 747.5 c 128,-1,4
 -139 766 -139 766 -92 766 c 0,5,6
 -55 766 -55 766 -15 748 c 128,-1,7
 25 730 25 730 25 713 c 0,8,9
 25 709 25 709 41.5 667.5 c 128,-1,10
 58 626 58 626 58 582 c 0,11,12
 58 576 58 576 57 573.5 c 128,-1,13
 56 571 56 571 51 568.5 c 128,-1,14
 46 566 46 566 35 566 c 0,15,16
 17 566 17 566 17 575 c 128,-1,17
 17 584 17 584 -99 584 c 0,18,19
 -195 584 -195 584 -248 588.5 c 128,-1,20
 -301 593 -301 593 -317.5 599.5 c 128,-1,21
 -334 606 -334 606 -334 616 c 0,0,1
1 619 m 0,22,23
 4 619 4 619 4 622 c 0,24,25
 4 634 4 634 -23 670.5 c 128,-1,26
 -50 707 -50 707 -65 714 c 0,27,28
 -91 726 -91 726 -115 726 c 0,29,30
 -157 726 -157 726 -217 682 c 2,31,-1
 -275 639 l 1,32,-1
 -242 633 l 2,33,34
 -226 629 -226 629 -199 629 c 0,35,36
 -189 629 -189 629 -180 630 c 128,-1,37
 -171 631 -171 631 -158 631 c 0,38,39
 -128 631 -128 631 -68.5 625 c 128,-1,40
 -9 619 -9 619 1 619 c 0,22,23
EndSplineSet
EndChar

StartChar: uni0E35
Encoding: 3637 3637 1
Width: 0
Flags: W
HStem: 591 90<-5.08374 34.6102> 641 40<-36 23> 647 51<-268.972 -73.0328> 714 17<-312 -242> 731 39<-261.234 -86.0281>
VStem: -380 111<662.5 707>
AnchorPoint: "AboveMark" 36 560 mark 0
AnchorPoint: "AboveMark" 83 780 basemark 0
AnchorPoint: "AboveBase" 57 560 mark 0
LayerCount: 3
Fore
SplineSet
-380 672 m 0x24
 -380 694 -321 731 -312 731 c 0x34
 -290 731 -307 748 -214 764 c 0
 -189 768 -166 770 -146 770 c 0
 -22 770 -8 681 23 681 c 0
 37 681 48 779 65 799 c 0
 72 808 86 814 99 814 c 2
 121 814 l 1
 96 725 l 1
 70 637 57 591 32 591 c 0x8c
 9 591 -36 641 -36 641 c 2x44
 -37 641 -112 644 -204 647 c 0
 -345 651 -380 653 -380 672 c 0x24
-73 702 m 0
 -73 707 -114 731 -162 731 c 0x2c
 -206 731 -203 714 -242 714 c 0
 -264 714 -269 708 -269 706 c 0
 -269 701 -231 698 -173 698 c 0
 -118 698 -73 700 -73 702 c 0
EndSplineSet
Validated: 1
Layer: 2
SplineSet
-380 672 m 0,0,1
 -380 687 -380 687 -350.5 709 c 128,-1,2
 -321 731 -321 731 -312 731 c 0,3,4
 -305 731 -305 731 -300 734 c 128,-1,5
 -295 737 -295 737 -290 741.5 c 128,-1,6
 -285 746 -285 746 -265 752.5 c 128,-1,7
 -245 759 -245 759 -214 764 c 0,8,9
 -177 770 -177 770 -146 770 c 0,10,11
 -104 770 -104 770 -72 756 c 128,-1,12
 -40 742 -40 742 -26 725.5 c 128,-1,13
 -12 709 -12 709 1 695 c 128,-1,14
 14 681 14 681 23 681 c 0,15,16
 29 681 29 681 36 706 c 128,-1,17
 43 731 43 731 50.5 761 c 128,-1,18
 58 791 58 791 65 799 c 0,19,20
 77 814 77 814 99 814 c 2,21,-1
 121 814 l 1,22,-1
 96 725 l 2,23,24
 83 682 83 682 78 665.5 c 128,-1,25
 73 649 73 649 64.5 627 c 128,-1,26
 56 605 56 605 48.5 598 c 128,-1,27
 41 591 41 591 32 591 c 0,28,29
 22 591 22 591 5 603.5 c 128,-1,30
 -12 616 -12 616 -24 628.5 c 2,31,-1
 -36 641 l 1,32,-1
 -58 642 l 2,33,34
 -80 643 -80 643 -121.5 644.5 c 128,-1,35
 -163 646 -163 646 -204 647 c 0,36,37
 -316 650 -316 650 -348 654 c 128,-1,38
 -380 658 -380 658 -380 672 c 0,0,1
-73 702 m 0,39,40
 -73 705 -73 705 -84.5 711.5 c 128,-1,41
 -96 718 -96 718 -118 724.5 c 128,-1,42
 -140 731 -140 731 -162 731 c 0,43,44
 -185 731 -185 731 -204 722.5 c 128,-1,45
 -223 714 -223 714 -242 714 c 0,46,47
 -269 714 -269 714 -269 706 c 128,-1,48
 -269 698 -269 698 -173 698 c 0,49,50
 -73 698 -73 698 -73 702 c 0,39,40
EndSplineSet
EndChar

StartChar: uni0E36
Encoding: 3638 3638 2
Width: 0
Flags: W
HStem: 546 101<-136.5 -92> 571 46<-46 -1.3247> 590 57<-102.621 -65.9492> 596 29<-373.992 -195.26> 663 45<-34.1804 33.847> 708 40<-299.302 -171.803>
VStem: 11 43<627.322 693.868>
AnchorPoint: "AboveMark" -29 560 mark 0
AnchorPoint: "AboveMark" 18 780 basemark 0
AnchorPoint: "AboveBase" 27 560 mark 0
LayerCount: 3
Fore
SplineSet
54 681 m 0x8a
 54 634 -12 571 -40 571 c 0x4a
 -52 571 -63 590 -82 590 c 0x22
 -100 590 -104 546 -132 546 c 0x82
 -141 546 -149 554 -149 570 c 0
 -149 574 -148 578 -148 583 c 0
 -148 593 -152 596 -167 596 c 0
 -183 596 -200 593 -327 591 c 2
 -428 589 l 1
 -426 613 l 1
 -422 642 -407 648 -386 673 c 0
 -380 681 -350 701 -319 718 c 0
 -272 743 -256 748 -221 748 c 0x16
 -168 748 -138 728 -121 682 c 0
 -114 663 -105 647 -101 647 c 0
 -83 647 -28 708 14 708 c 0
 37 708 54 705 54 681 c 0x8a
-374 630 m 0
 -374 625 -363 625 -356 625 c 0
 -339 625 -296 627 -251 632 c 0
 -194 639 -154 643 -154 659 c 0
 -154 666 -160 674 -170 687 c 1
 -184 703 -193 708 -216 708 c 0x16
 -284 708 -297 700 -339 664 c 0
 -341 662 -374 634 -374 630 c 0
-3 663 m 0x4a
 -21 663 -35 652 -35 635 c 0
 -35 627 -31 617 -25 617 c 0
 -14 617 11 652 11 659 c 0
 11 663 6 663 -3 663 c 0x4a
EndSplineSet
Validated: 1
Layer: 2
SplineSet
54 681 m 0,0,1
 54 648 54 648 18.5 609.5 c 128,-1,2
 -17 571 -17 571 -40 571 c 0,3,4
 -45 571 -45 571 -58.5 580.5 c 128,-1,5
 -72 590 -72 590 -82 590 c 0,6,7
 -90 590 -90 590 -103.5 568 c 128,-1,8
 -117 546 -117 546 -132 546 c 0,9,10
 -149 546 -149 546 -149 570 c 0,11,12
 -149 572 -149 572 -148.5 576 c 128,-1,13
 -148 580 -148 580 -148 583 c 0,14,15
 -148 596 -148 596 -167 596 c 0,16,17
 -172 596 -172 596 -185.5 595 c 128,-1,18
 -199 594 -199 594 -235 593 c 128,-1,19
 -271 592 -271 592 -327 591 c 2,20,-1
 -428 589 l 1,21,-1
 -426 613 l 2,22,23
 -424 626 -424 626 -420 634 c 128,-1,24
 -416 642 -416 642 -403.5 654.5 c 128,-1,25
 -391 667 -391 667 -386 673 c 0,26,27
 -375 687 -375 687 -319 718 c 0,28,29
 -284 737 -284 737 -265.5 742.5 c 128,-1,30
 -247 748 -247 748 -221 748 c 0,31,32
 -145 748 -145 748 -121 682 c 0,33,34
 -108 647 -108 647 -101 647 c 0,35,36
 -95 647 -95 647 -52.5 677.5 c 128,-1,37
 -10 708 -10 708 14 708 c 0,38,39
 34 708 34 708 44 703 c 128,-1,40
 54 698 54 698 54 681 c 0,0,1
-374 630 m 0,41,42
 -374 625 -374 625 -356 625 c 0,43,44
 -314 625 -314 625 -251 632 c 0,45,-1
 -249.985662779 632.124474827 l 1,46,-1
 -248.973088452 632.248561682 l 1,47,-1
 -247.962306253 632.372278643 l 1,48,-1
 -246.953345793 632.495643982 l 1,49,-1
 -245.946237075 632.618676169 l 1,50,-1
 -244.941010497 632.741393874 l 1,51,-1
 -243.937696864 632.863815975 l 1,52,-1
 -242.241708203 633.070679263 l 2,53,54
 -163.215679541 642.708765598 -163.215679541 642.708765598 -155.637739458 653.805804692 c 0,55,56
 -154 656.204089528 -154 656.204089528 -154 659 c 0,57,58
 -154 666 -154 666 -170 687 c 0,59,60
 -188 708 -188 708 -216 708 c 0,61,62
 -265 708 -265 708 -285.5 700 c 128,-1,63
 -306 692 -306 692 -339 664 c 2,64,-1
 -345 658.5 l 2,65,66
 -351 653 -351 653 -357 647.5 c 128,-1,67
 -363 642 -363 642 -368.5 636.5 c 128,-1,68
 -374 631 -374 631 -374 630 c 0,41,42
-3 663 m 128,-1,70
 -17 663 -17 663 -26 655.5 c 128,-1,71
 -35 648 -35 648 -35 635 c 0,72,73
 -35 617 -35 617 -25 617 c 0,74,75
 -17 617 -17 617 -3 635 c 128,-1,76
 11 653 11 653 11 659 c 0,77,69
 11 663 11 663 -3 663 c 128,-1,70
EndSplineSet
EndChar

StartChar: uni0E37
Encoding: 3639 3639 3
Width: 0
Flags: W
HStem: 614 30<-302.724 -156.581> 724 42<-308.806 -183.963>
VStem: -414 60<623.5 688.273> 24 83<702.111 814.704>
AnchorPoint: "AboveMark" -37 560 mark 0
AnchorPoint: "AboveMark" 10 780 basemark 0
AnchorPoint: "AboveBase" 57 560 mark 0
LayerCount: 3
Fore
SplineSet
24 689 m 0
 24 795 57 851 79 851 c 0
 81 851 107 846 107 811 c 0
 107 767 81 646 42 646 c 0
 27 646 24 657 24 689 c 0
-414 640 m 0
 -414 683 -337 766 -229 766 c 0
 -187 766 -150 752 -124 727 c 2
 -105 709 l 1
 -87 772 l 2
 -76 810 -61 839 -52 843 c 0
 -42 848 -35 851 -30 851 c 0
 -26 851 -8 845 -8 822 c 0
 -8 795 -52 695 -63 646 c 1
 -72 596 -88 587 -107 587 c 0
 -140 587 -125 614 -154 614 c 0
 -173 614 -236 599 -306 599 c 0
 -361 599 -414 607 -414 640 c 0
-243 724 m 0
 -285 724 -354 683 -354 662 c 0
 -354 650 -327 644 -195 644 c 0
 -163 644 -156 651 -156 665 c 0
 -156 690 -201 724 -243 724 c 0
EndSplineSet
Validated: 1
Layer: 2
SplineSet
24 689 m 0,0,1
 24 739 24 739 33.5 777.5 c 128,-1,2
 43 816 43 816 55 833.5 c 128,-1,3
 67 851 67 851 79 851 c 0,4,5
 82 851 82 851 87.5 849 c 128,-1,6
 93 847 93 847 100 837 c 128,-1,7
 107 827 107 827 107 811 c 0,8,9
 107 768 107 768 87.5 707 c 128,-1,10
 68 646 68 646 42 646 c 0,11,12
 31 646 31 646 27.5 655 c 128,-1,13
 24 664 24 664 24 689 c 0,0,1
-414 640 m 0,14,15
 -414 678 -414 678 -358.5 722 c 128,-1,16
 -303 766 -303 766 -229 766 c 0,17,18
 -165 766 -165 766 -124 727 c 2,19,-1
 -105 709 l 1,20,-1
 -87 772 l 2,21,22
 -69 836 -69 836 -52 843 c 0,23,24
 -36 851 -36 851 -30 851 c 0,25,26
 -27 851 -27 851 -22.5 849 c 128,-1,27
 -18 847 -18 847 -13 839.5 c 128,-1,28
 -8 832 -8 832 -8 822 c 0,29,30
 -8 807 -8 807 -33 737.5 c 128,-1,31
 -58 668 -58 668 -63 646 c 0,32,33
 -69 611 -69 611 -80 599 c 128,-1,34
 -91 587 -91 587 -107 587 c 0,35,36
 -124 587 -124 587 -132 600.5 c 128,-1,37
 -140 614 -140 614 -154 614 c 0,38,39
 -157 614 -157 614 -211 606.5 c 128,-1,40
 -265 599 -265 599 -306 599 c 0,41,42
 -414 599 -414 599 -414 640 c 0,14,15
-243 724 m 128,-1,44
 -274 724 -274 724 -314 701 c 128,-1,45
 -354 678 -354 678 -354 662 c 0,46,47
 -354 656 -354 656 -342 652 c 128,-1,48
 -330 648 -330 648 -295 646 c 128,-1,49
 -260 644 -260 644 -195 644 c 0,50,51
 -172 644 -172 644 -164 649 c 128,-1,52
 -156 654 -156 654 -156 665 c 0,53,54
 -156 684 -156 684 -184 704 c 128,-1,43
 -212 724 -212 724 -243 724 c 128,-1,44
EndSplineSet
EndChar

StartChar: uni0E38
Encoding: 3640 3640 4
Width: 0
Flags: W
HStem: -133 26<-310.997 -248.098> -68 30<-295.257 -245.154>
VStem: -347 36<-123 -80.5093> -245 33<-148.472 -68.4502>
AnchorPoint: "BelowMark" -190 -38 mark 0
AnchorPoint: "BelowMark" -252 -327 basemark 0
AnchorPoint: "BelowBase" -190 -38 mark 0
LayerCount: 3
Fore
SplineSet
-254 -38 m 0
 -230 -38 -212 -57 -212 -89 c 0
 -212 -107 -217 -136 -227 -191 c 2
 -244 -289 l 1
 -258 -285 l 2
 -269 -282 -274 -278 -274 -265 c 0
 -274 -253 -270 -233 -263 -200 c 2
 -248 -132 l 1
 -271 -132 -293 -133 -316 -133 c 0
 -334 -133 -347 -131 -347 -115 c 0
 -347 -112 -347 -109 -346 -106 c 0
 -342 -87 -291 -38 -254 -38 c 0
-299 -107 m 0
 -251 -107 -249 -102 -246 -87 c 0
 -245 -84 -245 -80 -245 -78 c 0
 -245 -71 -249 -68 -268 -68 c 0
 -293 -68 -311 -98 -311 -103 c 0
 -311 -106 -307 -107 -299 -107 c 0
EndSplineSet
Validated: 1
Layer: 2
SplineSet
-254 -38 m 0,0,1
 -236 -38 -236 -38 -224 -52 c 128,-1,2
 -212 -66 -212 -66 -212 -89 c 0,3,4
 -212 -108 -212 -108 -227 -191 c 2,5,-1
 -244 -289 l 1,6,-1
 -258 -285 l 2,7,8
 -274 -281 -274 -281 -274 -265 c 0,9,10
 -274 -252 -274 -252 -263 -200 c 2,11,-1
 -248 -132 l 1,12,13
 -260 -132 -260 -132 -282 -132.5 c 128,-1,14
 -304 -133 -304 -133 -316 -133 c 0,15,16
 -347 -133 -347 -133 -347 -115 c 0,17,18
 -347 -109 -347 -109 -346 -106 c 0,19,20
 -343 -90 -343 -90 -311.5 -64 c 128,-1,21
 -280 -38 -280 -38 -254 -38 c 0,0,1
-299 -107 m 0,22,23
 -265 -107 -265 -107 -256.5 -103 c 128,-1,24
 -248 -99 -248 -99 -246 -87 c 0,25,26
 -245 -84 -245 -84 -245 -78 c 0,27,28
 -245 -68 -245 -68 -268 -68 c 0,29,30
 -284 -68 -284 -68 -297.5 -82.5 c 128,-1,31
 -311 -97 -311 -97 -311 -103 c 0,32,33
 -311 -107 -311 -107 -299 -107 c 0,22,23
EndSplineSet
Substitution2: "Thai Sara U Macron Reordering" macronbelowcmb
Substitution2: "Thai Sara U Phinthu Reordering" uni0E3A
Substitution2: "Thai Sara U Mai Ek Reordering" uni0E48.low
Substitution2: "Thai Sara U Mai Tho Reordering" uni0E49.low
Substitution2: "Thai Sara U Mai Tri Reordering" uni0E4A.low
Substitution2: "Thai Sara U Mai Chattawa Reordering" uni0E4B.low
Substitution2: "Thai Sara U Thanthakhat Reordering" uni0E4C.low
Substitution2: "Thai Sara U Nikhahit Reordering" uni0E4D
EndChar

StartChar: uni0E39
Encoding: 3641 3641 5
Width: 0
Flags: W
HStem: -125 18<-351.511 -305.377> -69 18<-339.567 -301.807>
VStem: -391 38<-106.79 -80.5806> -299 34<-100.766 -69.2563> -287 27<-183 -115.443>
AnchorPoint: "BelowMark" -190 -38 mark 0
AnchorPoint: "BelowMark" -242 -280 basemark 0
AnchorPoint: "BelowBase" -190 -38 mark 0
LayerCount: 3
Fore
SplineSet
-291 -211 m 0xe8
 -291 -202 -287 -191 -287 -170 c 0xe8
 -287 -144 -291 -115 -296 -115 c 0
 -303 -115 -326 -125 -345 -125 c 0
 -364 -125 -391 -117 -391 -105 c 0
 -391 -89 -340 -51 -307 -51 c 0
 -286 -51 -265 -68 -265 -84 c 0xf0
 -265 -88 -265 -92 -261 -92 c 0
 -259 -92 -257 -96 -257 -101 c 0
 -257 -112 -260 -126 -260 -146 c 2
 -260 -183 l 1
 -249 -165 l 1
 -226 -120 -215 -53 -194 -53 c 0
 -188 -53 -181 -57 -181 -71 c 0
 -181 -74 -181 -77 -182 -81 c 0
 -190 -117 -246 -242 -271 -242 c 0
 -281 -242 -291 -227 -291 -211 c 0xe8
-316 -69 m 0
 -324 -69 -353 -78 -353 -93 c 0
 -353 -100 -345 -107 -332 -107 c 0
 -319 -107 -299 -100 -299 -86 c 0xf0
 -299 -79 -306 -69 -316 -69 c 0
EndSplineSet
Validated: 1
Layer: 2
SplineSet
-291 -211 m 0,0,1
 -291 -208 -291 -208 -289 -195 c 128,-1,2
 -287 -182 -287 -182 -287 -170 c 0,3,4
 -287 -115 -287 -115 -296 -115 c 0,5,6
 -298 -115 -298 -115 -316 -120 c 128,-1,7
 -334 -125 -334 -125 -345 -125 c 0,8,9
 -361 -125 -361 -125 -376 -119 c 128,-1,10
 -391 -113 -391 -113 -391 -105 c 0,11,12
 -391 -92 -391 -92 -361 -71.5 c 128,-1,13
 -331 -51 -331 -51 -307 -51 c 0,14,15
 -291 -51 -291 -51 -278 -61.5 c 128,-1,16
 -265 -72 -265 -72 -265 -84 c 0,17,18
 -265 -92 -265 -92 -261 -92 c 128,-1,19
 -257 -92 -257 -92 -257 -101 c 0,20,21
 -257 -105 -257 -105 -258.5 -120 c 128,-1,22
 -260 -135 -260 -135 -260 -146 c 2,23,-1
 -260 -183 l 1,24,-1
 -249 -165 l 2,25,26
 -241 -149 -241 -149 -230.5 -118 c 128,-1,27
 -220 -87 -220 -87 -211.5 -70 c 128,-1,28
 -203 -53 -203 -53 -194 -53 c 0,29,30
 -181 -53 -181 -53 -181 -71 c 0,31,32
 -181 -77 -181 -77 -182 -81 c 0,33,34
 -189 -114 -189 -114 -221.5 -178 c 128,-1,35
 -254 -242 -254 -242 -271 -242 c 0,36,37
 -279 -242 -279 -242 -285 -232.5 c 128,-1,38
 -291 -223 -291 -223 -291 -211 c 0,0,1
-316 -69 m 0,39,40
 -325 -69 -325 -69 -339 -76 c 128,-1,41
 -353 -83 -353 -83 -353 -93 c 0,42,43
 -353 -107 -353 -107 -332 -107 c 0,44,45
 -321 -107 -321 -107 -310 -101.5 c 128,-1,46
 -299 -96 -299 -96 -299 -86 c 0,47,48
 -299 -80 -299 -80 -304 -74.5 c 128,-1,49
 -309 -69 -309 -69 -316 -69 c 0,39,40
EndSplineSet
Substitution2: "Thai Sara UU Macron Reordering" macronbelowcmb
Substitution2: "Thai Sara UU Phinthu Reordering" uni0E3A
Substitution2: "Thai Sara UU Mai Ek Reordering" uni0E48.low
Substitution2: "Thai Sara UU Mai Tho Reordering" uni0E49.low
Substitution2: "Thai Sara UU Mai Tri Reordering" uni0E4A.low
Substitution2: "Thai Sara UU Mai Chattawa Reordering" uni0E4B.low
Substitution2: "Thai Sara UU Thanthakhat Reordering" uni0E4C.low
Substitution2: "Thai Sara UU Nikhahit Reordering" uni0E4D
EndChar

StartChar: uni0E3A
Encoding: 3642 3642 6
Width: 0
Flags: W
HStem: -199 145<-317.945 -267.244>
VStem: -374 157<-149.113 -108.763>
AnchorPoint: "BelowMark" -190 -38 mark 0
AnchorPoint: "BelowMark" -232 -237 basemark 0
AnchorPoint: "BelowBase" -190 -38 mark 0
LayerCount: 3
Fore
SplineSet
-256 -54 m 0
 -229 -54 -217 -70 -217 -92 c 0
 -217 -140 -268 -199 -331 -199 c 0
 -361 -199 -374 -184 -374 -163 c 0
 -374 -113 -312 -54 -256 -54 c 0
EndSplineSet
Validated: 1
Layer: 2
SplineSet
-256 -54 m 0,0,1
 -217 -54 -217 -54 -217 -92 c 128,-1,2
 -217 -130 -217 -130 -251.5 -164.5 c 128,-1,3
 -286 -199 -286 -199 -331 -199 c 0,4,5
 -374 -199 -374 -199 -374 -163 c 0,6,7
 -374 -125 -374 -125 -336 -89.5 c 128,-1,8
 -298 -54 -298 -54 -256 -54 c 0,0,1
EndSplineSet
Substitution2: "Thai Phinthu Macron Reordering" macronbelowcmb
Substitution2: "Thai Sara UU Phinthu Reordering" uni0E39
Substitution2: "Thai Sara U Phinthu Reordering" uni0E38
Substitution2: "Thai Phinthu Maitaikhu Reordering" uni0E47
Substitution2: "Thai Phinthu Mai Ek Reordering" uni0E48.low
Substitution2: "Thai Phinthu Mai Tho Reordering" uni0E49.low
Substitution2: "Thai Phinthu Mai Tri Reordering" uni0E4A.low
Substitution2: "Thai Phinthu Mai Chattawa Reordering" uni0E4B.low
Substitution2: "Thai Phinthu Thanthakhat Reordering" uni0E4C.low
Substitution2: "Thai Phinthu Nikhahit Reordering" uni0E4D
EndChar

StartChar: uni0E48
Encoding: 3656 3656 7
Width: 0
Flags: W
HStem: 843 127<85 95.1082>
VStem: 52 65
DStem2: 52 843 89.7731 843 0.207912 0.978148<8.7802 131.086>
AnchorPoint: "AboveMark" 113 1038 basemark 0
AnchorPoint: "AboveMark" 58 780 mark 0
LayerCount: 3
Fore
SplineSet
85 970 m 1
 117 970 l 1
 97 877 l 2
 93 863 102 844 52 843 c 1
 85 970 l 1
EndSplineSet
Validated: 1
Layer: 2
SplineSet
85 970 m 1,0,-1
 117 970 l 1,1,-1
 97 877 l 2,2,3
 97 876 97 876 95.5 867 c 128,-1,4
 94 858 94 858 92 854.5 c 128,-1,5
 90 851 90 851 80 847 c 128,-1,6
 70 843 70 843 52 843 c 1,7,-1
 85 970 l 1,0,-1
EndSplineSet
Substitution2: "Thai Mai Ek Macron Reordering" macronbelowcmb
Substitution2: "Thai Mai Ek Tilde Reordering" tildecomb
MultipleSubs2: "Thai Tone Nikhahit Attachment" uni0E4D uni0E48
Substitution2: "Thai Tone Low Variant" uni0E48.low
Substitution2: "Thai Sara U Mai Ek Reordering" uni0E38
Substitution2: "Thai Sara UU Mai Ek Reordering" uni0E39
Substitution2: "Thai Phinthu Mai Ek Reordering" uni0E3A
EndChar

StartChar: uni0E49
Encoding: 3657 3657 8
Width: 0
Flags: W
HStem: 969 28<61.3765 83.2983>
VStem: 30 31<922.219 968.616> 86 29<922.742 966.849>
AnchorPoint: "AboveMark" 121 1038 basemark 0
AnchorPoint: "AboveMark" 66 780 mark 0
LayerCount: 3
Fore
SplineSet
115 963 m 0
 115 926 92 903 91 898 c 1
 91 897 l 1
 94 897 198 992 201 996 c 0
 206 1002 214 1005 220 1005 c 0
 225 1005 229 1004 229 997 c 0
 229 970 146 918 144 906 c 0
 143 902 30 813 17 813 c 0
 7 813 -19 786 -33 786 c 0
 -37 786 -43 787 -43 794 c 0
 -43 808 -15 836 15 864 c 2
 42 889 l 1
 39 901 l 2
 35 916 30 922 30 933 c 0
 30 945 38 986 46 992 c 0
 49 995 61 997 73 997 c 0
 93 997 96 996 106 982 c 0
 112 973 115 970 115 963 c 0
67 969 m 0
 63 969 61 958 61 950 c 0
 61 937 65 922 70 922 c 0
 74 922 86 942 86 948 c 0
 86 956 71 969 67 969 c 0
EndSplineSet
Validated: 1
Layer: 2
SplineSet
115 963 m 0,0,1
 115 947 115 947 109.5 932 c 128,-1,2
 104 917 104 917 97.5 908 c 128,-1,3
 91 899 91 899 91 898 c 2,4,-1
 91 897 l 2,5,6
 93 897 93 897 145.5 944.5 c 128,-1,7
 198 992 198 992 201 996 c 0,8,9
 209 1005 209 1005 220 1005 c 0,10,11
 229 1005 229 1005 229 997 c 0,12,13
 229 981 229 981 187 945.5 c 128,-1,14
 145 910 145 910 144 906 c 128,-1,15
 143 902 143 902 84.5 857.5 c 128,-1,16
 26 813 26 813 17 813 c 0,17,18
 12 813 12 813 -7 799.5 c 128,-1,19
 -26 786 -26 786 -33 786 c 0,20,21
 -43 786 -43 786 -43 794 c 0,22,23
 -43 810 -43 810 15 864 c 2,24,-1
 42 889 l 1,25,-1
 39 901 l 2,26,27
 38 905 38 905 34 916 c 128,-1,28
 30 927 30 927 30 933 c 0,29,30
 30 944 30 944 35.5 966 c 128,-1,31
 41 988 41 988 46 992 c 0,32,33
 51 997 51 997 73 997 c 0,34,35
 88 997 88 997 93.5 994.5 c 128,-1,36
 99 992 99 992 106 982 c 0,37,38
 115 968 115 968 115 963 c 0,0,1
67 969 m 0,39,40
 61 969 61 969 61 950 c 0,41,42
 61 922 61 922 70 922 c 0,43,44
 73 922 73 922 79.5 932.5 c 128,-1,45
 86 943 86 943 86 948 c 0,46,47
 86 954 86 954 78 961.5 c 128,-1,48
 70 969 70 969 67 969 c 0,39,40
EndSplineSet
Substitution2: "Thai Mai Tho Macron Reordering" macronbelowcmb
Substitution2: "Thai Mai Tho Tilde Reordering" tildecomb
MultipleSubs2: "Thai Tone Nikhahit Attachment" uni0E4D uni0E49
Substitution2: "Thai Tone Low Variant" uni0E49.low
Substitution2: "Thai Sara U Mai Tho Reordering" uni0E38
Substitution2: "Thai Sara UU Mai Tho Reordering" uni0E39
Substitution2: "Thai Phinthu Mai Tho Reordering" uni0E3A
EndChar

StartChar: uni0E4B
Encoding: 3659 3659 9
Width: 0
Flags: W
HStem: 877 37<-13.0181 60.75> 897 29<118.103 179>
VStem: 58 28<821 839> 95 32<927 996.762>
AnchorPoint: "AboveMark" 118 1038 basemark 0
AnchorPoint: "AboveMark" 63 780 mark 0
LayerCount: 3
Fore
SplineSet
95 958 m 2xb0
 99 994 101 997 116 997 c 0
 123 997 127 992 127 980 c 0
 127 973 126 962 123 948 c 2
 118 926 l 1
 184 924 l 1
 179 899 l 1
 146 897 l 1
 142 897 l 2x70
 133 897 127 898 122 898 c 0
 107 898 105 891 91 839 c 2
 86 821 l 1
 58 821 l 1
 63 841 l 2
 70 867 72 879 75 886 c 2
 81 898 l 1
 57 895 l 2
 30 892 5 877 -7 877 c 0
 -12 877 -14 880 -14 886 c 0
 -14 906 -6 907 9 914 c 0
 22 920 42 924 61 925 c 2
 91 927 l 1
 95 958 l 2xb0
EndSplineSet
Validated: 1
Layer: 2
SplineSet
95 958 m 2,0,1
 98 985 98 985 101.5 991 c 128,-1,2
 105 997 105 997 116 997 c 128,-1,3
 127 997 127 997 127 980 c 0,4,5
 127 967 127 967 123 948 c 2,6,-1
 118 926 l 1,7,-1
 184 924 l 1,8,-1
 179 899 l 1,9,-1
 146 897 l 1,10,-1
 142 897 l 2,11,12
 137 897 137 897 130.5 897.5 c 128,-1,13
 124 898 124 898 122 898 c 0,14,15
 111 898 111 898 106.5 889 c 128,-1,16
 102 880 102 880 91 839 c 2,17,-1
 86 821 l 1,18,-1
 58 821 l 1,19,-1
 63 841 l 2,20,21
 66 851 66 851 68.5 862 c 128,-1,22
 71 873 71 873 72.5 878 c 128,-1,23
 74 883 74 883 75 886 c 2,24,-1
 81 898 l 1,25,-1
 57 895 l 2,26,27
 42 893 42 893 20 885 c 128,-1,28
 -2 877 -2 877 -7 877 c 0,29,30
 -14 877 -14 877 -14 886 c 0,31,32
 -14 890 -14 890 -13.5 893 c 128,-1,33
 -13 896 -13 896 -12.5 898 c 128,-1,34
 -12 900 -12 900 -10.5 902 c 128,-1,35
 -9 904 -9 904 -8 905 c 128,-1,36
 -7 906 -7 906 -4.5 907.5 c 128,-1,37
 -2 909 -2 909 -1 909.5 c 128,-1,38
 0 910 0 910 3.5 911.5 c 128,-1,39
 7 913 7 913 9 914 c 0,40,41
 29 923 29 923 61 925 c 2,42,-1
 91 927 l 1,43,-1
 95 958 l 2,0,1
EndSplineSet
Substitution2: "Thai Mai Chattawa Macron Reordering" macronbelowcmb
Substitution2: "Thai Mai Chattawa Tilde Reordering" tildecomb
MultipleSubs2: "Thai Tone Nikhahit Attachment" uni0E4D uni0E4B
Substitution2: "Thai Tone Low Variant" uni0E4B.low
Substitution2: "Thai Sara U Mai Chattawa Reordering" uni0E38
Substitution2: "Thai Sara UU Mai Chattawa Reordering" uni0E39
Substitution2: "Thai Phinthu Mai Chattawa Reordering" uni0E3A
EndChar

StartChar: uni0E4C
Encoding: 3660 3660 10
Width: 0
Flags: W
HStem: 824 19<34 86.3307> 911 49<151.635 182.798> 941 33<70.1697 150.684>
VStem: -1 45<857.604 914.415> 88 25<843.996 881.5>
AnchorPoint: "AboveMark" 126 1038 basemark 0
AnchorPoint: "AboveMark" 106 780 mark 0
LayerCount: 3
Fore
SplineSet
113 870 m 0xb8
 113 838 74 824 44 824 c 0
 24 824 -1 846 -1 871 c 0
 -1 909 76 974 112 974 c 0xb8
 131 974 155 969 162 963 c 0
 164 961 165 960 166 960 c 0
 175 960 211 1033 223 1045 c 0
 228 1050 234 1052 238 1052 c 0
 244 1052 249 1048 249 1041 c 0
 249 1020 179 911 169 911 c 0xd8
 157 911 147 941 115 941 c 0
 91 941 44 915 44 899 c 0
 44 879 113 893 113 870 c 0xb8
55 855 m 0
 55 853 59 843 70 843 c 0
 79 843 88 849 88 857 c 0
 88 863 83 866 76 866 c 0
 67 866 56 859 55 855 c 0
EndSplineSet
Validated: 1
Layer: 2
SplineSet
113 870 m 0,0,1
 113 848 113 848 91.5 836 c 128,-1,2
 70 824 70 824 44 824 c 0,3,4
 28 824 28 824 13.5 838.5 c 128,-1,5
 -1 853 -1 853 -1 871 c 0,6,7
 -1 899 -1 899 41.5 936.5 c 128,-1,8
 84 974 84 974 112 974 c 0,9,10
 149 974 149 974 162 963 c 0,11,12
 165 960 165 960 166 960 c 0,13,14
 170 960 170 960 181.5 978.5 c 128,-1,15
 193 997 193 997 205.5 1018.5 c 128,-1,16
 218 1040 218 1040 223 1045 c 0,17,18
 230 1052 230 1052 238 1052 c 0,19,20
 249 1052 249 1052 249 1041 c 0,21,22
 249 1026 249 1026 213 968.5 c 128,-1,23
 177 911 177 911 169 911 c 0,24,25
 166 911 166 911 150 926 c 128,-1,26
 134 941 134 941 115 941 c 0,27,28
 97 941 97 941 70.5 926 c 128,-1,29
 44 911 44 911 44 899 c 0,30,31
 44 889 44 889 78.5 885.5 c 128,-1,32
 113 882 113 882 113 870 c 0,0,1
55 855 m 0,33,34
 55 852 55 852 59 847.5 c 128,-1,35
 63 843 63 843 70 843 c 128,-1,36
 77 843 77 843 82.5 847 c 128,-1,37
 88 851 88 851 88 857 c 0,38,39
 88 866 88 866 76 866 c 0,40,41
 70 866 70 866 63 862 c 128,-1,42
 56 858 56 858 55 855 c 0,33,34
EndSplineSet
Substitution2: "Thai Thanthakhat Macron Reordering" macronbelowcmb
MultipleSubs2: "Thai Tone Nikhahit Attachment" uni0E4D uni0E4C
Substitution2: "Thai Tone Low Variant" uni0E4C.low
Substitution2: "Thai Sara U Thanthakhat Reordering" uni0E38
Substitution2: "Thai Sara UU Thanthakhat Reordering" uni0E39
Substitution2: "Thai Phinthu Thanthakhat Reordering" uni0E3A
EndChar

StartChar: exclam
Encoding: 33 33 12
Width: 519
Flags: W
HStem: 532 20G<348.5 356.5>
VStem: 212 127<38 86.125> 296 36<224.857 290.129>
LayerCount: 3
Fore
SplineSet
339 95 m 0xc0
 339 67 304 2 274 2 c 0
 260 2 242 17 233 17 c 0
 222 17 212 32 212 45 c 0
 212 64 250 111 269 119 c 0
 276 122 284 123 293 123 c 0
 330 123 339 109 339 95 c 0xc0
325 525 m 0
 325 551 348 552 349 552 c 0
 364 552 394 548 425 544 c 2
 459 540 l 1
 448 503 l 2
 431 447 382 376 332 251 c 0
 325 233 318 224 310 224 c 0
 300 224 296 232 296 250 c 0xa0
 296 280 307 337 316 429 c 1
 316 469 331 493 331 509 c 0
 331 517 325 516 325 525 c 0
EndSplineSet
Validated: 1
Layer: 2
SplineSet
339 95 m 0,0,1
 339 72 339 72 317 37 c 128,-1,2
 295 2 295 2 274 2 c 0,3,4
 266 2 266 2 251.5 9.5 c 128,-1,5
 237 17 237 17 233 17 c 0,6,7
 225 17 225 17 218.5 26 c 128,-1,8
 212 35 212 35 212 45 c 0,9,10
 212 59 212 59 233 86 c 128,-1,11
 254 113 254 113 269 119 c 0,12,13
 278 123 278 123 293 123 c 0,14,15
 339 123 339 123 339 95 c 0,0,1
325 525 m 0,16,17
 325 537 325 537 331.5 543.5 c 128,-1,18
 338 550 338 550 342 551 c 128,-1,19
 346 552 346 552 349 552 c 0,20,21
 363 552 363 552 425 544 c 2,22,-1
 459 540 l 1,23,-1
 448 503 l 2,24,25
 440 476 440 476 399 396 c 128,-1,26
 358 316 358 316 332 251 c 0,27,28
 322 224 322 224 310 224 c 0,29,30
 296 224 296 224 296 250 c 0,31,32
 296 263 296 263 299 286.5 c 128,-1,33
 302 310 302 310 307 351 c 128,-1,34
 312 392 312 392 316 429 c 0,35,36
 316 452 316 452 323.5 478 c 128,-1,37
 331 504 331 504 331 509 c 0,38,39
 331 513 331 513 328 516.5 c 128,-1,40
 325 520 325 520 325 525 c 0,16,17
EndSplineSet
EndChar

StartChar: quotedbl
Encoding: 34 34 13
Width: 572
Flags: W
HStem: 470 265<463.064 482.698>
VStem: 316 85<483.445 686.34> 433 78<513.728 687.802> 433 58<472.227 672.967>
LayerCount: 3
Fore
SplineSet
316 559 m 0xc0
 316 629 327 709 369 709 c 0
 395 709 401 675 401 568 c 0
 401 516 385 470 354 470 c 0
 346 470 339 473 331 478 c 0
 321 485 316 519 316 559 c 0xc0
433 515 m 0xe0
 433 534 444 735 484 735 c 0
 493 735 511 717 511 675 c 0xe0
 511 632 500 565 491 522 c 0xd0
 483 485 476 470 460 470 c 0
 433 470 433 503 433 515 c 0xe0
EndSplineSet
Validated: 1
Layer: 2
SplineSet
316 559 m 0,0,1
 316 709 316 709 369 709 c 0,2,3
 388 709 388 709 394.5 679.5 c 128,-1,4
 401 650 401 650 401 568 c 0,5,6
 401 527 401 527 388.5 498.5 c 128,-1,7
 376 470 376 470 354 470 c 0,8,9
 344 470 344 470 331 478 c 0,10,11
 316 488 316 488 316 559 c 0,0,1
433 515 m 0,12,13
 433 561 433 561 446 648 c 128,-1,14
 459 735 459 735 484 735 c 0,15,16
 489 735 489 735 495 729 c 128,-1,17
 501 723 501 723 506 708.5 c 128,-1,18
 511 694 511 694 511 675 c 0,19,20
 511 618 511 618 491 522 c 0,21,22
 485 493 485 493 478.5 481.5 c 128,-1,23
 472 470 472 470 460 470 c 0,24,25
 433 470 433 470 433 515 c 0,12,13
EndSplineSet
EndChar

StartChar: numbersign
Encoding: 35 35 14
Width: 655
Flags: W
HStem: 145 60<128.337 227.338> 366 71<208.079 326.844> 407 59<424.621 479.215> 422 72<588.005 618.668>
VStem: 193 77<31.9307 101.145>
DStem2: 290 286 328 217 0.340754 0.940153<-51.7227 98.7385>
LayerCount: 3
Fore
SplineSet
433 559 m 0xc8
 433 543 423 497 423 481 c 0
 423 470 427 466 437 466 c 0xa8
 555 466 536 582 582 582 c 0
 597 582 601 575 601 566 c 0
 601 551 588 517 588 505 c 0
 588 494 595 494 610 494 c 2
 615 494 l 2
 626 494 639 491 639 479 c 0
 639 454 598 422 581 422 c 0x98
 575 422 574 424 570 424 c 0
 558 424 556 409 514 305 c 2
 496 261 l 1
 563 267 l 2
 584 269 599 270 608 270 c 0
 623 270 625 267 624 260 c 0
 616 224 594 218 548 207 c 0
 461 185 456 182 444 131 c 0
 427 58 413 35 380 31 c 2
 350 28 l 1
 394 165 l 1
 359 165 l 2
 308 165 299 156 270 82 c 0
 247 21 228 -9 212 -9 c 0
 208 -9 193 -6 193 18 c 0
 193 30 195 43 207 78 c 2
 228 145 l 1
 171 145 l 2
 120 145 110 151 110 160 c 0
 110 178 148 201 198 205 c 1
 255 211 264 219 290 286 c 0
 298 309 310 339 317 353 c 2
 328 378 l 1
 254 370 l 2
 230 368 213 366 203 366 c 0
 187 366 183 369 183 377 c 0
 183 410 207 416 238 425 c 0
 265 432 298 437 311 437 c 0
 343 437 351 448 373 515 c 0
 387 559 395 572 422 572 c 0
 430 572 433 569 433 559 c 0xc8
408 235 m 0
 436 242 478 381 478 383 c 0
 479 387 480 391 480 394 c 0
 480 403 475 407 466 407 c 0
 459 407 448 405 435 402 c 0
 387 392 389 393 347 272 c 2
 328 217 l 1
 359 223 l 2
 376 227 398 232 408 235 c 0
EndSplineSet
Validated: 1
Layer: 2
SplineSet
433 559 m 0,0,1
 433 551 433 551 428 520 c 128,-1,2
 423 489 423 489 423 481 c 0,3,4
 423 466 423 466 437 466 c 0,5,6
 477 466 477 466 502.5 484 c 128,-1,7
 528 502 528 502 536.5 524 c 128,-1,8
 545 546 545 546 556 564 c 128,-1,9
 567 582 567 582 582 582 c 0,10,11
 601 582 601 582 601 566 c 0,12,13
 601 558 601 558 594.5 534.5 c 128,-1,14
 588 511 588 511 588 505 c 0,15,16
 588 497 588 497 592.5 495.5 c 128,-1,17
 597 494 597 494 610 494 c 2,18,-1
 615 494 l 2,19,20
 639 494 639 494 639 479 c 0,21,22
 639 461 639 461 617 441.5 c 128,-1,23
 595 422 595 422 581 422 c 0,24,25
 578 422 578 422 575 423 c 128,-1,26
 572 424 572 424 570 424 c 0,27,28
 563 424 563 424 558 414 c 128,-1,29
 553 404 553 404 538.340603032 366.344092487 c 0,30,31
 524 330 524 330 514 305 c 2,32,-1
 496 261 l 1,33,-1
 563 267 l 2,34,35
 594.5 270 594.5 270 608 270 c 0,36,37
 619 270 619 270 622 268 c 128,-1,38
 625 266 625 266 624 260 c 0,39,40
 618 235 618 235 602.5 225.5 c 128,-1,41
 587 216 587 216 548 207 c 0,42,43
 482 190 482 190 467.5 179.5 c 128,-1,44
 453 169 453 169 444 131 c 0,45,46
 431 76 431 76 418 55 c 128,-1,47
 405 34 405 34 380 31 c 2,48,-1
 350 28 l 1,49,-1
 394 165 l 1,50,-1
 359 165 l 2,51,52
 321 165 321 165 306.5 151.5 c 128,-1,53
 292 138 292 138 270 82 c 0,54,55
 236 -9 236 -9 212 -9 c 0,56,57
 209 -9 209 -9 205 -7.5 c 128,-1,58
 201 -6 201 -6 197 0.5 c 128,-1,59
 193 7 193 7 193 18 c 0,60,61
 193 37 193 37 207 78 c 2,62,-1
 228 145 l 1,63,-1
 171 145 l 2,64,65
 110 145 110 145 110 160 c 0,66,67
 110 174 110 174 136 188 c 128,-1,68
 162 202 162 202 198 205 c 0,69,70
 241 209 241 209 255.5 222.5 c 128,-1,71
 270 236 270 236 290 286 c 0,72,73
 305 329 305 329 317 353 c 2,74,-1
 328 378 l 1,75,-1
 254 370 l 2,76,77
 206 366 206 366 203 366 c 0,78,79
 183 366 183 366 183 377 c 0,80,81
 183 393 183 393 191.5 402.5 c 128,-1,82
 200 412 200 412 208.5 415.5 c 128,-1,83
 217 419 217 419 238 425 c 0,84,85
 284 437 284 437 311 437 c 0,86,87
 335 437 335 437 345.5 450.5 c 128,-1,88
 356 464 356 464 373 515 c 0,89,90
 384 549 384 549 393 560.5 c 128,-1,91
 402 572 402 572 422 572 c 0,92,93
 433 572 433 572 433 559 c 0,0,1
408 235 m 0,94,95
 420 238 420 238 437.5 275 c 128,-1,96
 455 312 455 312 466.5 346 c 128,-1,97
 478 380 478 380 478 383 c 0,98,99
 480 391 480 391 480 394 c 0,100,101
 480 407 480 407 466 407 c 0,102,103
 457 407 457 407 435 402 c 0,104,105
 399 395 399 395 389 379.5 c 128,-1,106
 379 364 379 364 347 272 c 2,107,-1
 328 217 l 1,108,-1
 359 223 l 2,109,110
 401 233 401 233 408 235 c 0,94,95
EndSplineSet
EndChar

StartChar: dollar
Encoding: 36 36 15
Width: 628
Flags: W
HStem: 331 49<362 421> 527 51<478 501>
VStem: 178 156<101.5 247> 185 51<-145.48 -85.5118> 261 60<393.31 472.258> 464 58<198.669 315.779>
LayerCount: 3
Fore
SplineSet
549 748 m 0xcc
 549 734 497 619 497 585 c 0
 497 580 498 578 501 578 c 0
 514 578 576 504 576 489 c 0
 576 486 573 474 560 474 c 0
 533 474 492 527 478 527 c 0
 476 527 461 486 452 458 c 2
 432 391 l 1
 461 375 l 2
 501 352 522 316 522 275 c 0
 522 200 443 94 364 72 c 0
 310 58 300 44 267 -57 c 0
 253 -101 238 -139 236 -141 c 0
 234 -142 211 -147 198 -147 c 0
 189 -147 185 -145 185 -137 c 0xdc
 185 -134 186 -130 187 -125 c 0
 196 -84 220 -16 231 11 c 2
 258 82 l 1
 229 113 l 2
 197 146 178 200 178 237 c 0xe4
 178 257 184 281 206 281 c 0
 234 281 234 226 264 173 c 2
 278 149 l 1
 293 188 l 1
 315 242 345 296 345 323 c 0
 345 335 340 341 327 344 c 0
 292 354 261 389 261 421 c 0
 261 461 336 552 392 576 c 0
 430 592 435 597 459 657 c 0
 473 693 488 730 493 739 c 0
 498 750 512 756 528 756 c 0
 542 756 549 755 549 748 c 0xcc
362 380 m 0
 372 380 410 495 410 544 c 1
 367 500 l 2
 350 482 321 449 321 436 c 0
 321 417 348 380 362 380 c 0
339 95 m 0
 355 95 464 187 464 265 c 0
 464 314 421 331 421 331 c 1
 404 331 334 146 334 105 c 0xe4
 334 98 335 95 339 95 c 0
EndSplineSet
Validated: 1
Layer: 2
SplineSet
549 748 m 0,0,1
 549 744 549 744 523 674 c 128,-1,2
 497 604 497 604 497 585 c 0,3,4
 497 578 497 578 501 578 c 0,5,6
 511 578 511 578 543.5 539 c 128,-1,7
 576 500 576 500 576 489 c 0,8,9
 576 487 576 487 575 484 c 128,-1,10
 574 481 574 481 570 477.5 c 128,-1,11
 566 474 566 474 560 474 c 0,12,13
 545 474 545 474 514 500.5 c 128,-1,14
 483 527 483 527 478 527 c 0,15,16
 474 527 474 527 452 458 c 2,17,-1
 432 391 l 1,18,-1
 461 375 l 2,19,20
 522 340 522 340 522 275 c 0,21,22
 522 218 522 218 472.5 153 c 128,-1,23
 423 88 423 88 364 72 c 0,24,25
 324 62 324 62 308 40.5 c 128,-1,26
 292 19 292 19 267 -57 c 0,27,28
 242 -135 242 -135 236 -141 c 0,29,30
 224 -147 224 -147 198 -147 c 0,31,32
 185 -147 185 -147 185 -137 c 0,33,34
 185 -135 185 -135 187 -125 c 0,35,36
 200 -64 200 -64 231 11 c 2,37,-1
 258 82 l 1,38,-1
 229 113 l 2,39,40
 206 137 206 137 192 172.5 c 128,-1,41
 178 208 178 208 178 237 c 0,42,43
 178 281 178 281 206 281 c 0,44,45
 218 281 218 281 225.5 266.5 c 128,-1,46
 233 252 233 252 243 222.5 c 128,-1,47
 253 193 253 193 264 173 c 2,48,-1
 278 149 l 1,49,-1
 293 188 l 2,50,51
 300 205 300 205 315 238 c 128,-1,52
 330 271 330 271 337.5 291 c 128,-1,53
 345 311 345 311 345 323 c 0,54,55
 345 340 345 340 327 344 c 0,56,57
 301 352 301 352 281 374.5 c 128,-1,58
 261 397 261 397 261 421 c 0,59,60
 261 451 261 451 305.5 504.5 c 128,-1,61
 350 558 350 558 392 576 c 0,62,63
 421 588 421 588 431 600 c 128,-1,64
 441 612 441 612 459 657 c 0,65,66
 486 726 486 726 493 739 c 0,67,68
 501 756 501 756 528 756 c 0,69,70
 549 756 549 756 549 748 c 0,0,1
362 380 m 0,71,72
 370 380 370 380 390 444.5 c 128,-1,73
 410 509 410 509 410 544 c 1,74,-1
 367 500 l 2,75,76
 321 451 321 451 321 436 c 0,77,78
 321 422 321 422 336.5 401 c 128,-1,79
 352 380 352 380 362 380 c 0,71,72
339 95 m 0,80,81
 349 95 349 95 378 120.5 c 128,-1,82
 407 146 407 146 435.5 188 c 128,-1,83
 464 230 464 230 464 265 c 0,84,85
 464 287 464 287 453 303.5 c 128,-1,86
 442 320 442 320 431.5 325.5 c 2,87,-1
 421 331 l 1,88,89
 408 331 408 331 371 233.5 c 128,-1,90
 334 136 334 136 334 105 c 0,91,92
 334 95 334 95 339 95 c 0,80,81
EndSplineSet
EndChar

StartChar: percent
Encoding: 37 37 16
Width: 734
Flags: W
HStem: 544 20G<724.5 741.5>
VStem: 239 107<376.262 453.996>
LayerCount: 3
Fore
SplineSet
609 144 m 0
 609 124 551 42 495 42 c 0
 472 42 457 60 457 74 c 0
 457 97 532 195 571 195 c 0
 593 195 609 162 609 144 c 0
239 385 m 0
 239 439 277 486 303 486 c 0
 314 486 346 471 346 434 c 0
 346 392 307 342 267 342 c 0
 248 342 239 361 239 385 c 0
90 -47 m 0
 87 -47 70 -44 70 -30 c 0
 70 -7 115 33 178 85 c 0
 288 175 449 323 537 415 c 0
 599 480 711 564 738 564 c 0
 745 564 748 560 748 552 c 0
 748 487 563 366 412 208 c 0
 381 175 130 -47 90 -47 c 0
EndSplineSet
Validated: 1
Layer: 2
SplineSet
609 144 m 0,0,1
 609 124 609 124 570.5 83 c 128,-1,2
 532 42 532 42 495 42 c 0,3,4
 479 42 479 42 468 52.5 c 128,-1,5
 457 63 457 63 457 74 c 0,6,7
 457 94 457 94 500.5 144.5 c 128,-1,8
 544 195 544 195 571 195 c 0,9,10
 586 195 586 195 597.5 177.5 c 128,-1,11
 609 160 609 160 609 144 c 0,0,1
239 385 m 0,12,13
 239 423 239 423 260.5 454.5 c 128,-1,14
 282 486 282 486 303 486 c 0,15,16
 315 486 315 486 330.5 472 c 128,-1,17
 346 458 346 458 346 434 c 0,18,19
 346 402 346 402 321 372 c 128,-1,20
 296 342 296 342 267 342 c 0,21,22
 239 342 239 342 239 385 c 0,12,13
90 -47 m 0,23,24
 85 -47 85 -47 77.5 -43 c 128,-1,25
 70 -39 70 -39 70 -30 c 0,26,27
 70 -4 70 -4 178 85 c 0,28,29
 260 152 260 152 365.5 249 c 128,-1,30
 471 346 471 346 537 415 c 0,31,32
 584 464 584 464 651 514 c 128,-1,33
 718 564 718 564 738 564 c 0,34,35
 748 564 748 564 748 552 c 0,36,37
 748 523 748 523 700 475 c 128,-1,38
 652 427 652 427 560 347 c 128,-1,39
 468 267 468 267 412 208 c 0,40,41
 375 168 375 168 245.5 60.5 c 128,-1,42
 116 -47 116 -47 90 -47 c 0,23,24
EndSplineSet
EndChar

StartChar: ampersand
Encoding: 38 38 17
Width: 734
Flags: W
HStem: -45 70<190.792 256.081> 34 82<552.542 644.904> 551 62<364.124 441.649>
VStem: 126 64<25.2276 117.059> 254 70<395.565 509.004> 412 252<59 135.5> 413 66<482.099 579.5>
DStem2: 203 211 250 182 0.56921 0.822192<-130.811 84.4961>
LayerCount: 3
Fore
SplineSet
479 546 m 0xfa
 479 475 351 344 351 308 c 0
 351 279 420 199 450 199 c 0
 499 199 577 352 634 352 c 0
 648 352 661 338 661 326 c 0
 661 297 522 185 516 154 c 0
 515 150 517 148 523 148 c 0
 545 148 552 116 587 116 c 0
 622 116 664 88 664 65 c 0xfc
 664 53 653 34 623 34 c 0
 591 34 544 54 503 90 c 1
 471 117 l 1
 403 67 l 2
 363 37 234 -45 198 -45 c 0
 177 -45 126 -29 126 34 c 0
 126 105 191 195 203 211 c 2
 266 302 l 1
 260 357 l 2
 256 385 254 409 254 430 c 0
 254 518 290 551 354 586 c 0
 384 602 414 613 426 613 c 0
 429 613 443 608 458 608 c 0
 470 608 479 574 479 546 c 0xfa
331 460 m 0
 329 451 324 425 324 409 c 0
 324 401 325 395 329 395 c 0
 336 395 351 405 365 417 c 0
 411 459 413 535 413 538 c 0xfa
 413 547 411 551 406 551 c 0
 400 551 389 545 373 535 c 0
 348 521 341 508 331 460 c 0
250 182 m 2
 217 137 190 86 190 52 c 0
 190 36 196 25 208 25 c 0
 237 25 351 100 387 106 c 0
 407 110 412 116 412 123 c 0xfc
 412 148 341 179 313 222 c 1
 298 248 l 1
 250 182 l 2
EndSplineSet
Validated: 1
Layer: 2
SplineSet
479 546 m 0,0,1
 479 515 479 515 447 463.5 c 128,-1,2
 415 412 415 412 383 367 c 128,-1,3
 351 322 351 322 351 308 c 0,4,5
 351 286 351 286 389.5 242.5 c 128,-1,6
 428 199 428 199 450 199 c 0,7,8
 470 199 470 199 504.5 237.5 c 128,-1,9
 539 276 539 276 574.5 314 c 128,-1,10
 610 352 610 352 634 352 c 0,11,12
 644 352 644 352 652.5 343.5 c 128,-1,13
 661 335 661 335 661 326 c 0,14,15
 661 311 661 311 590 240 c 128,-1,16
 519 169 519 169 516 154 c 0,17,18
 515 151 515 151 517 149.5 c 128,-1,19
 519 148 519 148 523 148 c 0,20,21
 532 148 532 148 550 132 c 128,-1,22
 568 116 568 116 587 116 c 0,23,24
 613 116 613 116 638.5 99 c 128,-1,25
 664 82 664 82 664 65 c 0,26,27
 664 54 664 54 653.5 44 c 128,-1,28
 643 34 643 34 623 34 c 0,29,30
 567 34 567 34 503 90 c 2,31,-1
 471 117 l 1,32,-1
 403 67 l 2,33,34
 363 37 363 37 292.5 -4 c 128,-1,35
 222 -45 222 -45 198 -45 c 0,36,37
 175 -45 175 -45 150.5 -26 c 128,-1,38
 126 -7 126 -7 126 34 c 0,39,40
 126 108 126 108 203 211 c 1,41,-1
 266 302 l 1,42,-1
 260 357 l 2,43,44
 254 399 254 399 254 430 c 0,45,46
 254 492 254 492 277.5 524.5 c 128,-1,47
 301 557 301 557 354 586 c 0,48,49
 405 613 405 613 426 613 c 1,50,-1
 437.5 610.5 l 2,51,52
 449 608 449 608 458 608 c 128,-1,53
 467 608 467 608 473 588 c 128,-1,54
 479 568 479 568 479 546 c 0,0,1
331 460 m 0,55,56
 324 429 324 429 324 409 c 0,57,58
 324 395 324 395 329 395 c 0,59,60
 339 395 339 395 365 417 c 0,61,62
 385 436 385 436 397 467 c 128,-1,63
 409 498 409 498 411 513.5 c 128,-1,64
 413 529 413 529 413 538 c 0,65,66
 413 551 413 551 406 551 c 128,-1,67
 399 551 399 551 373 535 c 0,68,69
 354 525 354 525 346.5 510.5 c 128,-1,70
 339 496 339 496 331 460 c 0,55,56
250 182 m 2,71,72
 190 100 190 100 190 52 c 0,73,74
 190 25 190 25 208 25 c 0,75,76
 223 25 223 25 296.5 64 c 128,-1,77
 370 103 370 103 387 106 c 0,78,79
 412 111 412 111 412 123 c 0,80,81
 412 134 412 134 393.5 149 c 128,-1,82
 375 164 375 164 349.5 184 c 128,-1,83
 324 204 324 204 313 222 c 2,84,-1
 298 248 l 1,85,-1
 250 182 l 2,71,72
EndSplineSet
EndChar

StartChar: quotesingle
Encoding: 39 39 18
Width: 613
Flags: W
HStem: 453 248<391.918 448.709>
VStem: 370 98<468.899 570.1>
LayerCount: 3
Fore
SplineSet
370 527 m 0
 370 550 376 563 376 586 c 0
 376 605 370 606 370 617 c 0
 370 630 378 663 395 684 c 0
 405 697 411 701 431 701 c 0
 457 701 539 690 547 685 c 0
 549 684 549 681 549 678 c 0
 549 662 531 619 509 599 c 0
 499 590 480 554 468 519 c 0
 448 463 440 453 419 453 c 0
 390 453 370 485 370 527 c 0
EndSplineSet
Validated: 1
Layer: 2
SplineSet
370 527 m 0,0,1
 370 538 370 538 373 556 c 128,-1,2
 376 574 376 574 376 586 c 0,3,4
 376 596 376 596 373 604 c 128,-1,5
 370 612 370 612 370 617 c 0,6,7
 370 653 370 653 395 684 c 0,8,9
 408 701 408 701 431 701 c 0,10,11
 451 701 451 701 496 695 c 128,-1,12
 541 689 541 689 547 685 c 0,13,14
 549 684 549 684 549 678 c 0,15,16
 549 665 549 665 536.5 639 c 128,-1,17
 524 613 524 613 509 599 c 0,18,19
 489 581 489 581 468 519 c 0,20,21
 453 477 453 477 444 465 c 128,-1,22
 435 453 435 453 419 453 c 0,23,24
 397 453 397 453 383.5 474 c 128,-1,25
 370 495 370 495 370 527 c 0,0,1
EndSplineSet
EndChar

StartChar: parenleft
Encoding: 40 40 19
Width: 651
Flags: W
VStem: 243 81<122.703 339.521>
LayerCount: 3
Fore
SplineSet
453 -104 m 0
 453 -133 424 -140 410 -140 c 0
 343 -140 243 79 243 245 c 0
 243 315 244 315 375 597 c 0
 420 694 455 745 514 796 c 0
 549 826 584 844 602 844 c 0
 610 844 614 841 614 833 c 0
 614 816 562 755 557 749 c 0
 482 659 324 366 324 229 c 0
 324 157 379 15 419 -33 c 0
 442 -61 453 -86 453 -104 c 0
EndSplineSet
Validated: 1
Layer: 2
SplineSet
453 -104 m 0,0,1
 453 -123 453 -123 439 -131.5 c 128,-1,2
 425 -140 425 -140 410 -140 c 0,3,4
 377 -140 377 -140 337.5 -79 c 128,-1,5
 298 -18 298 -18 270.5 73.5 c 128,-1,6
 243 165 243 165 243 245 c 0,7,8
 243 297 243 297 259 340 c 128,-1,9
 275 383 275 383 375 597 c 0,10,11
 409 670 409 670 439.5 714 c 128,-1,12
 470 758 470 758 514 796 c 0,13,14
 570 844 570 844 602 844 c 0,15,16
 614 844 614 844 614 833 c 0,17,18
 614 817 614 817 557 749 c 0,19,20
 491 669 491 669 407.5 496 c 128,-1,21
 324 323 324 323 324 229 c 0,22,23
 324 177 324 177 356 90.5 c 128,-1,24
 388 4 388 4 419 -33 c 0,25,26
 453 -74 453 -74 453 -104 c 0,0,1
EndSplineSet
EndChar

StartChar: parenright
Encoding: 41 41 20
Width: 636
Flags: W
HStem: 763 74<376.703 408.139>
VStem: 459 90<380.197 677.947>
LayerCount: 3
Fore
SplineSet
374 804 m 0
 374 830 390 837 403 837 c 0
 457 837 538 725 547 624 c 0
 548 611 549 597 549 581 c 0
 549 453 508 254 465 161 c 0
 390 0 323 -57 281 -128 c 0
 265 -156 250 -167 224 -167 c 0
 208 -167 183 -161 183 -152 c 0
 183 -141 223 -78 270 -14 c 0
 325 60 396 154 439 356 c 0
 453 423 459 480 459 529 c 0
 459 694 396 761 392 763 c 0
 381 767 374 786 374 804 c 0
EndSplineSet
Validated: 1
Layer: 2
SplineSet
374 804 m 0,0,1
 374 837 374 837 403 837 c 0,2,3
 444 837 444 837 492 767.5 c 128,-1,4
 540 698 540 698 547 624 c 0,5,6
 549 598 549 598 549 581 c 0,7,8
 549 486 549 486 523.5 359 c 128,-1,9
 498 232 498 232 465 161 c 128,-1,10
 432 90 432 90 396.5 35 c 128,-1,11
 361 -20 361 -20 328 -62 c 128,-1,12
 295 -104 295 -104 281 -128 c 0,13,14
 259 -167 259 -167 224 -167 c 0,15,16
 210 -167 210 -167 196.5 -162.5 c 128,-1,17
 183 -158 183 -158 183 -152 c 0,18,19
 183 -132 183 -132 270 -14 c 0,20,21
 309 39 309 39 331 72.5 c 128,-1,22
 353 106 353 106 386 184.5 c 128,-1,23
 419 263 419 263 439 356 c 0,24,25
 459 452 459 452 459 529 c 0,26,27
 459 603 459 603 442 661 c 128,-1,28
 425 719 425 719 411.5 739.5 c 128,-1,29
 398 760 398 760 392 763 c 0,30,31
 374 770 374 770 374 804 c 0,0,1
EndSplineSet
EndChar

StartChar: asterisk
Encoding: 42 42 21
Width: 772
Flags: W
HStem: 318 90<612.402 706>
VStem: 304 75<503.886 596.847> 340 138<163 251.494>
LayerCount: 3
Fore
SplineSet
379 569 m 0xc0
 379 562 377 558 377 551 c 0
 377 528 393 503 405 503 c 0
 411 503 415 513 420 535 c 0
 427 569 455 631 485 631 c 0
 501 631 505 615 505 593 c 0
 505 569 502 561 502 514 c 1
 501 497 502 487 506 487 c 0
 512 487 523 500 549 529 c 0
 605 592 661 631 689 631 c 0
 702 631 714 621 714 607 c 0
 714 597 708 577 680 558 c 1
 648 534 564 423 564 411 c 0
 564 407 584 405 611 405 c 0
 641 405 665 408 687 408 c 0
 711 408 726 406 726 383 c 0
 726 338 704 333 632 318 c 2
 582 308 l 1
 619 273 l 2
 637 255 647 246 647 235 c 0
 647 219 612 173 594 173 c 0
 564 173 497 254 475 254 c 0
 465 254 462 234 462 223 c 0
 462 198 478 186 478 172 c 0
 478 154 449 126 411 126 c 0
 399 126 393 129 381 129 c 0
 327 129 312 85 267 85 c 0
 249 85 237 95 237 113 c 0
 237 162 340 221 340 249 c 0xa0
 340 260 322 263 287 263 c 0
 239 263 204 282 204 299 c 0
 204 307 211 315 227 319 c 0
 275 333 388 375 388 387 c 0
 388 407 304 496 304 556 c 0
 304 587 327 603 346 603 c 0
 364 603 379 589 379 569 c 0xc0
EndSplineSet
Validated: 1
Layer: 2
SplineSet
379 569 m 0,0,1
 379 566 379 566 378 560 c 128,-1,2
 377 554 377 554 377 551 c 0,3,4
 377 534 377 534 386.5 518.5 c 128,-1,5
 396 503 396 503 405 503 c 0,6,7
 413 503 413 503 420 535 c 0,8,9
 426 566 426 566 445.5 598.5 c 128,-1,10
 465 631 465 631 485 631 c 128,-1,11
 505 631 505 631 505 593 c 0,12,13
 505 584 505 584 503.5 562 c 128,-1,14
 502 540 502 540 502 514 c 0,15,16
 500 487 500 487 506 487 c 0,17,18
 511 487 511 487 549 529 c 0,19,20
 590 575 590 575 629 603 c 128,-1,21
 668 631 668 631 689 631 c 0,22,23
 699 631 699 631 706.5 624 c 128,-1,24
 714 617 714 617 714 607 c 0,25,26
 714 581 714 581 680 558 c 0,27,28
 657 541 657 541 610.5 481 c 128,-1,29
 564 421 564 421 564 411 c 0,30,31
 564 405 564 405 611 405 c 0,32,33
 627 405 627 405 652 406.5 c 128,-1,34
 677 408 677 408 687 408 c 0,35,36
 708 408 708 408 717 403.5 c 128,-1,37
 726 399 726 399 726 383 c 0,38,39
 726 351 726 351 708.5 340.5 c 128,-1,40
 691 330 691 330 632 318 c 2,41,-1
 582 308 l 1,42,-1
 619 273 l 2,43,44
 647 245 647 245 647 235 c 0,45,46
 647 222 647 222 627 197.5 c 128,-1,47
 607 173 607 173 594 173 c 0,48,49
 578 173 578 173 531.5 213.5 c 128,-1,50
 485 254 485 254 475 254 c 0,51,52
 462 254 462 254 462 223 c 0,53,54
 462 209 462 209 470 193.5 c 128,-1,55
 478 178 478 178 478 172 c 0,56,57
 478 157 478 157 458 141.5 c 128,-1,58
 438 126 438 126 411 126 c 0,59,60
 405 126 405 126 396 127.5 c 128,-1,61
 387 129 387 129 381 129 c 0,62,63
 353 129 353 129 320.5 107 c 128,-1,64
 288 85 288 85 267 85 c 0,65,66
 237 85 237 85 237 113 c 0,67,68
 237 134 237 134 262.5 162 c 128,-1,69
 288 190 288 190 314 214 c 128,-1,70
 340 238 340 238 340 249 c 0,71,72
 340 263 340 263 287 263 c 0,73,74
 252 263 252 263 228 274.5 c 128,-1,75
 204 286 204 286 204 299 c 0,76,77
 204 313 204 313 227 319 c 0,78,79
 271 332 271 332 329.5 355.5 c 128,-1,80
 388 379 388 379 388 387 c 0,81,82
 388 394 388 394 367 424 c 128,-1,83
 346 454 346 454 325 492 c 128,-1,84
 304 530 304 530 304 556 c 0,85,86
 304 578 304 578 317 590.5 c 128,-1,87
 330 603 330 603 346 603 c 0,88,89
 360 603 360 603 369.5 593.5 c 128,-1,90
 379 584 379 584 379 569 c 0,0,1
EndSplineSet
EndChar

StartChar: plus
Encoding: 43 43 22
Width: 715
Flags: W
VStem: 419 69<493.658 576.388>
DStem2: 272 383 302 309 0.982662 0.185408<-91.3387 86.5855> 316 20 472 395 0.166172 0.986097<395.709 548.978>
LayerCount: 3
Fore
SplineSet
675 419 m 0
 695 419 698 402 698 389 c 0
 698 334 651 353 490 323 c 2
 453 316 l 1
 382 20 l 1
 316 20 l 1
 372 320 l 1
 302 309 l 2
 252 302 217 298 194 298 c 0
 167 298 157 304 157 318 c 0
 157 321 158 325 159 330 c 0
 166 361 173 365 272 383 c 2
 378 403 l 1
 392 471 l 2
 400 508 412 548 419 560 c 0
 427 572 445 581 462 581 c 0
 481 581 488 578 488 550 c 0
 488 536 486 517 483 488 c 2
 472 395 l 1
 548 403 l 2
 624 410 663 419 675 419 c 0
EndSplineSet
Validated: 1
Layer: 2
SplineSet
675 419 m 0,0,1
 698 419 698 419 698 389 c 0,2,3
 698 377 698 377 695 369.5 c 128,-1,4
 692 362 692 362 684.5 357 c 128,-1,5
 677 352 677 352 667 349.5 c 128,-1,6
 657 347 657 347 639 344.5 c 128,-1,7
 621 342 621 342 602 340 c 128,-1,8
 583 338 583 338 552 333.5 c 128,-1,9
 521 329 521 329 490 323 c 2,10,-1
 453 316 l 1,11,-1
 382 20 l 1,12,-1
 316 20 l 1,13,-1
 372 320 l 1,14,-1
 302 309 l 2,15,16
 223 298 223 298 194 298 c 0,17,18
 157 298 157 298 157 318 c 0,19,20
 157 320 157 320 159 330 c 0,21,22
 164 353 164 353 181 361.5 c 128,-1,23
 198 370 198 370 272 383 c 2,24,-1
 378 403 l 1,25,-1
 392 471 l 2,26,27
 407 539 407 539 419 560 c 0,28,29
 433 581 433 581 462 581 c 0,30,31
 477 581 477 581 482.5 575.5 c 128,-1,32
 488 570 488 570 488 550 c 0,33,34
 488 536 488 536 483 488 c 2,35,-1
 472 395 l 1,36,-1
 548 403 l 2,37,38
 581 406 581 406 610.5 410 c 128,-1,39
 640 414 640 414 655.5 416.5 c 128,-1,40
 671 419 671 419 675 419 c 0,0,1
EndSplineSet
EndChar

StartChar: comma
Encoding: 44 44 23
Width: 496
Flags: W
VStem: 118 266
LayerCount: 3
Fore
SplineSet
118 -144 m 0
 118 -106 189 -5 225 45 c 0
 306 159 338 196 357 196 c 0
 375 196 384 190 384 176 c 0
 384 142 321 57 285 8 c 0
 170 -146 158 -160 136 -160 c 0
 124 -160 118 -155 118 -144 c 0
EndSplineSet
Validated: 1
Layer: 2
SplineSet
118 -144 m 0,0,1
 118 -104 118 -104 225 45 c 0,2,3
 286 131 286 131 314.5 163.5 c 128,-1,4
 343 196 343 196 357 196 c 0,5,6
 384 196 384 196 384 176 c 0,7,8
 384 143 384 143 285 8 c 0,9,10
 198 -108 198 -108 175 -134 c 128,-1,11
 152 -160 152 -160 136 -160 c 0,12,13
 118 -160 118 -160 118 -144 c 0,0,1
EndSplineSet
EndChar

StartChar: hyphen
Encoding: 45 45 24
Width: 931
Flags: W
HStem: 342 114<343.092 810.1>
LayerCount: 3
Fore
SplineSet
621 456 m 2
 644 456 l 2
 855 456 916 455 916 401 c 0
 916 354 810 349 532 342 c 2
 189 334 l 1
 205 385 l 2
 220 432 229 437 324 447 c 0
 374 452 502 456 621 456 c 2
EndSplineSet
Validated: 1
Layer: 2
SplineSet
621 456 m 2,0,-1
 644 456 l 2,1,2
 816 456 816 456 866 447.5 c 128,-1,3
 916 439 916 439 916 401 c 0,4,5
 916 368 916 368 838.5 358 c 128,-1,6
 761 348 761 348 532 342 c 2,7,-1
 189 334 l 1,8,-1
 205 385 l 2,9,10
 216 420 216 420 234.5 430 c 128,-1,11
 253 440 253 440 324 447 c 0,12,13
 414 456 414 456 621 456 c 2,0,-1
EndSplineSet
EndChar

StartChar: period
Encoding: 46 46 25
Width: 545
Flags: W
HStem: -93 105<189.5 303.909> 56 101<264.789 317.287>
VStem: 139 118<-17 46.7012> 330 103<29.8063 113>
LayerCount: 3
Fore
SplineSet
433 96 m 0
 433 13 319 -93 226 -93 c 0
 153 -93 139 -34 139 -0 c 0
 139 7 139 12 140 16 c 0
 152 71 272 157 288 157 c 0
 320 157 306 189 341 189 c 0
 358 189 362 181 362 171 c 0
 362 163 372 157 387 157 c 0
 417 157 433 130 433 96 c 0
269 12 m 0
 295 12 330 44 330 52 c 0
 330 55 326 56 318 56 c 0
 281 56 257 35 257 21 c 0
 257 15 262 12 269 12 c 0
EndSplineSet
Validated: 1
Layer: 2
SplineSet
433 96 m 0,0,1
 433 33 433 33 364 -30 c 128,-1,2
 295 -93 295 -93 226 -93 c 0,3,4
 178 -93 178 -93 158.5 -64 c 128,-1,5
 139 -35 139 -35 139 0 c 0,6,7
 139 12 139 12 140 16 c 0,8,9
 148 52 148 52 209.5 104.5 c 128,-1,10
 271 157 271 157 288 157 c 0,11,12
 304 157 304 157 313.5 173 c 128,-1,13
 323 189 323 189 341 189 c 0,14,15
 362 189 362 189 362 171 c 0,16,17
 362 157 362 157 387 157 c 0,18,19
 409 157 409 157 421 140 c 128,-1,20
 433 123 433 123 433 96 c 0,0,1
269 12 m 0,21,22
 287 12 287 12 308.5 28.5 c 128,-1,23
 330 45 330 45 330 52 c 0,24,25
 330 56 330 56 318 56 c 0,26,27
 292 56 292 56 274.5 44.5 c 128,-1,28
 257 33 257 33 257 21 c 0,29,30
 257 12 257 12 269 12 c 0,21,22
EndSplineSet
EndChar

StartChar: slash
Encoding: 47 47 26
Width: 772
Flags: W
DStem2: 291 150 200 -88 0.565383 0.824829<-228.132 322.756>
LayerCount: 3
Fore
SplineSet
787 866 m 0
 805 866 821 855 821 836 c 0
 821 806 785 778 720 661 c 1
 663 562 403 216 399 197 c 0
 398 191 364 140 323 84 c 2
 200 -88 l 2
 163 -140 143 -159 125 -159 c 0
 108 -159 100 -154 100 -142 c 0
 100 -101 177 -22 291 150 c 1
 668 700 l 2
 734 795 730 866 787 866 c 0
EndSplineSet
Validated: 1
Layer: 2
SplineSet
787 866 m 0,0,1
 801 866 801 866 811 858 c 128,-1,2
 821 850 821 850 821 836 c 0,3,4
 821 823 821 823 811 806.5 c 128,-1,5
 801 790 801 790 773.5 749 c 128,-1,6
 746 708 746 708 720 661 c 0,7,8
 696 619 696 619 615.5 506 c 128,-1,9
 535 393 535 393 468 299 c 128,-1,10
 401 205 401 205 399 197 c 0,11,12
 397 185 397 185 323 84 c 2,13,-1
 200 -88 l 2,14,15
 149 -159 149 -159 125 -159 c 0,16,17
 100 -159 100 -159 100 -142 c 0,18,19
 100 -124 100 -124 120.5 -92 c 128,-1,20
 141 -60 141 -60 194.5 13 c 128,-1,21
 248 86 248 86 291 150 c 2,22,-1
 668 700 l 2,23,24
 693 735 693 735 713.5 782 c 128,-1,25
 734 829 734 829 748 847.5 c 128,-1,26
 762 866 762 866 787 866 c 0,0,1
EndSplineSet
EndChar

StartChar: zero
Encoding: 48 48 27
Width: 564
Flags: W
HStem: -4 61<196.541 301.291> 550 77<459.475 539.823>
VStem: 111 70<73.0046 199.091> 547 53<393.669 543.516>
LayerCount: 3
Fore
SplineSet
111 136 m 0
 111 210 285 424 295 473 c 0
 300 497 464 627 517 627 c 0
 547 627 600 585 600 493 c 0
 600 355 480 193 446 148 c 0
 381 61 327 20 257 2 c 0
 241 -2 227 -4 214 -4 c 0
 166 -4 136 24 121 85 c 0
 115 108 111 123 111 136 c 0
541 447 m 0
 545 465 547 481 547 495 c 0
 547 529 534 550 498 550 c 0
 481 550 460 544 441 533 c 0
 348 480 181 211 181 125 c 0
 181 86 206 57 244 57 c 0
 273 57 295 68 344 107 c 0
 378 134 406 163 408 171 c 0
 414 199 509 298 541 447 c 0
EndSplineSet
Validated: 1
Layer: 2
SplineSet
111 136 m 0,0,1
 111 178 111 178 201.5 317 c 128,-1,2
 292 456 292 456 295 473 c 0,3,4
 298 485 298 485 341.5 522.5 c 128,-1,5
 385 560 385 560 439 593.5 c 128,-1,6
 493 627 493 627 517 627 c 0,7,8
 545 627 545 627 572.5 591 c 128,-1,9
 600 555 600 555 600 493 c 0,10,11
 600 352 600 352 446 148 c 0,12,13
 397 83 397 83 353.5 49.5 c 128,-1,14
 310 16 310 16 257 2 c 0,15,16
 233 -4 233 -4 214 -4 c 0,17,18
 143 -4 143 -4 121 85 c 0,19,20
 111 123 111 123 111 136 c 0,0,1
541 447 m 0,21,22
 547 474 547 474 547 495 c 0,23,24
 547 550 547 550 498 550 c 0,25,26
 470 550 470 550 441 533 c 0,27,28
 396 508 396 508 333.5 425.5 c 128,-1,29
 271 343 271 343 226 255 c 128,-1,30
 181 167 181 167 181 125 c 0,31,32
 181 95 181 95 198.5 76 c 128,-1,33
 216 57 216 57 244 57 c 0,34,35
 266 57 266 57 286.5 67.5 c 128,-1,36
 307 78 307 78 344 107 c 0,37,38
 404 155 404 155 408 171 c 0,39,40
 410 179 410 179 436.5 218 c 128,-1,41
 463 257 463 257 495 319.5 c 128,-1,42
 527 382 527 382 541 447 c 0,21,22
EndSplineSet
EndChar

StartChar: one
Encoding: 49 49 28
Width: 352
Flags: W
HStem: 503 128<310.5 378.293>
VStem: 323 67<433.127 603.102>
LayerCount: 3
Fore
SplineSet
247 45 m 0
 247 130 323 430 323 495 c 0
 323 501 322 503 321 503 c 0
 300 503 204 370 165 370 c 0
 157 370 147 376 147 388 c 0
 147 414 175 428 218 472 c 2
 261 516 l 2
 289 545 345 631 374 631 c 0
 385 631 390 618 390 592 c 0
 390 528 303 46 287 19 c 0
 280 8 272 2 265 2 c 0
 250 2 247 34 247 45 c 0
EndSplineSet
Validated: 1
Layer: 2
SplineSet
247 45 m 0,0,1
 247 90 247 90 285 277.5 c 128,-1,2
 323 465 323 465 323 495 c 0,3,4
 323 503 323 503 321 503 c 0,5,6
 313 503 313 503 282 470 c 128,-1,7
 251 437 251 437 216.5 403.5 c 128,-1,8
 182 370 182 370 165 370 c 0,9,10
 158 370 158 370 152.5 375 c 128,-1,11
 147 380 147 380 147 388 c 0,12,13
 147 400 147 400 153.5 409.5 c 128,-1,14
 160 419 160 419 182.5 439 c 128,-1,15
 205 459 205 459 218 472 c 2,16,-1
 261 516 l 2,17,18
 269 524 269 524 294 556.5 c 128,-1,19
 319 589 319 589 340 610 c 128,-1,20
 361 631 361 631 374 631 c 0,21,22
 390 631 390 631 390 592 c 0,23,24
 390 544 390 544 344.5 291.5 c 128,-1,25
 299 39 299 39 287 19 c 0,26,27
 276 2 276 2 265 2 c 0,28,29
 247 2 247 2 247 45 c 0,0,1
EndSplineSet
EndChar

StartChar: two
Encoding: 50 50 29
Width: 772
Flags: W
HStem: 546 60<390.964 551.668>
VStem: 555 59<438.376 539.041>
LayerCount: 3
Fore
SplineSet
504 606 m 0
 554 606 614 591 614 533 c 0
 614 493 590 409 545 333 c 0
 504 264 366 100 319 63 c 0
 311 56 306 52 305 49 c 0
 305 48 306 48 309 48 c 0
 319 48 488 84 623 84 c 0
 686 84 699 78 699 64 c 0
 699 11 644 46 469 13 c 0
 344 -11 269 -10 248 -27 c 0
 241 -32 233 -34 225 -34 c 0
 206 -34 187 -23 187 -8 c 0
 187 14 279 98 310 121 c 0
 364 160 555 413 555 508 c 0
 555 538 532 546 483 546 c 0
 409 546 334 512 243 436 c 0
 199 399 160 370 157 370 c 0
 156 370 156 373 156 377 c 0
 156 415 169 441 195 453 c 0
 211 460 226 472 228 480 c 0
 232 498 282 524 328 554 c 0
 350 568 422 606 504 606 c 0
EndSplineSet
Validated: 1
Layer: 2
SplineSet
504 606 m 0,0,1
 549 606 549 606 581.5 589 c 128,-1,2
 614 572 614 572 614 533 c 0,3,4
 614 500 614 500 595.5 443.5 c 128,-1,5
 577 387 577 387 545 333 c 0,6,7
 515 282 515 282 435 186.5 c 128,-1,8
 355 91 355 91 319 63 c 0,9,10
 306 51 306 51 305 49 c 0,11,12
 305 48 305 48 309 48 c 0,13,14
 310 48 310 48 361 57 c 128,-1,15
 412 66 412 66 487.5 75 c 128,-1,16
 563 84 563 84 623 84 c 0,17,18
 668 84 668 84 683.5 79.5 c 128,-1,19
 699 75 699 75 699 64 c 0,20,21
 699 48 699 48 692.5 41.5 c 128,-1,22
 686 35 686 35 667.5 32.5 c 128,-1,23
 649 30 649 30 626.5 30 c 128,-1,24
 604 30 604 30 559.5 26 c 128,-1,25
 515 22 515 22 469 13 c 0,26,27
 420 4 420 4 364.5 -3.5 c 128,-1,28
 309 -11 309 -11 283 -15.5 c 128,-1,29
 257 -20 257 -20 248 -27 c 0,30,31
 238 -34 238 -34 225 -34 c 0,32,33
 210 -34 210 -34 198.5 -26.5 c 128,-1,34
 187 -19 187 -19 187 -8 c 0,35,36
 187 7 187 7 233.5 52.5 c 128,-1,37
 280 98 280 98 310 121 c 0,38,39
 360 157 360 157 457.5 300.5 c 128,-1,40
 555 444 555 444 555 508 c 0,41,42
 555 530 555 530 538 538 c 128,-1,43
 521 546 521 546 483 546 c 0,44,45
 375 546 375 546 243 436 c 0,46,47
 165 370 165 370 157 370 c 0,48,49
 156 370 156 370 156 377 c 0,50,51
 156 435 156 435 195 453 c 0,52,53
 224 466 224 466 228 480 c 0,54,55
 229 485 229 485 235 491.5 c 128,-1,56
 241 498 241 498 252 505.5 c 128,-1,57
 263 513 263 513 273.5 519.5 c 128,-1,58
 284 526 284 526 300.5 536.5 c 128,-1,59
 317 547 317 547 328 554 c 0,60,61
 410 606 410 606 504 606 c 0,0,1
EndSplineSet
EndChar

StartChar: three
Encoding: 51 51 30
Width: 568
Flags: W
HStem: -10 56<224.251 337.934> 303 52<271.463 325.341>
VStem: 160 64<48.1524 130.479> 495 72<212.203 341.526>
LayerCount: 3
Fore
SplineSet
205 508 m 0
 205 511 207 515 207 519 c 0
 207 526 204 531 198 531 c 0
 192 531 188 535 189 541 c 0
 194 565 524 615 547 620 c 1
 576 625 591 629 596 629 c 0
 608 629 620 608 620 592 c 0
 620 565 446 428 446 416 c 0
 446 413 461 410 478 410 c 0
 514 410 567 354 567 298 c 0
 567 261 540 176 487 114 c 0
 423 38 312 -10 238 -10 c 0
 177 -10 160 18 160 62 c 0
 160 91 171 134 190 134 c 0
 210 134 226 110 226 84 c 0
 226 72 224 70 224 61 c 0
 224 48 233 46 266 46 c 0
 320 46 396 83 442 132 c 0
 491 185 495 280 495 293 c 0
 495 332 479 348 442 348 c 0
 357 348 334 303 298 303 c 0
 281 303 271 313 271 328 c 0
 271 335 275 355 288 355 c 0
 296 355 318 369 336 385 c 0
 442 483 485 527 487 537 c 0
 487 539 487 539 482 539 c 0
 434 539 224 500 216 500 c 0
 208 500 205 503 205 508 c 0
EndSplineSet
Validated: 1
Layer: 2
SplineSet
205 508 m 0,0,1
 205 509 205 509 206 513 c 128,-1,2
 207 517 207 517 207 519 c 0,3,4
 207 531 207 531 198 531 c 0,5,6
 187 531 187 531 189 541 c 0,7,8
 190 548 190 548 225 558 c 128,-1,9
 260 568 260 568 311 578 c 128,-1,10
 362 588 362 588 411.5 597 c 128,-1,11
 461 606 461 606 502 612.5 c 128,-1,12
 543 619 543 619 547 620 c 0,13,14
 559 622 559 622 571 624.5 c 128,-1,15
 583 627 583 627 588.5 628 c 128,-1,16
 594 629 594 629 596 629 c 0,17,18
 605 629 605 629 612.5 616.5 c 128,-1,19
 620 604 620 604 620 592 c 0,20,21
 620 577 620 577 533 498.5 c 128,-1,22
 446 420 446 420 446 416 c 0,23,24
 446 410 446 410 478 410 c 0,25,26
 506 410 506 410 536.5 374 c 128,-1,27
 567 338 567 338 567 298 c 0,28,29
 567 266 567 266 545.5 211.5 c 128,-1,30
 524 157 524 157 487 114 c 0,31,32
 441 59 441 59 368.5 24.5 c 128,-1,33
 296 -10 296 -10 238 -10 c 0,34,35
 195 -10 195 -10 177.5 8 c 128,-1,36
 160 26 160 26 160 62 c 0,37,38
 160 87 160 87 168.5 110.5 c 128,-1,39
 177 134 177 134 190 134 c 0,40,41
 205 134 205 134 215.5 119 c 128,-1,42
 226 104 226 104 226 84 c 0,43,44
 226 78 226 78 225 71.5 c 128,-1,45
 224 65 224 65 224 61 c 0,46,47
 224 52 224 52 232 49 c 128,-1,48
 240 46 240 46 266 46 c 0,49,50
 307 46 307 46 357.5 70.5 c 128,-1,51
 408 95 408 95 442 132 c 0,52,53
 464 156 464 156 477 195.5 c 128,-1,54
 490 235 490 235 492.5 257 c 128,-1,55
 495 279 495 279 495 293 c 0,56,57
 495 322 495 322 482.5 335 c 128,-1,58
 470 348 470 348 442 348 c 0,59,60
 393 348 393 348 351.5 325.5 c 128,-1,61
 310 303 310 303 298 303 c 0,62,63
 271 303 271 303 271 328 c 0,64,65
 271 336 271 336 275 345.5 c 128,-1,66
 279 355 279 355 288 355 c 0,67,68
 302 355 302 355 336 385 c 0,69,70
 484 522 484 522 487 537 c 0,71,72
 487 539 487 539 482 539 c 0,73,74
 461 539 461 539 396.5 529.5 c 128,-1,75
 332 520 332 520 275 510 c 128,-1,76
 218 500 218 500 216 500 c 0,77,78
 205 500 205 500 205 508 c 0,0,1
EndSplineSet
EndChar

StartChar: four
Encoding: 52 52 31
Width: 564
Flags: W
HStem: -17 21G<343 355> 180 59<123.399 271.454> 266 61<471.064 570.422>
VStem: 328 57<-12.5078 194.346>
LayerCount: 3
Fore
SplineSet
328 45 m 0
 328 107 341 161 341 196 c 0
 341 210 338 214 332 214 c 0
 322 214 186 180 136 180 c 0
 114 180 104 186 104 197 c 0
 104 214 126 243 160 282 c 0
 286 425 440 583 455 584 c 1
 478 584 480 612 500 612 c 0
 513 612 520 601 520 591 c 0
 520 581 507 559 489 544 c 1
 462 519 458 511 438 417 c 0
 426 360 421 330 421 315 c 0
 421 298 427 298 434 298 c 0
 455 298 510 317 519 323 c 0
 523 326 528 327 534 327 c 0
 551 327 573 316 573 298 c 0
 573 285 559 268 534 266 c 0
 519 264 483 256 456 248 c 2
 408 233 l 1
 394 149 l 2
 387 110 385 84 385 65 c 0
 385 38 389 27 389 18 c 0
 389 0 360 -17 350 -17 c 0
 336 -17 328 4 328 45 c 0
275 253 m 0
 351 269 359 271 366 305 c 0
 370 324 374 356 377 385 c 2
 384 452 l 1
 331 401 l 2
 283 354 197 253 194 240 c 0
 194 239 194 239 195 239 c 0
 200 239 235 245 275 253 c 0
EndSplineSet
Validated: 1
Layer: 2
SplineSet
328 45 m 0,0,1
 328 79 328 79 334.5 130.5 c 128,-1,2
 341 182 341 182 341 196 c 0,3,4
 341 214 341 214 332 214 c 2,5,-1
 249 197 l 2,6,7
 166 180 166 180 136 180 c 0,8,9
 104 180 104 180 104 197 c 0,10,11
 104 218 104 218 160 282 c 0,12,13
 255 390 255 390 349.5 486.5 c 128,-1,14
 444 583 444 583 455 584 c 0,15,16
 467 584 467 584 478.5 598 c 128,-1,17
 490 612 490 612 500 612 c 0,18,19
 509 612 509 612 514.5 605.5 c 128,-1,20
 520 599 520 599 520 591 c 0,21,22
 520 570 520 570 489 544 c 0,23,24
 468 525 468 525 460.5 506 c 128,-1,25
 453 487 453 487 438 417 c 0,26,27
 421 336 421 336 421 315 c 0,28,29
 421 304 421 304 424 301 c 128,-1,30
 427 298 427 298 434 298 c 0,31,32
 448 298 448 298 479.5 308 c 128,-1,33
 511 318 511 318 519 323 c 0,34,35
 524 327 524 327 534 327 c 0,36,37
 548 327 548 327 560.5 319 c 128,-1,38
 573 311 573 311 573 298 c 0,39,40
 573 287 573 287 562.5 277 c 128,-1,41
 552 267 552 267 534 266 c 0,42,43
 503 262 503 262 456 248 c 2,44,-1
 408 233 l 1,45,-1
 394 149 l 2,46,47
 385 99 385 99 385 65 c 0,48,49
 385 49 385 49 387 34.5 c 128,-1,50
 389 20 389 20 389 18 c 0,51,52
 389 6 389 6 374 -5.5 c 128,-1,53
 359 -17 359 -17 350 -17 c 0,54,55
 328 -17 328 -17 328 45 c 0,0,1
275 253 m 0,56,57
 334 265 334 265 347.5 272.5 c 128,-1,58
 361 280 361 280 366 305 c 128,-1,59
 371 330 371 330 377 385 c 2,60,-1
 384 452 l 1,61,-1
 331 401 l 2,62,63
 295 366 295 366 245.5 308 c 128,-1,64
 196 250 196 250 194 240 c 0,65,66
 194 239 194 239 195 239 c 0,67,68
 205 239 205 239 275 253 c 0,56,57
EndSplineSet
EndChar

StartChar: five
Encoding: 53 53 32
Width: 497
Flags: W
HStem: -12 58<139.665 291.938> 368 51<322.334 412.183>
VStem: 86 25<86.4819 135.019> 188 73<361.422 449.435> 416 57<208.275 366.701>
LayerCount: 3
Fore
SplineSet
86 95 m 0
 86 119 97 136 100 136 c 0
 103 136 106 129 111 113 c 0
 127 63 159 46 228 46 c 0
 290 46 323 70 367 147 c 0
 384 177 416 248 416 315 c 0
 416 348 407 368 389 368 c 0
 361 368 286 333 252 301 c 0
 231 282 220 273 211 273 c 0
 204 273 198 279 191 288 c 0
 189 291 188 297 188 307 c 0
 188 361 227 559 249 572 c 1
 272 584 454 581 518 595 c 0
 540 600 557 602 568 602 c 0
 585 602 589 596 589 590 c 0
 589 564 421 526 357 526 c 2
 341 526 l 2
 291 526 261 501 261 464 c 0
 261 457 262 451 262 443 c 0
 262 418 256 403 251 390 c 2
 238 359 l 1
 277 380 l 2
 322 405 371 419 405 419 c 0
 417 419 428 418 435 414 c 0
 459 403 473 363 473 314 c 0
 473 274 466 243 450 202 c 0
 390 53 308 -12 180 -12 c 0
 137 -12 131 -8 110 27 c 0
 94 53 86 75 86 95 c 0
EndSplineSet
Validated: 1
Layer: 2
SplineSet
86 95 m 0,0,1
 86 106 86 106 89 116 c 128,-1,2
 92 126 92 126 95 131 c 128,-1,3
 98 136 98 136 100 136 c 0,4,5
 104 136 104 136 111 113 c 0,6,7
 123 76 123 76 149.5 61 c 128,-1,8
 176 46 176 46 228 46 c 0,9,10
 274 46 274 46 304 67.5 c 128,-1,11
 334 89 334 89 367 147 c 0,12,13
 416 233 416 233 416 315 c 0,14,15
 416 368 416 368 389 368 c 0,16,17
 367 368 367 368 322 346 c 128,-1,18
 277 324 277 324 252 301 c 0,19,20
 221 273 221 273 211 273 c 0,21,22
 203 273 203 273 191 288 c 0,23,24
 188 292 188 292 188 307 c 0,25,26
 188 352 188 352 211 457.5 c 128,-1,27
 234 563 234 563 249 572 c 0,28,29
 260 578 260 578 373 583 c 128,-1,30
 486 588 486 588 518 595 c 0,31,32
 549 602 549 602 568 602 c 0,33,34
 589 602 589 602 589 590 c 0,35,36
 589 572 589 572 499.5 549 c 128,-1,37
 410 526 410 526 357 526 c 2,38,-1
 341 526 l 2,39,40
 304 526 304 526 282.5 509 c 128,-1,41
 261 492 261 492 261 464 c 0,42,43
 261 461 261 461 261.5 454 c 128,-1,44
 262 447 262 447 262 443 c 0,45,46
 262 419 262 419 251 390 c 2,47,-1
 238 359 l 1,48,-1
 277 380 l 2,49,50
 347 419 347 419 405 419 c 0,51,52
 426 419 426 419 435 414 c 0,53,54
 473 397 473 397 473 314 c 0,55,56
 473 261 473 261 450 202 c 0,57,58
 405 90 405 90 340.5 39 c 128,-1,59
 276 -12 276 -12 180 -12 c 0,60,61
 148 -12 148 -12 137 -5.5 c 128,-1,62
 126 1 126 1 110 27 c 0,63,64
 86 66 86 66 86 95 c 0,0,1
EndSplineSet
EndChar

StartChar: six
Encoding: 54 54 33
Width: 443
Flags: W
HStem: -7 53<157.03 237.331> 262 50<255.332 356.92>
VStem: 87 62<50.3281 187.21> 284 69<545.192 602.191> 371 55<161.004 246.388>
LayerCount: 3
Fore
SplineSet
218 272 m 0
 236 272 275 312 314 312 c 0
 349 312 398 288 415 264 c 0
 422 253 426 237 426 221 c 0
 426 166 399 150 371 108 c 0
 353 80 265 14 232 2 c 0
 217 -3 189 -7 169 -7 c 0
 119 -7 87 41 87 106 c 0
 87 120 89 135 92 151 c 0
 108 228 284 566 284 566 c 2
 295 590 312 619 336 619 c 0
 347 619 356 612 353 600 c 0
 341 543 222 344 210 288 c 0
 207 276 211 272 218 272 c 0
371 216 m 0
 371 246 317 262 306 262 c 0
 279 261 227 237 190 207 c 0
 172 192 149 178 149 108 c 0
 149 57 173 46 181 46 c 0
 194 46 217 57 275 87 c 0
 301 100 371 170 371 216 c 0
EndSplineSet
Validated: 1
Layer: 2
SplineSet
218 272 m 0,0,1
 224 272 224 272 258 292 c 128,-1,2
 292 312 292 312 314 312 c 0,3,4
 340 312 340 312 371 297 c 128,-1,5
 402 282 402 282 415 264 c 0,6,7
 426 247 426 247 426 221 c 0,8,9
 426 202 426 202 421 185.5 c 128,-1,10
 416 169 416 169 410 160 c 128,-1,11
 404 151 404 151 391 135 c 128,-1,12
 378 119 378 119 371 108 c 0,13,14
 358 87 358 87 307.5 49 c 128,-1,15
 257 11 257 11 232 2 c 0,16,17
 205 -7 205 -7 169 -7 c 0,18,19
 132 -7 132 -7 109.5 25 c 128,-1,20
 87 57 87 57 87 106 c 0,21,22
 87 124 87 124 92 151 c 0,23,24
 99 185 99 185 147 289 c 128,-1,25
 195 393 195 393 239.5 479.5 c 2,26,-1
 284 566 l 2,27,28
 308 619 308 619 336 619 c 0,29,30
 345 619 345 619 350 614 c 128,-1,31
 355 609 355 609 353 600 c 0,32,33
 347 571 347 571 281.5 443.5 c 128,-1,34
 216 316 216 316 210 288 c 0,35,36
 206 272 206 272 218 272 c 0,0,1
371 216 m 0,37,38
 371 235 371 235 345.5 248.5 c 128,-1,39
 320 262 320 262 306 262 c 0,40,41
 285 261 285 261 251 245 c 128,-1,42
 217 229 217 229 190 207 c 0,43,44
 176 195 176 195 170.5 189.5 c 128,-1,45
 165 184 165 184 157 162 c 128,-1,46
 149 140 149 140 149 108 c 0,47,48
 149 85 149 85 155.5 70 c 128,-1,49
 162 55 162 55 169 50.5 c 128,-1,50
 176 46 176 46 181 46 c 0,51,52
 196 46 196 46 275 87 c 0,53,54
 299 99 299 99 335 142 c 128,-1,55
 371 185 371 185 371 216 c 0,37,38
EndSplineSet
EndChar

StartChar: seven
Encoding: 55 55 34
Width: 439
Flags: W
HStem: 555 69<332.734 488.633>
VStem: 188 49<361.048 488.469>
LayerCount: 3
Fore
SplineSet
209 360 m 0
 194 360 188 365 188 380 c 0
 188 396 195 425 205 473 c 2
 228 583 l 1
 397 614 l 2
 429 620 453 624 471 624 c 0
 496 624 508 615 508 593 c 0
 508 529 386 263 288 25 c 0
 276 -3 270 -8 250 -8 c 0
 236 -8 230 -7 230 2 c 0
 230 34 301 195 314 225 c 0
 351 308 428 519 435 550 c 0
 436 556 436 555 413 555 c 0
 397 555 375 555 350 553 c 2
 267 547 l 1
 260 496 l 2
 256 465 245 425 237 402 c 0
 226 369 221 360 209 360 c 0
EndSplineSet
Validated: 1
Layer: 2
SplineSet
209 360 m 0,0,1
 188 360 188 360 188 380 c 0,2,3
 188 391 188 391 205 473 c 2,4,-1
 228 583 l 1,5,-1
 397 614 l 2,6,7
 450 624 450 624 471 624 c 0,8,9
 508 624 508 624 508 593 c 0,10,11
 508 575 508 575 495.5 534.5 c 128,-1,12
 483 494 483 494 458 431.5 c 128,-1,13
 433 369 433 369 408.5 311.5 c 128,-1,14
 384 254 384 254 347.5 167.5 c 128,-1,15
 311 81 311 81 288 25 c 0,16,17
 279 4 279 4 272 -2 c 128,-1,18
 265 -8 265 -8 250 -8 c 0,19,20
 230 -8 230 -8 230 2 c 0,21,22
 230 31 230 31 314 225 c 0,23,24
 340 284 340 284 384.5 404.5 c 128,-1,25
 429 525 429 525 435 550 c 0,26,27
 436 554 436 554 434 554.5 c 128,-1,28
 432 555 432 555 413 555 c 0,29,30
 375 555 375 555 350 553 c 2,31,-1
 267 547 l 1,32,-1
 260 496 l 2,33,34
 254 452 254 452 237 402 c 0,35,36
 229 377 229 377 223.5 368.5 c 128,-1,37
 218 360 218 360 209 360 c 0,0,1
EndSplineSet
EndChar

StartChar: eight
Encoding: 56 56 35
Width: 500
Flags: W
HStem: -22 57<238.553 321.944> 232 99<265.102 303.588> 567 45<345.389 455.827>
VStem: 136 65<76.744 175.677> 181 53<368.16 478.852> 222 122<239.445 320.292> 347 53<60.2524 176.463> 499 46<462.068 525.903>
LayerCount: 3
Fore
SplineSet
181 413 m 0xeb
 181 503 272 590 325 590 c 0
 362 590 337 612 416 612 c 0
 522 612 545 538 545 502 c 0
 545 427 344 334 344 286 c 0
 344 254 400 203 400 127 c 0
 400 32 313 -22 270 -22 c 0
 202 -22 136 105 136 130 c 0
 136 160 222 253 222 287 c 0xf7
 222 320 181 353 181 413 c 0xeb
499 489 m 0
 499 514 444 567 405 567 c 0
 385 567 391 565 321 535 c 0
 264 510 234 451 234 430 c 0xeb
 234 392 278 331 282 331 c 0
 294 331 415 433 464 455 c 0
 484 465 499 475 499 489 c 0
275 232 m 0
 256 232 201 177 201 134 c 0xf3
 201 87 250 35 280 35 c 0
 306 35 347 70 347 111 c 0
 347 136 334 165 308 204 c 0
 296 223 286 232 275 232 c 0
EndSplineSet
Validated: 1
Layer: 2
SplineSet
181 413 m 0,0,1
 181 477 181 477 231.5 533.5 c 128,-1,2
 282 590 282 590 325 590 c 0,3,4
 338 590 338 590 354.5 601 c 128,-1,5
 371 612 371 612 416 612 c 0,6,7
 446 612 446 612 470 604 c 128,-1,8
 494 596 494 596 507.5 584 c 128,-1,9
 521 572 521 572 530 556.5 c 128,-1,10
 539 541 539 541 542 527.5 c 128,-1,11
 545 514 545 514 545 502 c 0,12,13
 545 477 545 477 513.5 443.5 c 128,-1,14
 482 410 482 410 444.5 383.5 c 128,-1,15
 407 357 407 357 375.5 329.5 c 128,-1,16
 344 302 344 302 344 286 c 0,17,18
 344 274 344 274 358 249.5 c 128,-1,19
 372 225 372 225 386 192.5 c 128,-1,20
 400 160 400 160 400 127 c 0,21,22
 400 63 400 63 355 20.5 c 128,-1,23
 310 -22 310 -22 270 -22 c 0,24,25
 225 -22 225 -22 180.5 40.5 c 128,-1,26
 136 103 136 103 136 130 c 0,27,28
 136 144 136 144 179 207 c 128,-1,29
 222 270 222 270 222 287 c 0,30,31
 222 300 222 300 201.5 340 c 128,-1,32
 181 380 181 380 181 413 c 0,0,1
499 489 m 0,33,34
 499 509 499 509 466 538 c 128,-1,35
 433 567 433 567 405 567 c 0,36,37
 399 567 399 567 396 566.5 c 128,-1,38
 393 566 393 566 387 564 c 128,-1,39
 381 562 381 562 375.5 559.5 c 128,-1,40
 370 557 370 557 354.5 550 c 128,-1,41
 339 543 339 543 321 535 c 0,42,43
 283 518 283 518 258.5 484 c 128,-1,44
 234 450 234 450 234 430 c 0,45,46
 234 413 234 413 245.5 388.5 c 128,-1,47
 257 364 257 364 268.5 347.5 c 128,-1,48
 280 331 280 331 282 331 c 0,49,50
 287 331 287 331 321.5 357 c 128,-1,51
 356 383 356 383 399.5 414.5 c 128,-1,52
 443 446 443 446 464 455 c 0,53,54
 499 472 499 472 499 489 c 0,33,34
275 232 m 0,55,56
 259 232 259 232 230 198 c 128,-1,57
 201 164 201 164 201 134 c 0,58,59
 201 100 201 100 228.5 67.5 c 128,-1,60
 256 35 256 35 280 35 c 0,61,62
 301 35 301 35 324 58.5 c 128,-1,63
 347 82 347 82 347 111 c 0,64,65
 347 146 347 146 308 204 c 0,66,67
 290 232 290 232 275 232 c 0,55,56
EndSplineSet
EndChar

StartChar: nine
Encoding: 57 57 36
Width: 462
Flags: W
HStem: 298 44<206.426 318.922> 559 57<365.207 450.661>
VStem: 151 53<344.972 438.974> 315 62<-14.7688 123.96> 451 63<481.493 557.736>
LayerCount: 3
Fore
SplineSet
315 5 m 0
 315 74 386 299 386 338 c 0
 386 346 384 350 379 350 c 0
 371 350 355 338 330 322 c 0
 300 302 283 298 239 298 c 0
 191 299 183 302 168 324 c 0
 157 341 151 359 151 377 c 0
 151 394 157 412 166 430 c 0
 208 513 273 563 380 600 c 0
 412 611 429 616 443 616 c 0
 451 616 514 612 514 554 c 0
 514 489 466 483 395 151 c 0
 379 74 376 50 376 38 c 0
 376 33 377 30 377 27 c 0
 377 10 361 -22 336 -22 c 0
 322 -22 315 -17 315 5 c 0
245 342 m 0
 292 342 420 396 446 519 c 0
 449 531 451 540 451 546 c 0
 451 558 442 559 415 559 c 0
 365 559 327 546 289 515 c 0
 240 474 204 415 204 377 c 0
 204 358 213 342 245 342 c 0
EndSplineSet
Validated: 1
Layer: 2
SplineSet
315 5 m 0,0,1
 315 43 315 43 350.5 182.5 c 128,-1,2
 386 322 386 322 386 338 c 0,3,4
 386 350 386 350 379 350 c 0,5,6
 374 350 374 350 330 322 c 0,7,8
 308 307 308 307 290 302.5 c 128,-1,9
 272 298 272 298 239 298 c 0,10,11
 203 299 203 299 191 303 c 128,-1,12
 179 307 179 307 168 324 c 0,13,14
 151 350 151 350 151 377 c 0,15,16
 151 400 151 400 166 430 c 0,17,18
 197 492 197 492 248 532 c 128,-1,19
 299 572 299 572 380 600 c 0,20,21
 427 616 427 616 443 616 c 0,22,23
 453 616 453 616 466 613.5 c 128,-1,24
 479 611 479 611 496.5 595.5 c 128,-1,25
 514 580 514 580 514 554 c 0,26,27
 514 530 514 530 500.5 500.5 c 128,-1,28
 487 471 487 471 456 382.5 c 128,-1,29
 425 294 425 294 395 151 c 0,30,31
 376 60 376 60 376 38 c 0,32,33
 376 35 376 35 376.5 31.5 c 128,-1,34
 377 28 377 28 377 27 c 0,35,36
 377 12 377 12 365 -5 c 128,-1,37
 353 -22 353 -22 336 -22 c 0,38,39
 325 -22 325 -22 320 -16.5 c 128,-1,40
 315 -11 315 -11 315 5 c 0,0,1
245 342 m 0,41,42
 272 342 272 342 312 359.5 c 128,-1,43
 352 377 352 377 393 420 c 128,-1,44
 434 463 434 463 446 519 c 0,45,46
 451 539 451 539 451 546 c 0,47,48
 451 555 451 555 444 557 c 128,-1,49
 437 559 437 559 415 559 c 0,50,51
 343 559 343 559 289 515 c 0,52,53
 252 484 252 484 228 445 c 128,-1,54
 204 406 204 406 204 377 c 0,55,56
 204 342 204 342 245 342 c 0,41,42
EndSplineSet
EndChar

StartChar: colon
Encoding: 58 58 37
Width: 401
Flags: W
VStem: 158 92<47.1373 110.043> 231 97<412.891 486.875>
LayerCount: 3
Fore
SplineSet
158 54 m 0x80
 158 113 212 135 224 135 c 0
 246 135 250 109 250 94 c 0
 250 69 238 68 221 33 c 0
 210 10 197 -2 185 -2 c 0
 166 -2 158 28 158 54 c 0x80
231 433 m 0x40
 231 462 267 519 291 519 c 0
 306 519 328 494 328 467 c 0
 328 465 326 413 308 413 c 0
 286 413 289 369 259 369 c 0
 245 369 241 376 235 404 c 0
 232 417 231 425 231 433 c 0x40
EndSplineSet
Validated: 1
Layer: 2
SplineSet
158 54 m 0,0,1
 158 92 158 92 183 113.5 c 128,-1,2
 208 135 208 135 224 135 c 0,3,4
 250 135 250 135 250 94 c 0,5,6
 250 83 250 83 247 76 c 128,-1,7
 244 69 244 69 235.5 57.5 c 128,-1,8
 227 46 227 46 221 33 c 0,9,10
 204 -2 204 -2 185 -2 c 0,11,12
 172 -2 172 -2 165 15 c 128,-1,13
 158 32 158 32 158 54 c 0,0,1
231 433 m 0,14,15
 231 456 231 456 252.5 487.5 c 128,-1,16
 274 519 274 519 291 519 c 0,17,18
 303 519 303 519 315.5 502.5 c 128,-1,19
 328 486 328 486 328 467 c 0,20,21
 328 462 328 462 327 451.5 c 128,-1,22
 326 441 326 441 321 427 c 128,-1,23
 316 413 316 413 308 413 c 0,24,25
 298 413 298 413 286.5 391 c 128,-1,26
 275 369 275 369 259 369 c 0,27,28
 249 369 249 369 244.5 376 c 128,-1,29
 240 383 240 383 235 404 c 0,30,31
 231 421 231 421 231 433 c 0,14,15
EndSplineSet
EndChar

StartChar: semicolon
Encoding: 59 59 38
Width: 367
Flags: W
VStem: 224 107<319.033 414.255>
LayerCount: 3
Fore
SplineSet
103 -81 m 0
 103 -60 216 115 229 126 c 0
 236 132 244 135 250 135 c 0
 264 135 264 121 263 117 c 0
 258 95 144 -89 130 -95 c 0
 127 -96 123 -97 120 -97 c 0
 111 -97 103 -91 103 -81 c 0
331 401 m 0
 331 370 311 295 281 295 c 0
 259 295 224 303 224 347 c 0
 224 354 225 361 227 370 c 0
 235 409 246 422 276 431 c 0
 293 436 302 438 309 438 c 0
 319 438 331 429 331 401 c 0
EndSplineSet
Validated: 1
Layer: 2
SplineSet
103 -81 m 0,0,1
 103 -67 103 -67 160 24.5 c 128,-1,2
 217 116 217 116 229 126 c 0,3,4
 240 135 240 135 250 135 c 0,5,6
 256 135 256 135 259.5 131 c 128,-1,7
 263 127 263 127 263 123 c 128,-1,8
 263 119 263 119 263 117 c 0,9,10
 259 100 259 100 199.5 4.5 c 128,-1,11
 140 -91 140 -91 130 -95 c 0,12,13
 124 -97 124 -97 120 -97 c 0,14,15
 103 -97 103 -97 103 -81 c 0,0,1
331 401 m 0,16,17
 331 372 331 372 316 333.5 c 128,-1,18
 301 295 301 295 281 295 c 0,19,20
 224 295 224 295 224 347 c 0,21,22
 224 356 224 356 227 370 c 0,23,24
 233 399 233 399 243 411.5 c 128,-1,25
 253 424 253 424 276 431 c 0,26,27
 300 438 300 438 309 438 c 0,28,29
 331 438 331 438 331 401 c 0,16,17
EndSplineSet
EndChar

StartChar: less
Encoding: 60 60 39
Width: 545
Flags: W
VStem: 143 83<267.322 348.843>
DStem2: 264 442 299 395 0.796905 0.604105<-104.121 354.484>
LayerCount: 3
Fore
SplineSet
385 -20 m 0
 379 -20 375 -16 372 -7 c 0
 370 1 344 26 315 50 c 0
 230 120 143 259 143 319 c 0
 143 343 173 373 264 442 c 2
 450 583 l 2
 506 626 538 646 555 646 c 0
 570 646 572 632 572 624 c 0
 572 596 529 575 428 496 c 2
 299 395 l 2
 276 377 226 334 226 319 c 0
 226 287 325 136 372 99 c 0
 402 75 434 38 434 21 c 0
 434 10 402 -20 385 -20 c 0
EndSplineSet
Validated: 1
Layer: 2
SplineSet
385 -20 m 0,0,1
 376 -20 376 -20 372 -7 c 0,2,3
 369 5 369 5 315 50 c 0,4,5
 252 102 252 102 197.5 188 c 128,-1,6
 143 274 143 274 143 319 c 0,7,8
 143 337 143 337 169 363.5 c 128,-1,9
 195 390 195 390 264 442 c 2,10,-1
 450 583 l 2,11,12
 532 646 532 646 555 646 c 0,13,14
 572 646 572 646 572 624 c 0,15,16
 572 616 572 616 567.5 608 c 128,-1,17
 563 600 563 600 550 589 c 128,-1,18
 537 578 537 578 523.5 568 c 128,-1,19
 510 558 510 558 481.5 536.5 c 128,-1,20
 453 515 453 515 428 496 c 2,21,-1
 299 395 l 2,22,23
 226 338 226 338 226 319 c 0,24,25
 226 295 226 295 281.5 210.5 c 128,-1,26
 337 126 337 126 372 99 c 0,27,28
 396 80 396 80 415 56.5 c 128,-1,29
 434 33 434 33 434 21 c 0,30,31
 434 12 434 12 415.5 -4 c 128,-1,32
 397 -20 397 -20 385 -20 c 0,0,1
EndSplineSet
EndChar

StartChar: equal
Encoding: 61 61 40
Width: 515
Flags: W
HStem: 200 62<168.135 423.88> 338 68<193.75 418.286> 338 60<189.367 396.626>
VStem: 154 297<223.873 244.258>
LayerCount: 3
Fore
SplineSet
331 262 m 0x90
 428 262 451 258 451 244 c 0
 451 215 336 200 248 200 c 0
 170 200 154 202 154 215 c 0
 154 245 184 248 227 256 c 0
 245 260 288 262 331 262 c 0x90
218 338 m 0xd0
 192 338 189 342 189 368 c 0
 189 391 191 386 279 398 c 0xb0
 320 404 369 406 398 406 c 0
 437 406 449 403 449 391 c 0
 449 359 411 352 280 341 c 0
 251 339 231 338 218 338 c 0xd0
EndSplineSet
Validated: 1
Layer: 2
SplineSet
331 262 m 0,0,1
 403 262 403 262 427 258.5 c 128,-1,2
 451 255 451 255 451 244 c 0,3,4
 451 224 451 224 387 212 c 128,-1,5
 323 200 323 200 248 200 c 0,6,7
 189 200 189 200 171.5 202.5 c 128,-1,8
 154 205 154 205 154 215 c 0,9,10
 154 243 154 243 217.515793564 254.264388586 c 0,11,12
 224 255 224 255 227 256 c 0,13,14
 254 262 254 262 331 262 c 0,0,1
218 338 m 128,-1,16
 199 338 199 338 194 343 c 128,-1,17
 189 348 189 348 189 368 c 0,18,19
 189 382 189 382 196 385.5 c 128,-1,20
 203 389 203 389 238.33214341 392.785076827 c 0,21,22
 263 396 263 396 279 398 c 0,23,24
 334 406 334 406 398 406 c 0,25,26
 428 406 428 406 438.5 403 c 128,-1,27
 449 400 449 400 449 391 c 0,28,29
 449 368 449 368 416 359 c 128,-1,30
 383 350 383 350 280 341 c 0,31,15
 237 338 237 338 218 338 c 128,-1,16
EndSplineSet
EndChar

StartChar: greater
Encoding: 62 62 41
Width: 594
Flags: W
VStem: 481 76<283.863 340.309>
LayerCount: 3
Fore
SplineSet
289 588 m 0
 296 588 336 554 356 532 c 0
 463 413 557 361 557 323 c 0
 557 300 505 249 403 143 c 0
 332 69 271 0 266 -9 c 0
 258 -23 234 -33 216 -33 c 0
 197 -33 189 -23 189 -15 c 0
 189 -1 238 51 251 55 c 0
 264 59 287 84 429 244 c 0
 452 270 481 308 481 313 c 0
 481 321 442 361 394 401 c 0
 291 488 245 537 245 562 c 0
 245 581 284 588 289 588 c 0
EndSplineSet
Validated: 1
Layer: 2
SplineSet
289 588 m 0,0,1
 294 588 294 588 317.5 568.5 c 128,-1,2
 341 549 341 549 356 532 c 0,3,4
 399 485 399 485 453 437 c 128,-1,5
 507 389 507 389 532 364.5 c 128,-1,6
 557 340 557 340 557 323 c 0,7,8
 557 309 557 309 530.5 278.5 c 128,-1,9
 504 248 504 248 434.987428716 176.169712332 c 0,10,11
 428 169 428 169 424.5 165 c 128,-1,12
 421 161 421 161 414.5 154.5 c 128,-1,13
 408 148 408 148 403 143 c 0,14,15
 278 13 278 13 266 -9 c 0,16,17
 260 -19 260 -19 245 -26 c 128,-1,18
 230 -33 230 -33 216 -33 c 0,19,20
 189 -33 189 -33 189 -15 c 0,21,22
 189 -5 189 -5 215 23.5 c 128,-1,23
 241 52 241 52 251 55 c 128,-1,24
 261 58 261 58 290.5 90 c 128,-1,25
 320 122 320 122 429 244 c 0,26,27
 481 303 481 303 481 313 c 0,28,29
 481 328 481 328 394 401 c 0,30,31
 245 527 245 527 245 562 c 0,32,33
 245 574 245 574 262.5 581 c 128,-1,34
 280 588 280 588 289 588 c 0,0,1
EndSplineSet
EndChar

StartChar: question
Encoding: 63 63 42
Width: 632
Flags: W
HStem: -19 21G<282 308> 546 31<357.275 407.034> 648 45<416.519 443.996> 794 48<424.187 527.06>
VStem: 267 100<21.4642 78.9653> 287 45<599.004 718.871> 444 40<609.243 673.966> 563 43<618.195 756.871>
LayerCount: 3
Fore
SplineSet
267 8 m 0xfb
 267 55 294 100 311 100 c 0
 322 100 367 64 367 55 c 1
 367 55 328 -19 288 -19 c 0
 276 -19 267 -12 267 8 c 0xfb
412 659 m 0
 412 680 448 693 458 693 c 0
 470 693 484 681 484 656 c 0
 484 618 448 546 383 546 c 0
 338 546 287 602 287 664 c 0
 287 755 427 842 494 842 c 0
 561 842 606 771 606 695 c 0
 606 615 555 546 458 448 c 2
 413 402 l 1
 399 327 l 2
 393 295 383 231 359 231 c 0
 347 231 341 239 341 259 c 0
 341 276 345 302 353 338 c 0
 369 413 378 445 443 493 c 0
 511 543 563 633 563 699 c 0
 563 759 507 794 486 794 c 0
 440 794 332 721 332 679 c 0xf7
 332 652 353 577 375 577 c 0
 407 577 444 631 444 641 c 0
 444 647 439 648 427 648 c 0
 416 648 412 653 412 659 c 0
EndSplineSet
Validated: 1
Layer: 2
SplineSet
267 8 m 0,0,1
 267 41 267 41 282 70.5 c 128,-1,2
 297 100 297 100 311 100 c 0,3,4
 319 100 319 100 343 81 c 128,-1,5
 367 62 367 62 367 55 c 0,6,7
 363 47 363 47 355 34.5 c 128,-1,8
 347 22 347 22 326.5 1.5 c 128,-1,9
 306 -19 306 -19 288 -19 c 0,10,11
 267 -19 267 -19 267 8 c 0,0,1
412 659 m 0,12,13
 412 673 412 673 429.5 683 c 128,-1,14
 447 693 447 693 458 693 c 0,15,16
 468 693 468 693 476 683 c 128,-1,17
 484 673 484 673 484 656 c 0,18,19
 484 621 484 621 455.5 583.5 c 128,-1,20
 427 546 427 546 383 546 c 0,21,22
 348 546 348 546 317.5 582.5 c 128,-1,23
 287 619 287 619 287 664 c 0,24,25
 287 727 287 727 362 784.5 c 128,-1,26
 437 842 437 842 494 842 c 0,27,28
 543 842 543 842 574.5 798 c 128,-1,29
 606 754 606 754 606 695 c 0,30,31
 606 638 606 638 571 582.5 c 128,-1,32
 536 527 536 527 458 448 c 2,33,-1
 413 402 l 1,34,-1
 399 327 l 2,35,36
 383.674161585 245.262195122 383.674161585 245.262195122 367.36328125 233.8125 c 0,37,38
 363.356681034 231 363.356681034 231 359 231 c 0,39,40
 341 231 341 231 341 259 c 0,41,42
 341 284 341 284 353 338 c 0,43,44
 366 401 366 401 382 430 c 128,-1,45
 398 459 398 459 443 493 c 0,46,47
 494 530 494 530 528.5 589.5 c 128,-1,48
 563 649 563 649 563 699 c 0,49,50
 563 739 563 739 535 766.5 c 128,-1,51
 507 794 507 794 486 794 c 0,52,53
 450 794 450 794 391 751.5 c 128,-1,54
 332 709 332 709 332 679 c 0,55,56
 332 655 332 655 346 616 c 128,-1,57
 360 577 360 577 375 577 c 0,58,59
 396 577 396 577 420 603.5 c 128,-1,60
 444 630 444 630 444 641 c 0,61,62
 444 648 444 648 427 648 c 0,63,64
 412 648 412 648 412 659 c 0,12,13
EndSplineSet
EndChar

StartChar: at
Encoding: 64 64 43
Width: 704
Flags: W
HStem: -21 48<258.12 434.025> 173 40<273.5 350.137> 182 46<485.591 535.213> 255 9<386 426> 438 46<396.429 465.229> 593 37<442.658 575.16>
VStem: 125 57<89.9381 311.068> 240 50<224.908 324.249> 429 56<228.125 254.996> 487 33<360 411.543>
LayerCount: 3
Fore
SplineSet
609 251 m 0x9fc0
 609 241 638 249 638 227 c 0
 638 197 545 30 432 -13 c 0
 417 -18 374 -21 333 -21 c 0
 303 -21 273 -20 256 -16 c 0
 219 -9 146 47 145 69 c 0
 144 81 140 90 136 90 c 0
 129 90 125 113 125 145 c 0
 125 184 130 236 140 282 c 0
 164 393 192 447 268 523 c 0
 323 577 352 593 438 616 c 0
 471 625 516 630 553 630 c 0
 580 630 601 627 611 622 c 0
 640 605 688 543 688 487 c 0
 688 469 684 447 679 422 c 0
 653 296 609 265 609 251 c 0x9fc0
520 379 m 0
 520 341 485 310 485 254 c 0
 485 238 490 228 499 228 c 0
 512 228 564 270 567 283 c 0
 568 288 575 292 581 292 c 0
 597 292 635 392 635 439 c 0
 635 539 632 538 588 567 c 0
 562 584 541 593 516 593 c 0
 487 593 453 580 394 554 c 0
 324 522 304 505 253 430 c 0
 218 379 212 362 196 288 c 0
 187 244 182 216 182 189 c 0
 182 167 185 145 190 116 c 0
 195 87 245 27 370 27 c 0
 394 27 407 32 439 50 c 0
 479 72 496 88 533 142 c 0
 535 144 580 211 580 215 c 0
 580 216 579 215 579 215 c 2
 573 215 536 182 490 182 c 0xbfc0
 461 182 452 187 440 208 c 1
 434 222 429 236 429 243 c 0
 429 249 431 255 426 255 c 0
 408 255 362 173 290 173 c 0xdfc0
 257 173 240 203 240 243 c 0
 240 274 251 311 271 340 c 0
 302 387 413 484 435 484 c 0
 467 484 520 428 520 379 c 0
344 213 m 0xdfc0
 374 213 371 264 386 264 c 0
 392 264 399 276 402 292 c 0
 409 326 422 333 440 367 c 0
 445 376 456 383 466 383 c 0
 478 383 487 385 487 391 c 0
 487 404 440 438 422 438 c 0
 401 438 338 386 334 365 c 0
 328 337 306 347 292 281 c 0
 291 275 290 270 290 265 c 0
 290 221 338 213 344 213 c 0xdfc0
EndSplineSet
Validated: 1
Layer: 2
SplineSet
609 251 m 0,0,1
 609 248 609 248 613.5 246 c 128,-1,2
 618 244 618 244 623.5 243.5 c 128,-1,3
 629 243 629 243 633.5 238.5 c 128,-1,4
 638 234 638 234 638 227 c 0,5,6
 638 194 638 194 572 104.5 c 128,-1,7
 506 15 506 15 432 -13 c 0,8,9
 408 -21 408 -21 333 -21 c 0,10,11
 277 -21 277 -21 256 -16 c 0,12,13
 228 -11 228 -11 187 20.5 c 128,-1,14
 146 52 146 52 145 69 c 0,15,16
 143 90 143 90 136 90 c 0,17,18
 125 90 125 90 125 145 c 0,19,20
 125 213 125 213 140 282 c 0,21,22
 158 366 158 366 184.5 416 c 128,-1,23
 211 466 211 466 268 523 c 0,24,25
 309 564 309 564 341.5 581.5 c 128,-1,26
 374 599 374 599 438 616 c 0,27,28
 489 630 489 630 553 630 c 0,29,30
 595 630 595 630 611 622 c 0,31,32
 636 607 636 607 662 566.5 c 128,-1,33
 688 526 688 526 688 487 c 0,34,35
 688 467 688 467 679 422 c 0,36,37
 668 367 668 367 650 327.5 c 128,-1,38
 632 288 632 288 620.5 271.5 c 128,-1,39
 609 255 609 255 609 251 c 0,0,1
520 379 m 0,40,41
 520 362 520 362 502.5 323 c 128,-1,42
 485 284 485 284 485 254 c 0,43,44
 485 228 485 228 499 228 c 0,45,46
 509 228 509 228 537 250.5 c 128,-1,47
 565 273 565 273 567 283 c 0,48,49
 569 292 569 292 581 292 c 128,-1,50
 593 292 593 292 614 348 c 128,-1,51
 635 404 635 404 635 439 c 0,52,53
 635 492 635 492 631.5 512 c 128,-1,54
 628 532 628 532 620.5 541 c 128,-1,55
 613 550 613 550 588 567 c 0,56,57
 548 593 548 593 516 593 c 0,58,59
 482 593 482 593 394 554 c 0,60,61
 341 530 341 530 316 508 c 128,-1,62
 291 486 291 486 253 430 c 0,63,64
 227 392 227 392 217.5 368.5 c 128,-1,65
 208 345 208 345 196 288 c 0,66,67
 182 220 182 220 182 189 c 0,68,69
 182 162 182 162 190 116 c 0,70,71
 195 86 195 86 241 56.5 c 128,-1,72
 287 27 287 27 370 27 c 0,73,74
 398 27 398 27 439 50 c 0,75,76
 469 67 469 67 487.5 84.5 c 128,-1,77
 506 102 506 102 533 142 c 0,78,79
 535 144 535 144 557.5 178 c 128,-1,80
 580 212 580 212 580 215 c 2,81,-1
 579 215 l 2,82,83
 578 215 578 215 565 206.5 c 128,-1,84
 552 198 552 198 531 190 c 128,-1,85
 510 182 510 182 490 182 c 0,86,87
 468 182 468 182 458.5 187 c 128,-1,88
 449 192 449 192 440 208 c 0,89,90
 429 234 429 234 429 243 c 0,91,92
 429 255 429 255 426 255 c 0,93,94
 420 255 420 255 400.5 234.5 c 128,-1,95
 381 214 381 214 351.5 193.5 c 128,-1,96
 322 173 322 173 290 173 c 0,97,98
 266 173 266 173 253 192.5 c 128,-1,99
 240 212 240 212 240 243 c 0,100,101
 240 295 240 295 271 340 c 0,102,103
 294 375 294 375 356 429.5 c 128,-1,104
 418 484 418 484 435 484 c 0,105,106
 460 484 460 484 490 449 c 128,-1,107
 520 414 520 414 520 379 c 0,40,41
344 213 m 0,108,109
 361 213 361 213 370.5 238.5 c 128,-1,110
 380 264 380 264 386 264 c 0,111,112
 397 264 397 264 402 292 c 0,113,114
 405 307 405 307 410 317.5 c 128,-1,115
 415 328 415 328 424.5 341.5 c 128,-1,116
 434 355 434 355 440 367 c 0,117,118
 449 383 449 383 466 383 c 0,119,120
 487 383 487 383 487 391 c 0,121,122
 487 401 487 401 461 419.5 c 128,-1,123
 435 438 435 438 422 438 c 0,124,125
 406 438 406 438 371.5 409.5 c 128,-1,126
 337 381 337 381 334 365 c 0,127,128
 332 356 332 356 316 337.5 c 128,-1,129
 300 319 300 319 292 281 c 0,130,131
 290 269 290 269 290 265 c 0,132,133
 290 245 290 245 303 232.5 c 128,-1,134
 316 220 316 220 327 216.5 c 128,-1,135
 338 213 338 213 344 213 c 0,108,109
EndSplineSet
EndChar

StartChar: A
Encoding: 65 65 44
Width: 738
Flags: W
VStem: 594 66<103.129 322 381.356 636.875> 595 73<64.2168 277.087>
DStem2: 235 229 153 23 0.5818 0.813332<-217.866 5.80804 96.497 121.632> 390 360 420 303 0.994749 0.10234<0 196.699>
LayerCount: 3
Fore
SplineSet
668 101 m 0x40
 668 62 660 52 647 52 c 0
 640 52 630 56 618 63 c 0
 598 76 595 88 595 130 c 0
 595 146 596 166 596 192 c 0
 596 207 595 224 595 243 c 2x40
 592 322 l 1
 542 316 l 2
 514 312 460 306 420 303 c 2
 349 297 l 1
 308 242 l 2
 235 145 182 69 153 23 c 0
 129 -15 111 -31 92 -31 c 0
 83 -31 66 -27 66 -11 c 0
 66 19 122 54 128 84 c 0
 130 95 138 105 147 108 c 0
 170 116 199 195 235 229 c 0
 258 250 277 280 378 449 c 0
 442 555 579 752 599 764 c 0
 607 768 612 771 617 771 c 0
 622 771 627 768 635 762 c 0
 646 754 660 620 660 549 c 0
 660 508 656 522 656 481 c 0
 656 446 660 400 660 351 c 0x80
 660 309 658 308 658 280 c 0
 658 218 668 146 668 101 c 0x40
589 406 m 0
 592 419 594 473 594 526 c 0x80
 594 584 591 640 583 640 c 0
 572 640 464 487 408 391 c 2
 390 360 l 1
 470 366 l 2
 563 373 583 376 589 406 c 0
EndSplineSet
Validated: 1
Layer: 2
SplineSet
668 101 m 0,0,1
 668 52 668 52 647 52 c 0,2,3
 637 52 637 52 618 63 c 0,4,5
 603 73 603 73 599 85.5 c 128,-1,6
 595 98 595 98 595 130 c 0,7,8
 595 137 595 137 595.5 157.5 c 128,-1,9
 596 178 596 178 596 192 c 0,10,11
 596 199 596 199 595.5 216 c 128,-1,12
 595 233 595 233 595 243 c 2,13,-1
 592 322 l 1,14,-1
 542 316 l 2,15,16
 485 308 485 308 420 303 c 2,17,-1
 349 297 l 1,18,-1
 308 242 l 2,19,20
 204 103 204 103 153 23 c 0,21,22
 119 -31 119 -31 92 -31 c 0,23,24
 66 -31 66 -31 66 -11 c 0,25,26
 66 5 66 5 95.5 37.5 c 128,-1,27
 125 70 125 70 128 84 c 0,28,29
 131 103 131 103 147 108 c 0,30,31
 159 112 159 112 188.5 162.5 c 128,-1,32
 218 213 218 213 235 229 c 128,-1,33
 252 245 252 245 276.5 282.5 c 128,-1,34
 301 320 301 320 378 449 c 0,35,36
 427 530 427 530 505.5 642.5 c 128,-1,37
 584 755 584 755 599 764 c 0,38,39
 613 771 613 771 617 771 c 0,40,41
 623 771 623 771 635 762 c 0,42,43
 643 756 643 756 651.5 680.5 c 128,-1,44
 660 605 660 605 660 549 c 0,45,46
 660 528 660 528 658 515 c 128,-1,47
 656 502 656 502 656 481 c 0,48,49
 656 465 656 465 658 421 c 128,-1,50
 660 377 660 377 660 351 c 0,51,52
 660 328 660 328 659 310 c 128,-1,53
 658 292 658 292 658 280 c 0,54,55
 658 247 658 247 663 184 c 128,-1,56
 668 121 668 121 668 101 c 0,0,1
589 406 m 0,57,58
 594 428 594 428 594 526 c 0,59,60
 594 640 594 640 583 640 c 0,61,62
 575 640 575 640 512.5 551 c 128,-1,63
 450 462 450 462 408 391 c 2,64,-1
 390 360 l 1,65,-1
 470 366 l 2,66,67
 543 372 543 372 564 378 c 128,-1,68
 585 384 585 384 589 406 c 0,57,58
EndSplineSet
EndChar

StartChar: B
Encoding: 66 66 45
Width: 655
Flags: W
HStem: 12 55<334.113 446.77> 24 44<301.288 384.026> 412 12<360 512> 731 56<389.131 612.488>
VStem: 229 66<33.7763 234.747> 587 57<244.036 394.238> 619 58<656.423 723.156>
LayerCount: 3
Fore
SplineSet
644 360 m 0x7c
 644 176 473 12 385 12 c 0xbc
 364 12 357 24 333 24 c 0
 308 24 279 7 257 7 c 0
 237 7 229 25 229 58 c 0
 229 124 259 251 272 413 c 1
 277 458 285 537 292 587 c 2
 304 677 l 1
 265 677 l 2
 236 677 220 685 220 696 c 0
 220 711 247 736 389 771 c 0
 426 780 501 787 574 787 c 0
 636 787 646 783 662 761 c 0
 671 748 677 729 677 718 c 0x7a
 677 645 529 499 526 485 c 0
 525 480 530 479 539 479 c 0
 566 479 627 436 637 410 c 0
 642 397 644 380 644 360 c 0x7c
609 715 m 0
 601 726 574 731 539 731 c 0
 519 731 497 730 472 726 c 0
 381 711 377 714 368 672 c 2
 364 652 l 2
 352 595 342 497 342 458 c 0
 342 430 347 424 360 424 c 0
 389 424 531 556 579 628 c 0
 610 675 619 686 619 696 c 0x3a
 619 702 615 707 609 715 c 0
581 281 m 0
 585 299 587 316 587 332 c 0
 587 377 569 412 512 412 c 0
 456 412 398 380 350 364 c 0
 325 355 326 335 308 230 c 0
 300 180 295 145 295 121 c 0
 295 74 315 70 369 68 c 0x7c
 378 68 386 67 393 67 c 0xbc
 428 67 437 75 488 123 c 0
 537 169 563 194 581 281 c 0
EndSplineSet
Validated: 1
Layer: 2
SplineSet
644 360 m 0,0,1
 644 295 644 295 616 229 c 128,-1,2
 588 163 588 163 547.5 116.5 c 128,-1,3
 507 70 507 70 462.5 41 c 128,-1,4
 418 12 418 12 385 12 c 0,5,6
 375 12 375 12 360 18 c 128,-1,7
 345 24 345 24 333 24 c 0,8,9
 320 24 320 24 294 15.5 c 128,-1,10
 268 7 268 7 257 7 c 0,11,12
 229 7 229 7 229 58 c 0,13,14
 229 90 229 90 247 209.5 c 128,-1,15
 265 329 265 329 272 413 c 0,16,17
 289 564 289 564 292 587 c 2,18,-1
 304 677 l 1,19,-1
 265 677 l 2,20,21
 220 677 220 677 220 696 c 0,22,23
 220 729 220 729 389 771 c 0,24,25
 455 787 455 787 574 787 c 0,26,27
 620 787 620 787 635 782.5 c 128,-1,28
 650 778 650 778 662 761 c 0,29,30
 677 739 677 739 677 718 c 0,31,32
 677 686 677 686 640 631.5 c 128,-1,33
 603 577 603 577 565 533 c 128,-1,34
 527 489 527 489 526 485 c 128,-1,35
 525 481 525 481 528.5 480 c 128,-1,36
 532 479 532 479 539 479 c 0,37,38
 559 479 559 479 594 454.5 c 128,-1,39
 629 430 629 430 637 410 c 0,40,41
 644 392 644 392 644 360 c 0,0,1
609 715 m 0,42,43
 597 731 597 731 539 731 c 0,44,45
 503 731 503 731 472 726 c 0,46,47
 395.178898269 713.337181033 395.178898269 713.337181033 384.968650432 706.771371472 c 0,48,49
 373.688580662 698.155960338 373.688580662 698.155960338 368 672 c 2,50,-1
 364 652 l 2,51,52
 342 547 342 547 342 458 c 0,53,54
 342 438 342 438 346 431 c 128,-1,55
 350 424 350 424 360 424 c 0,56,57
 382 424 382 424 462.5 499 c 128,-1,58
 543 574 543 574 579 628 c 0,59,60
 583 635 583 635 588.5 642.5 c 128,-1,61
 594 650 594 650 597 654.5 c 128,-1,62
 600 659 600 659 603.5 664 c 128,-1,63
 607 669 607 669 608.5 672.5 c 128,-1,64
 610 676 610 676 612.5 679 c 128,-1,65
 615 682 615 682 616 684 c 128,-1,66
 617 686 617 686 617.5 688.5 c 128,-1,67
 618 691 618 691 618.5 692.5 c 128,-1,68
 619 694 619 694 619 696 c 0,69,70
 619 702 619 702 609 715 c 0,42,43
581 281 m 0,71,72
 587 308 587 308 587 332 c 0,73,74
 587 412 587 412 512 412 c 0,75,76
 487 412 487 412 459.5 404.5 c 128,-1,77
 432 397 432 397 397 382.5 c 128,-1,78
 362 368 362 368 350 364 c 0,79,80
 335 359 335 359 329.5 343 c 128,-1,81
 324 327 324 327 315.12624919 272.718720891 c 0,82,83
 314 264 314 264 313 259 c 128,-1,84
 312 254 312 254 310.5 246 c 128,-1,85
 309 238 309 238 308 230 c 0,86,87
 295 149 295 149 295 121 c 0,88,89
 295 88 295 88 310 79 c 128,-1,90
 325 70 325 70 369 68 c 0,91,92
 374 68 374 68 382 67.5 c 128,-1,93
 390 67 390 67 393 67 c 0,94,95
 418 67 418 67 433 76 c 128,-1,96
 448 85 448 85 488 123 c 0,97,98
 531 163 531 163 550 192 c 128,-1,99
 569 221 569 221 581 281 c 0,71,72
EndSplineSet
EndChar

StartChar: C
Encoding: 67 67 46
Width: 727
Flags: W
HStem: 10 70<285.099 420.373> 749 61<547.753 671.467>
VStem: 165 69<136.816 307.576> 672 54<704.777 747.129>
LayerCount: 3
Fore
SplineSet
234 220 m 0
 234 139 284 80 346 80 c 0
 380 80 467 118 499 145 c 2
 561 196 l 2
 632 254 686 336 711 336 c 0
 716 336 718 331 718 323 c 0
 718 319 717 314 716 307 c 0
 708 269 503 10 329 10 c 0
 199 10 165 160 165 174 c 0
 165 241 232 515 264 579 c 0
 326 707 511 810 622 810 c 0
 678 810 726 771 726 727 c 0
 726 713 722 702 707 702 c 0
 693 702 677 712 672 727 c 1
 668 743 662 749 645 749 c 0
 576 749 447 693 383 636 c 0
 334 593 290 515 244 298 c 0
 237 264 234 240 234 220 c 0
EndSplineSet
Validated: 1
Layer: 2
SplineSet
234 220 m 0,0,1
 234 160 234 160 266.5 120 c 128,-1,2
 299 80 299 80 346 80 c 0,3,4
 371 80 371 80 423 102 c 128,-1,5
 475 124 475 124 499 145 c 2,6,-1
 561 196 l 2,7,8
 590 219 590 219 624 256 c 128,-1,9
 658 293 658 293 679 314.5 c 128,-1,10
 700 336 700 336 711 336 c 0,11,12
 718 336 718 336 718 323 c 0,13,14
 718 321 718 321 716 307 c 0,15,16
 713 291 713 291 676 244.5 c 128,-1,17
 639 198 639 198 585.5 144.5 c 128,-1,18
 532 91 532 91 460.5 50.5 c 128,-1,19
 389 10 389 10 329 10 c 0,20,21
 284 10 284 10 249 33 c 128,-1,22
 214 56 214 56 197.5 87.5 c 128,-1,23
 181 119 181 119 173 142 c 128,-1,24
 165 165 165 165 165 174 c 0,25,26
 165 224 165 224 202.5 377.5 c 128,-1,27
 240 531 240 531 264 579 c 0,28,29
 309 671 309 671 421.5 740.5 c 128,-1,30
 534 810 534 810 622 810 c 0,31,32
 664 810 664 810 695 785 c 128,-1,33
 726 760 726 760 726 727 c 0,34,35
 726 702 726 702 707 702 c 0,36,37
 696 702 696 702 686 709 c 128,-1,38
 676 716 676 716 672 727 c 0,39,40
 669 739 669 739 663 744 c 128,-1,41
 657 749 657 749 645 749 c 0,42,43
 593 749 593 749 512 714 c 128,-1,44
 431 679 431 679 383 636 c 0,45,46
 342 600 342 600 309 525 c 128,-1,47
 276 450 276 450 244 298 c 0,48,49
 234 249 234 249 234 220 c 0,0,1
EndSplineSet
EndChar

StartChar: D
Encoding: 68 68 47
Width: 855
Flags: W
HStem: 631 94<219.943 259.451> 711 81<446.775 680.319>
VStem: 828 71<470.956 627.901>
LayerCount: 3
Fore
SplineSet
249 725 m 0xa0
 257 725 272 736 284 749 c 0
 299 766 331 776 389 782 c 0
 453 788 495 792 529 792 c 0x60
 565 792 592 788 630 781 c 0
 817 747 899 695 899 583 c 0
 899 563 896 540 891 516 c 0
 828 221 573 36 415 0 c 0
 336 -18 370 -76 312 -76 c 0
 293 -76 283 -72 283 -61 c 0
 283 -45 244 -49 244 -16 c 0
 244 -7 248 21 271 29 c 0
 285 34 298 66 308 114 c 0
 328 210 320 261 351 518 c 2
 372 691 l 1
 335 688 l 2
 280 683 243 631 225 631 c 0
 217 631 201 651 201 667 c 0
 201 685 233 725 249 725 c 0xa0
439 668 m 0
 420 580 423 246 379 127 c 2
 360 76 l 1
 414 76 l 2
 476 76 547 115 643 202 c 0
 754 303 793 395 821 525 c 0
 826 547 828 563 828 575 c 0
 828 596 822 609 807 629 c 0
 783 662 758 674 673 691 c 0
 656 694 568 711 496 711 c 0
 462 711 448 709 439 668 c 0
EndSplineSet
Validated: 1
Layer: 2
SplineSet
249 725 m 0,0,1
 262 725 262 725 284 749 c 0,2,3
 305 773 305 773 389 782 c 0,4,5
 496 792 496 792 529 792 c 0,6,7
 570 792 570 792 630 781 c 0,8,9
 773 755 773 755 836 710 c 128,-1,10
 899 665 899 665 899 583 c 0,11,12
 899 554 899 554 891 516 c 0,13,14
 869 411 869 411 813 317 c 128,-1,15
 757 223 757 223 688 160 c 128,-1,16
 619 97 619 97 548 55.5 c 128,-1,17
 477 14 477 14 415 0 c 0,18,19
 389 -6 389 -6 374 -19.5 c 128,-1,20
 359 -33 359 -33 355.5 -45 c 128,-1,21
 352 -57 352 -57 341.5 -66.5 c 128,-1,22
 331 -76 331 -76 312 -76 c 0,23,24
 283 -76 283 -76 283 -61 c 0,25,26
 283 -55 283 -55 263.5 -45 c 128,-1,27
 244 -35 244 -35 244 -16 c 0,28,29
 244 20 244 20 271 29 c 0,30,31
 292 36 292 36 308 114 c 0,32,33
 318 163 318 163 327 278 c 128,-1,34
 336 393 336 393 351 518 c 2,35,-1
 372 691 l 1,36,-1
 335 688 l 2,37,38
 303 685 303 685 266.5 658 c 128,-1,39
 230 631 230 631 225 631 c 0,40,41
 219 631 219 631 210 643.5 c 128,-1,42
 201 656 201 656 201 667 c 0,43,44
 201 681 201 681 219 703 c 128,-1,45
 237 725 237 725 249 725 c 0,0,1
439 668 m 0,46,47
 432 635 432 635 426 522 c 128,-1,48
 420 409 420 409 409 294 c 128,-1,49
 398 179 398 179 379 127 c 2,50,-1
 360 76 l 1,51,-1
 414 76 l 2,52,53
 504 76 504 76 643 202 c 0,54,55
 722 274 722 274 760 347 c 128,-1,56
 798 420 798 420 821 525 c 0,57,58
 828 556 828 556 828 575 c 0,59,60
 828 601 828 601 807 629 c 0,61,62
 789 654 789 654 762.5 666 c 128,-1,63
 736 678 736 678 673 691 c 0,64,65
 560 711 560 711 496 711 c 0,66,67
 468 711 468 711 456.5 704 c 128,-1,68
 445 697 445 697 439 668 c 0,46,47
EndSplineSet
EndChar

StartChar: E
Encoding: 69 69 48
Width: 579
Flags: W
HStem: -11 75<180.622 341.299> 733 60<444.717 633.805>
DStem2: 182 513 244 451 0.137166 0.990548<-445.305 -196.917 -120.617 110.001>
LayerCount: 3
Fore
SplineSet
194 -11 m 0
 118 -11 118 9 118 34 c 0
 118 106 157 300 182 513 c 0
 188 565 193 599 198 623 c 0
 212 689 247 707 255 707 c 0
 292 707 384 793 563 793 c 0
 614 793 647 784 647 767 c 0
 647 760 636 748 545 733 c 0
 436 716 326 679 287 648 c 0
 257 624 265 609 244 451 c 0
 239 417 237 396 237 383 c 0
 237 372 239 368 243 368 c 0
 245 368 248 369 251 371 c 0
 277 385 467 427 500 427 c 0
 520 427 525 417 525 408 c 0
 525 377 476 362 339 330 c 0
 234 306 223 301 217 275 c 2
 193 150 l 1
 178 64 l 1
 229 64 l 2
 289 64 403 93 472 126 c 0
 497 138 508 143 517 143 c 0
 529 143 540 126 540 113 c 0
 540 63 329 -11 194 -11 c 0
EndSplineSet
Validated: 1
Layer: 2
SplineSet
194 -11 m 0,0,1
 158 -11 158 -11 140.5 -4 c 128,-1,2
 123 3 123 3 120.5 10.5 c 128,-1,3
 118 18 118 18 118 34 c 0,4,5
 118 65 118 65 128 136 c 128,-1,6
 138 207 138 207 155 317 c 128,-1,7
 172 427 172 427 182 513 c 0,8,9
 191 587 191 587 198 623 c 0,10,11
 204 653 204 653 217 673.5 c 128,-1,12
 230 694 230 694 239.5 700.5 c 128,-1,13
 249 707 249 707 255 707 c 0,14,15
 266 707 266 707 294 720.5 c 128,-1,16
 322 734 322 734 355 750 c 128,-1,17
 388 766 388 766 445 779.5 c 128,-1,18
 502 793 502 793 563 793 c 0,19,20
 647 793 647 793 647 767 c 0,21,22
 647 750 647 750 545 733 c 0,23,24
 464 720 464 720 390.5 695.5 c 128,-1,25
 317 671 317 671 287 648 c 0,26,27
 279 642 279 642 274.5 635.5 c 128,-1,28
 270 629 270 629 267 622 c 128,-1,29
 264 615 264 615 262 599 c 128,-1,30
 260 583 260 583 258 567.5 c 128,-1,31
 256 552 256 552 252 518 c 128,-1,32
 248 484 248 484 244 451 c 0,33,34
 237 403 237 403 237 383 c 0,35,36
 237 368 237 368 243 368 c 0,37,38
 246 368 246 368 251 371 c 0,39,40
 270 381 270 381 372.5 404 c 128,-1,41
 475 427 475 427 500 427 c 128,-1,42
 525 427 525 427 525 408 c 0,43,44
 525 386 525 386 487 371 c 128,-1,45
 449 356 449 356 339 330 c 0,46,47
 260 312 260 312 241 303.5 c 128,-1,48
 222 295 222 295 217 275 c 2,49,-1
 193 150 l 1,50,-1
 178 64 l 1,51,-1
 229 64 l 2,52,53
 274 64 274 64 347 82.5 c 128,-1,54
 420 101 420 101 472 126 c 0,55,56
 507 143 507 143 517 143 c 0,57,58
 526 143 526 143 533 133 c 128,-1,59
 540 123 540 123 540 113 c 0,60,61
 540 76 540 76 418 32.5 c 128,-1,62
 296 -11 296 -11 194 -11 c 0,0,1
EndSplineSet
EndChar

StartChar: F
Encoding: 70 70 49
Width: 602
Flags: W
HStem: 356 78<334.933 470.549> 687 102<509.851 554.671>
DStem2: 240 544 318 586 0.208343 0.978056<-105.068 139.115>
LayerCount: 3
Fore
SplineSet
204 10 m 0
 186 10 169 16 169 37 c 0
 169 49 173 67 179 96 c 0
 205 219 188 300 240 544 c 2
 276 713 l 1
 354 739 l 2
 397 753 452 765 477 765 c 0
 551 765 528 789 629 789 c 0
 677 789 699 785 699 765 c 0
 699 725 647 728 440 687 c 2
 335 666 l 1
 318 586 l 2
 309 542 299 487 298 463 c 2
 296 419 l 1
 362 426 l 2
 406 431 447 434 480 434 c 0
 512 434 554 432 554 420 c 0
 554 407 505 379 376 356 c 2
 288 341 l 1
 263 182 l 2
 240 35 228 10 204 10 c 0
EndSplineSet
Validated: 1
Layer: 2
SplineSet
204 10 m 0,0,1
 169 10 169 10 169 37 c 0,2,3
 169 48 169 48 179 96 c 0,4,5
 189 142 189 142 200 274.5 c 128,-1,6
 211 407 211 407 240 544 c 2,7,-1
 276 713 l 1,8,-1
 354 739 l 2,9,10
 434 765 434 765 477 765 c 0,11,12
 511 765 511 765 543 777 c 128,-1,13
 575 789 575 789 629 789 c 0,14,15
 667 789 667 789 683 784 c 128,-1,16
 699 779 699 779 699 765 c 0,17,18
 699 743 699 743 675 734.5 c 128,-1,19
 651 726 651 726 561.930202144 709.805122199 c 0,20,21
 489 697 489 697 440 687 c 2,22,-1
 335 666 l 1,23,-1
 318 586 l 2,24,25
 299 495 299 495 298 463 c 2,26,-1
 296 419 l 1,27,-1
 362 426 l 2,28,29
 432 434 432 434 480 434 c 0,30,31
 554 434 554 434 554 420 c 0,32,33
 554 413 554 413 537.5 403 c 128,-1,34
 521 393 521 393 478.5 380 c 128,-1,35
 436 367 436 367 376 356 c 2,36,-1
 288 341 l 1,37,-1
 263 182 l 2,38,39
 246 75 246 75 234.5 42.5 c 128,-1,40
 223 10 223 10 204 10 c 0,0,1
EndSplineSet
EndChar

StartChar: G
Encoding: 71 71 50
Width: 700
Flags: W
HStem: -6 75<201.844 327.323> 344 107<406.919 489.158> 365 94<441.84 547.745> 693 68<600.438 682.647>
VStem: 123 70<77.4304 265.702> 551 112<277.924 362.885>
LayerCount: 3
Fore
SplineSet
747 710 m 0xbc
 747 695 715 646 696 646 c 0
 672 646 695 693 666 693 c 0
 623 693 457 647 291 422 c 0
 235 345 227 328 208 238 c 0
 198 193 193 158 193 133 c 0
 193 85 212 69 253 69 c 0
 319 69 380 97 436 155 c 0
 487 209 551 297 551 332 c 0
 551 351 536 365 521 365 c 0xbc
 498 365 503 344 451 344 c 0
 423 344 367 352 367 387 c 0
 367 434 435 428 453 451 c 0xdc
 457 456 472 459 490 459 c 0
 540 459 623 441 643 421 c 0
 657 407 663 374 663 329 c 0
 663 262 650 170 630 77 c 0
 622 40 612 -8 576 -8 c 0
 570 -8 549 -5 549 30 c 0
 549 50 554 81 565 132 c 2
 589 246 l 1
 546 193 l 2
 443 66 325 -6 236 -6 c 0
 211 -6 187 0 167 13 c 0
 143 28 123 42 123 146 c 0
 123 190 136 241 152 289 c 0
 188 396 212 435 307 541 c 0
 453 706 575 709 602 744 c 0
 612 756 633 761 657 761 c 0
 716 761 747 732 747 710 c 0xbc
EndSplineSet
Validated: 1
Layer: 2
SplineSet
747 710 m 0,0,1
 747 697 747 697 728 671.5 c 128,-1,2
 709 646 709 646 696 646 c 0,3,4
 685 646 685 646 683 669.5 c 128,-1,5
 681 693 681 693 666 693 c 0,6,7
 646 693 646 693 611.5 681.5 c 128,-1,8
 577 670 577 670 526 643 c 128,-1,9
 475 616 475 616 412 558.5 c 128,-1,10
 349 501 349 501 291 422 c 0,11,12
 249 364 249 364 235.5 334.5 c 128,-1,13
 222 305 222 305 208 238 c 0,14,15
 193 170.5 193 170.5 193 133 c 0,16,17
 193 98 193 98 207 83.5 c 128,-1,18
 221 69 221 69 253 69 c 0,19,20
 353 69 353 69 436 155 c 0,21,22
 478 200 478 200 514.5 253.5 c 128,-1,23
 551 307 551 307 551 332 c 0,24,25
 551 346 551 346 542 355.5 c 128,-1,26
 533 365 533 365 521 365 c 0,27,28
 513 365 513 365 497 354.5 c 128,-1,29
 481 344 481 344 451 344 c 128,-1,30
 421 344 421 344 394 354 c 128,-1,31
 367 364 367 364 367 387 c 0,32,33
 367 408 367 408 384 418.5 c 128,-1,34
 401 429 401 429 423.5 436 c 128,-1,35
 446 443 446 443 453 451 c 0,36,37
 459 459 459 459 490 459 c 0,38,39
 529 459 529 459 579 447 c 128,-1,40
 629 435 629 435 643 421 c 0,41,42
 663 401 663 401 663 329 c 0,43,44
 663 230 663 230 630 77 c 0,45,46
 624 51 624 51 620 37 c 128,-1,47
 616 23 616 23 604.5 7.5 c 128,-1,48
 593 -8 593 -8 576 -8 c 0,49,50
 549 -8 549 -8 549 30 c 0,51,52
 549 58 549 58 565 132 c 2,53,-1
 589 246 l 1,54,-1
 546 193 l 2,55,56
 470 99 470 99 387 46.5 c 128,-1,57
 304 -6 304 -6 236 -6 c 0,58,59
 196 -6 196 -6 167 13 c 0,60,61
 152 23 152 23 144.5 31.5 c 128,-1,62
 137 40 137 40 130 68.5 c 128,-1,63
 123 97 123 97 123 146 c 0,64,65
 123 202 123 202 152 289 c 0,66,67
 179 369 179 369 207.5 415 c 128,-1,68
 236 461 236 461 307 541 c 0,69,70
 357 597 357 597 410.5 637 c 128,-1,71
 464 677 464 677 499.5 692 c 128,-1,72
 535 707 535 707 564.5 720.5 c 128,-1,73
 594 734 594 734 602 744 c 0,74,75
 616 761 616 761 657 761 c 128,-1,76
 698 761 698 761 722.5 745 c 128,-1,77
 747 729 747 729 747 710 c 0,0,1
EndSplineSet
EndChar

StartChar: H
Encoding: 72 72 51
Width: 666
Flags: W
VStem: 125 91<32.308 181.394> 637 84<563.41 679.334>
LayerCount: 3
Fore
SplineSet
152 -60 m 0
 141 -60 125 -49 125 -3 c 0
 125 101 235 753 266 801 c 0
 278 821 296 837 305 837 c 0
 310 837 312 826 312 809 c 0
 312 733 273 524 273 448 c 0
 273 431 275 420 280 420 c 0
 287 420 314 437 509 494 c 0
 548 506 588 521 596 528 c 0
 605 535 623 575 637 617 c 0
 667 713 681 738 704 738 c 0
 715 738 721 729 721 703 c 0
 721 661 706 575 672 407 c 0
 606 71 617 96 612 71 c 0
 605 39 574 37 570 37 c 0
 554 37 546 50 546 84 c 0
 546 167 599 379 599 448 c 0
 599 453 598 456 597 456 c 0
 577 456 489 409 340 356 c 2
 249 324 l 1
 216 143 l 2
 196 28 178 -60 152 -60 c 0
EndSplineSet
Validated: 1
Layer: 2
SplineSet
152 -60 m 0,0,1
 125 -60 125 -60 125 -3 c 0,2,3
 125 78 125 78 184.5 422 c 128,-1,4
 244 766 244 766 266 801 c 0,5,6
 288 837 288 837 305 837 c 0,7,8
 312 837 312 837 312 809 c 0,9,10
 312 771 312 771 292.5 628.5 c 128,-1,11
 273 486 273 486 273 448 c 0,12,13
 273 420 273 420 280 420 c 0,14,15
 282 420 282 420 296.5 425.5 c 128,-1,16
 311 431 311 431 367.5 450 c 128,-1,17
 424 469 424 469 509 494 c 0,18,19
 583 517 583 517 596 528 c 0,20,21
 611 540 611 540 637 617 c 0,22,23
 659 689 659 689 673 713.5 c 128,-1,24
 687 738 687 738 704 738 c 128,-1,25
 721 738 721 738 721 703 c 0,26,27
 721 649 721 649 672 407 c 0,28,29
 656 328 656 328 645 267.5 c 128,-1,30
 634 207 634 207 628.5 175.5 c 128,-1,31
 623 144 623 144 619.5 122.5 c 128,-1,32
 616 101 616 101 615 94 c 128,-1,33
 614 87 614 87 613.5 81.5 c 128,-1,34
 613 76 613 76 612 71 c 0,35,36
 609 57 609 57 598.5 48.5 c 128,-1,37
 588 40 588 40 581.5 38.5 c 128,-1,38
 575 37 575 37 570 37 c 0,39,40
 546 37 546 37 546 84 c 0,41,42
 546 127 546 127 572.5 271 c 128,-1,43
 599 415 599 415 599 448 c 0,44,45
 599 456 599 456 597 456 c 0,46,47
 589 456 589 456 558.5 443 c 128,-1,48
 528 430 528 430 465 404 c 128,-1,49
 402 378 402 378 340 356 c 2,50,-1
 249 324 l 1,51,-1
 216 143 l 2,52,53
 198 41 198 41 184 -9.5 c 128,-1,54
 170 -60 170 -60 152 -60 c 0,0,1
EndSplineSet
EndChar

StartChar: I
Encoding: 73 73 52
Width: 587
Flags: W
HStem: -18 73<145.44 270.266> 696 84<508 613.876>
DStem2: 359 288 473 522 0.180059 0.983656<15.3456 410.278>
LayerCount: 3
Fore
SplineSet
134 23 m 0
 134 54 159 55 180 55 c 0
 201 55 243 65 274 78 c 2
 328 101 l 1
 359 288 l 2
 376 392 400 524 413 584 c 2
 436 691 l 1
 405 683 l 2
 368 673 334 669 307 669 c 0
 275 669 254 675 254 688 c 0
 254 720 406 752 466 775 c 0
 476 779 503 780 532 780 c 0
 569 780 608 777 618 773 c 0
 626 770 632 758 632 747 c 0
 632 716 600 707 539 700 c 2
 508 696 l 1
 473 522 l 2
 463 472 411 206 411 135 c 0
 411 124 412 117 415 117 c 0
 419 117 433 132 456 132 c 0
 474 132 489 123 489 107 c 0
 489 66 401 37 310 5 c 0
 265 -11 241 -18 219 -18 c 0
 216 -18 134 -10 134 23 c 0
EndSplineSet
Validated: 1
Layer: 2
SplineSet
134 23 m 128,-1,1
 134 44 134 44 146.5 49.5 c 128,-1,2
 159 55 159 55 180 55 c 0,3,4
 219 55 219 55 274 78 c 2,5,-1
 328 101 l 1,6,-1
 359 288 l 2,7,8
 390 478 390 478 413 584 c 2,9,-1
 436 691 l 1,10,-1
 405 683 l 2,11,12
 353 669 353 669 307 669 c 0,13,14
 254 669 254 669 254 688 c 0,15,16
 254 702 254 702 291 717.5 c 128,-1,17
 328 733 328 733 389 751 c 128,-1,18
 450 769 450 769 466 775 c 0,19,20
 478 780 478 780 532 780 c 0,21,22
 600 780 600 780 618 773 c 0,23,24
 632 768 632 768 632 747 c 0,25,26
 632 725 632 725 610.5 715.5 c 128,-1,27
 589 706 589 706 539 700 c 2,28,-1
 508 696 l 1,29,-1
 473 522 l 2,30,31
 411 212 411 212 411 135 c 0,32,33
 411 117 411 117 415 117 c 0,34,35
 416 117 416 117 421.5 120.5 c 128,-1,36
 427 124 427 124 436.5 128 c 128,-1,37
 446 132 446 132 456 132 c 0,38,39
 470 132 470 132 479.5 125.5 c 128,-1,40
 489 119 489 119 489 107 c 0,41,42
 489 93 489 93 475.5 79.5 c 128,-1,43
 462 66 462 66 437 54 c 128,-1,44
 412 42 412 42 385 32 c 128,-1,45
 358 22 358 22 321.842781656 9.15715617838 c 0,46,47
 318 8 318 8 315.5 7 c 128,-1,48
 313 6 313 6 310 5 c 0,49,50
 245 -18 245 -18 219 -18 c 0,51,52
 203 -18 203 -18 168.5 -8 c 128,-1,0
 134 2 134 2 134 23 c 128,-1,1
EndSplineSet
EndChar

StartChar: J
Encoding: 74 74 53
Width: 689
Flags: W
HStem: -53 78<283.798 340.811>
DStem2: 374.732 -53 440.717 -53 0.207912 0.978148<380.235 680.271>
LayerCount: 3
Fore
SplineSet
229 594 m 0
 207 594 202 608 202 625 c 0
 202 627 202 630 203 632 c 0
 210 663 273 678 510 734 c 2
 760 793 l 1
 766 793 798 772 798 756 c 0
 798 719 632 696 605 677 c 0
 599 673 585 628 573 571 c 2
 564 527 l 2
 536 394 465 159 430 83 c 0
 398 14 340 -53 314 -53 c 0
 281 -53 232 -24 232 -5 c 0
 232 -4 233 -1 233 3 c 0
 233 10 231 19 222 25 c 0
 206 37 152 171 152 243 c 0
 152 287 177 315 214 315 c 0
 240 315 249 308 249 287 c 0
 249 257 237 227 237 187 c 0
 237 160 243 137 255 107 c 0
 280 49 293 25 309 25 c 0
 317 25 326 30 336 40 c 0
 371 74 452 310 491 494 c 2
 502 547 l 2
 508 577 512 599 512 614 c 0
 512 635 504 644 483 644 c 0
 437 644 275 594 229 594 c 0
EndSplineSet
Validated: 1
Layer: 2
SplineSet
229 594 m 0,0,1
 202 594 202 594 202 625 c 0,2,3
 202 630 202 630 203 632 c 0,4,5
 208 654 208 654 262.5 671 c 128,-1,6
 317 688 317 688 510 734 c 2,7,-1
 760 793 l 2,8,9
 766 793 766 793 782 780 c 128,-1,10
 798 767 798 767 798 756 c 0,11,12
 798 740 798 740 756.5 724.5 c 128,-1,13
 715 709 715 709 665 696.5 c 128,-1,14
 615 684 615 684 605 677 c 0,15,16
 594 669 594 669 573 571 c 2,17,-1
 564 527 l 2,18,19
 543 427 543 427 499.5 283.5 c 128,-1,20
 456 140 456 140 430 83 c 0,21,22
 406 32 406 32 370 -10.5 c 128,-1,23
 334 -53 334 -53 314 -53 c 0,24,25
 289 -53 289 -53 260.5 -36 c 128,-1,26
 232 -19 232 -19 232 -5 c 2,27,-1
 232.5 -2 l 2,28,29
 233 1 233 1 233 3 c 0,30,31
 233 18 233 18 222 25 c 0,32,33
 208 36 208 36 180 115 c 128,-1,34
 152 194 152 194 152 243 c 0,35,36
 152 276 152 276 169 295.5 c 128,-1,37
 186 315 186 315 214 315 c 0,38,39
 234 315 234 315 241.5 309 c 128,-1,40
 249 303 249 303 249 287 c 0,41,42
 249 273 249 273 243 240.5 c 128,-1,43
 237 208 237 208 237 187 c 0,44,45
 237 152 237 152 255 107 c 0,46,47
 275 61 275 61 286.5 43 c 128,-1,48
 298 25 298 25 309 25 c 0,49,50
 321 25 321 25 336 40 c 0,51,52
 362 66 362 66 412 211.5 c 128,-1,53
 462 357 462 357 491 494 c 2,54,-1
 502 547 l 2,55,56
 512 597 512 597 512 614 c 0,57,58
 512 644 512 644 483 644 c 0,59,60
 460 644 460 644 356 619 c 128,-1,61
 252 594 252 594 229 594 c 0,0,1
EndSplineSet
EndChar

StartChar: K
Encoding: 75 75 54
Width: 779
Flags: W
HStem: 7 105<648.185 690.736> 675 76<663.712 736.569>
VStem: 251 74<643.861 817.486>
LayerCount: 3
Fore
SplineSet
295 831 m 0
 304 831 325 824 325 791 c 0
 325 720 289 593 284 507 c 2
 281 451 l 1
 401 556 l 2
 467 613 530 661 538 661 c 0
 562 661 602 713 626 713 c 0
 653 713 673 751 709 751 c 0
 728 751 743 739 743 719 c 0
 743 692 727 685 690 675 c 0
 619 656 290 379 290 345 c 0
 290 341 299 333 438 249 c 0
 626 135 631 112 655 112 c 0
 678 112 736 50 736 28 c 0
 736 22 730 7 721 7 c 0
 695 7 584 51 548 75 c 0
 471 127 268 243 255 243 c 0
 217 243 241 -66 172 -66 c 0
 144 -66 134 -52 134 -10 c 0
 134 93 209 544 251 740 c 0
 264 802 269 831 295 831 c 0
EndSplineSet
Validated: 1
Layer: 2
SplineSet
295 831 m 0,0,1
 305 831 305 831 315 822 c 128,-1,2
 325 813 325 813 325 791 c 0,3,4
 325 754 325 754 305.5 651 c 128,-1,5
 286 548 286 548 284 507 c 2,6,-1
 281 451 l 1,7,-1
 401 556 l 2,8,9
 523 661 523 661 538 661 c 0,10,11
 550 661 550 661 582 687 c 128,-1,12
 614 713 614 713 626 713 c 128,-1,13
 638 713 638 713 664 732 c 128,-1,14
 690 751 690 751 709 751 c 0,15,16
 724 751 724 751 733.5 742.5 c 128,-1,17
 743 734 743 734 743 719 c 0,18,19
 743 700 743 700 731.5 691.5 c 128,-1,20
 720 683 720 683 690 675 c 0,21,22
 657 666 657 666 558 591 c 128,-1,23
 459 516 459 516 374.5 438.5 c 128,-1,24
 290 361 290 361 290 345 c 0,25,26
 290 338 290 338 438 249 c 0,27,28
 489 218 489 218 530 191.5 c 128,-1,29
 571 165 571 165 589.5 151.5 c 128,-1,30
 608 138 608 138 622 128 c 128,-1,31
 636 118 636 118 642 115 c 128,-1,32
 648 112 648 112 655 112 c 0,33,34
 672 112 672 112 704 78.5 c 128,-1,35
 736 45 736 45 736 28 c 0,36,37
 736 22 736 22 731.5 14.5 c 128,-1,38
 727 7 727 7 721 7 c 0,39,40
 702 7 702 7 638.5 32 c 128,-1,41
 575 57 575 57 548 75 c 0,42,43
 491 114 491 114 378 178.5 c 128,-1,44
 265 243 265 243 255 243 c 0,45,46
 240 243 240 243 233.5 166 c 128,-1,47
 227 89 227 89 214.5 11.5 c 128,-1,48
 202 -66 202 -66 172 -66 c 0,49,50
 151 -66 151 -66 142.5 -53.5 c 128,-1,51
 134 -41 134 -41 134 -10 c 0,52,53
 134 63 134 63 175.5 321.5 c 128,-1,54
 217 580 217 580 251 740 c 0,55,56
 265.84854324 810.8161293 265.84854324 810.8161293 276.119708694 822.646791079 c 0,57,58
 283.371812803 831 283.371812803 831 295 831 c 0,0,1
EndSplineSet
EndChar

StartChar: L
Encoding: 76 76 55
Width: 708
Flags: W
HStem: -10 77<181.5 373.291>
VStem: 141 77<20 219.664>
LayerCount: 3
Fore
SplineSet
307 745 m 0
 307 643 218 185 218 103 c 0
 218 68 228 67 248 67 c 0
 308 67 640 153 650 153 c 0
 674 153 680 130 680 121 c 0
 680 116 679 111 656 94 c 0
 610 62 331 -10 202 -10 c 0
 161 -10 141 -8 141 48 c 0
 141 143 245 697 257 752 c 0
 260 764 261 788 279 788 c 0
 296 788 307 759 307 745 c 0
EndSplineSet
Validated: 1
Layer: 2
SplineSet
307 745 m 0,0,1
 307 692 307 692 262.5 416.5 c 128,-1,2
 218 141 218 141 218 103 c 0,3,4
 218 86 218 86 222 78 c 128,-1,5
 226 70 226 70 231 68.5 c 128,-1,6
 236 67 236 67 248 67 c 0,7,8
 274 67 274 67 372.5 88.5 c 128,-1,9
 471 110 471 110 559 131.5 c 128,-1,10
 647 153 647 153 650 153 c 0,11,12
 666 153 666 153 673 142 c 128,-1,13
 680 131 680 131 680 121 c 0,14,15
 680 112 680 112 656 94 c 0,16,17
 619 68 619 68 456.5 29 c 128,-1,18
 294 -10 294 -10 202 -10 c 0,19,20
 167 -10 167 -10 154 -0.5 c 128,-1,21
 141 9 141 9 141 48 c 0,22,23
 141 109 141 109 190 389.5 c 128,-1,24
 239 670 239 670 257 752 c 0,25,26
 257 754 257 754 258.5 760 c 128,-1,27
 260 766 260 766 261 770 c 128,-1,28
 262 774 262 774 264 778.5 c 128,-1,29
 266 783 266 783 270 785.5 c 128,-1,30
 274 788 274 788 279 788 c 0,31,32
 291 788 291 788 299 773 c 128,-1,33
 307 758 307 758 307 745 c 0,0,1
EndSplineSet
EndChar

StartChar: M
Encoding: 77 77 56
Width: 727
Flags: W
HStem: 320 83<342.5 414.484> 664 139<688 761.843>
VStem: 79 129<-18 66> 592 81<-5.88281 175.717> 692 89<589.89 769.748>
LayerCount: 3
Fore
SplineSet
673 38 m 0
 673 17 666 -12 636 -12 c 0
 617 -12 592 3 592 29 c 0
 592 92 692 594 692 657 c 0
 692 661 692 664 691 664 c 0
 685 664 663 635 638 597 c 0
 589 522 580 510 506 416 c 0
 467 366 391 320 348 320 c 0
 337 320 314 358 296 407 c 2
 263 494 l 1
 208 236 l 2
 153 -18 134 -71 97 -71 c 0
 86 -71 79 -63 79 -34 c 0
 79 66 227 765 251 789 c 0
 261 800 279 808 292 808 c 0
 309 808 317 779 324 687 c 0
 334 540 367 403 390 403 c 0
 413 403 522 539 660 741 c 0
 686 779 722 803 748 803 c 0
 769 803 781 785 781 747 c 0
 781 630 672 212 672 71 c 0
 672 54 673 47 673 38 c 0
EndSplineSet
Validated: 1
Layer: 2
SplineSet
673 38 m 0,0,1
 673 -12 673 -12 636 -12 c 0,2,3
 620 -12 620 -12 606 -0.5 c 128,-1,4
 592 11 592 11 592 29 c 0,5,6
 592 60 592 60 642 343 c 128,-1,7
 692 626 692 626 692 657 c 0,8,9
 692 664 692 664 691 664 c 0,10,11
 682 664 682 664 638 597 c 0,12,13
 587 519 587 519 506 416 c 0,14,15
 477 379 477 379 428.5 349.5 c 128,-1,16
 380 320 380 320 348 320 c 0,17,18
 340 320 340 320 324.5 345 c 128,-1,19
 309 370 309 370 296 407 c 2,20,-1
 263 494 l 1,21,-1
 208 236 l 2,22,23
 167 45 167 45 146 -13 c 128,-1,24
 125 -71 125 -71 97 -71 c 0,25,26
 79 -71 79 -71 79 -34 c 0,27,28
 79 40 79 40 156 405.5 c 128,-1,29
 233 771 233 771 251 789 c 0,30,31
 268 808 268 808 292 808 c 0,32,33
 305 808 305 808 312 782 c 128,-1,34
 319 756 319 756 324 687 c 0,35,36
 331 578 331 578 352 490.5 c 128,-1,37
 373 403 373 403 390 403 c 128,-1,38
 407 403 407 403 482 496.5 c 128,-1,39
 557 590 557 590 660 741 c 0,40,41
 679 769 679 769 703.5 786 c 128,-1,42
 728 803 728 803 748 803 c 0,43,44
 781 803 781 803 781 747 c 128,-1,45
 781 691 781 691 726.5 417.5 c 128,-1,46
 672 144 672 144 672 71 c 0,47,48
 672 62 672 62 672.5 52 c 128,-1,49
 673 42 673 42 673 38 c 0,0,1
EndSplineSet
EndChar

StartChar: N
Encoding: 78 78 57
Width: 829
Flags: W
HStem: -21 91<614.802 681.443>
VStem: 104 112<107.895 198.179>
LayerCount: 3
Fore
SplineSet
237 314 m 0
 218 225 223 211 216 177 c 0
 202 110 164 33 142 33 c 0
 117 34 104 36 104 70 c 0
 104 154 253 741 264 761 c 0
 273 778 292 786 310 786 c 0
 321 786 332 782 342 775 c 0
 357 764 437 601 437 583 c 0
 437 559 481 489 544 275 c 0
 561 216 607 70 637 70 c 0
 648 70 663 76 733 329 c 0
 829 675 839 714 894 714 c 0
 909 714 917 707 917 688 c 0
 917 636 885 579 781 222 c 0
 724 24 706 -21 655 -21 c 0
 565 -21 517 51 476 195 c 0
 428 363 422 338 420 391 c 0
 419 443 345 582 333 622 c 0
 332 624 332 624 331 624 c 0
 318 624 264 443 237 314 c 0
EndSplineSet
Validated: 1
Layer: 2
SplineSet
237 314 m 0,0,1
 226 262 226 262 222 224 c 128,-1,2
 218 186 218 186 216 177 c 0,3,4
 205 126 205 126 181.5 79.5 c 128,-1,5
 158 33 158 33 142 33 c 0,6,7
 121 34 121 34 112.5 40 c 128,-1,8
 104 46 104 46 104 70 c 0,9,10
 104 126 104 126 178.5 433 c 128,-1,11
 253 740 253 740 264 761 c 0,12,13
 277 786 277 786 310 786 c 0,14,15
 326 786 326 786 342 775 c 0,16,17
 353 767 353 767 395 682 c 128,-1,18
 437 597 437 597 437 583 c 0,19,20
 437 574 437 574 449.5 544 c 128,-1,21
 462 514 462 514 489.5 440.5 c 128,-1,22
 517 367 517 367 544 275 c 0,23,24
 603 70 603 70 637 70 c 0,25,26
 644 70 644 70 651 80 c 128,-1,27
 658 90 658 90 679.5 151 c 128,-1,28
 701 212 701 212 733 329 c 0,29,-1
 733.280856805 330.012262999 l 1,30,-1
 733.561467636 331.023655268 l 1,31,-1
 733.841832442 332.034175514 l 1,32,-1
 734.121951169 333.043822443 l 1,33,-1
 734.401823767 334.052594756 l 1,34,-1
 734.681450186 335.060491154 l 1,35,-1
 734.960830376 336.06751033 l 1,36,-1
 735.239964288 337.07365098 l 1,37,-1
 735.518851874 338.078911791 l 1,38,-1
 735.797493088 339.083291452 l 1,39,-1
 736.075887884 340.086788645 l 1,40,-1
 736.354036215 341.089402051 l 1,41,-1
 736.631938037 342.091130347 l 1,42,-1
 737.172674212 344.040280067 l 2,43,44
 813.435299515 618.93845158 813.435299515 618.93845158 835.465285783 666.569966932 c 0,45,46
 855.106689517 709.037075722 855.106689517 709.037075722 882.117758019 713.196667892 c 2,47,-1
 894 714 l 2,48,49
 917 714 917 714 917 688 c 0,50,51
 917 673 917 673 913 655.5 c 128,-1,52
 909 638 909 638 898.5 603 c 128,-1,53
 888 568 888 568 874.5 526.5 c 128,-1,54
 861 485 861 485 835 401 c 128,-1,55
 809 317 809 317 781 222 c 0,56,57
 737 68 737 68 714.5 23.5 c 128,-1,58
 692 -21 692 -21 655 -21 c 0,59,60
 590 -21 590 -21 549 31 c 128,-1,61
 508 83 508 83 476 195 c 0,62,63
 461 249 461 249 448 287.5 c 128,-1,64
 435 326 435 326 430.5 337.5 c 128,-1,65
 426 349 426 349 423.5 360.5 c 128,-1,66
 421 372 421 372 420 391 c 0,67,68
 419 422 419 422 376.5 519.5 c 128,-1,69
 334 617 334 617 333 622 c 0,70,71
 332 624 332 624 331 624 c 0,72,73
 321 624 321 624 289.5 518 c 128,-1,74
 258 412 258 412 237 314 c 0,0,1
EndSplineSet
EndChar

StartChar: O
Encoding: 79 79 58
Width: 655
Flags: W
HStem: -26 68<255.83 392.814> 650 97<549.293 627.286>
VStem: 119 76<126.832 349.145> 658 62<441.808 607.037>
LayerCount: 3
Fore
SplineSet
720 578 m 0
 720 334 496 14 431 14 c 0
 422 14 412 7 407 -2 c 0
 400 -14 331 -26 273 -26 c 0
 236 -26 222 -19 195 7 c 0
 150 50 119 145 119 236 c 0
 119 393 237 562 339 624 c 0
 377 647 417 666 428 666 c 0
 456 666 492 720 525 720 c 0
 565 720 552 747 599 747 c 0
 676 747 720 684 720 578 c 0
563 265 m 0
 600 371 658 464 658 508 c 0
 658 556 629 636 620 642 c 0
 612 648 601 650 584 650 c 0
 557 650 517 643 465 627 c 0
 359 596 275 507 225 374 c 0
 205 322 195 297 195 260 c 0
 195 242 197 222 201 193 c 0
 216 92 253 42 316 42 c 0
 333 42 352 46 374 54 c 0
 425 72 540 200 563 265 c 0
EndSplineSet
Validated: 1
Layer: 2
SplineSet
720 578 m 0,0,1
 720 492 720 492 684 388 c 128,-1,2
 648 284 648 284 600 204 c 128,-1,3
 552 124 552 124 504 69 c 128,-1,4
 456 14 456 14 431 14 c 0,5,6
 416 14 416 14 407 -2 c 0,7,8
 402 -11 402 -11 359.5 -18.5 c 128,-1,9
 317 -26 317 -26 273 -26 c 0,10,11
 246 -26 246 -26 231 -19.5 c 128,-1,12
 216 -13 216 -13 195 7 c 0,13,14
 161 39 161 39 140 103 c 128,-1,15
 119 167 119 167 119 236 c 0,16,17
 119 347 119 347 187.5 460.5 c 128,-1,18
 256 574 256 574 339 624 c 0,19,20
 408 666 408 666 428 666 c 0,21,22
 441 666 441 666 474.5 693 c 128,-1,23
 508 720 508 720 525 720 c 0,24,25
 544 720 544 720 559.5 733.5 c 128,-1,26
 575 747 575 747 599 747 c 0,27,28
 657 747 657 747 688.5 702.5 c 128,-1,29
 720 658 720 658 720 578 c 0,0,1
563 265 m 0,30,31
 578 307 578 307 603 362 c 128,-1,32
 628 417 628 417 643 453 c 128,-1,33
 658 489 658 489 658 508 c 0,34,35
 658 541 658 541 643 589 c 128,-1,36
 628 637 628 637 620 642 c 0,37,38
 609 650 609 650 584 650 c 0,39,40
 540 650 540 650 465 627 c 0,41,42
 386 604 386 604 324.5 539 c 128,-1,43
 263 474 263 474 225 374 c 0,44,45
 195 296 195 296 195 260 c 0,46,47
 195 236 195 236 201 193 c 0,48,49
 223 42 223 42 316 42 c 0,50,51
 341 42 341 42 374 54 c 0,52,53
 412 68 412 68 479 142 c 128,-1,54
 546 216 546 216 563 265 c 0,30,31
EndSplineSet
EndChar

StartChar: P
Encoding: 80 80 59
Width: 651
Flags: W
HStem: 333 76<311.009 436.369> 732 80<403.779 628.934>
VStem: 676 70<612.433 749>
LayerCount: 3
Fore
SplineSet
746 709 m 0
 746 647 695 527 675 527 c 0
 667 527 660 519 658 508 c 0
 651 477 522 378 474 368 c 1
 403 349 437 333 355 333 c 2
 296 333 l 1
 268 153 l 2
 249 28 233 -31 218 -48 c 0
 205 -62 193 -68 185 -68 c 0
 173 -68 166 -57 166 -33 c 0
 166 21 227 451 250 558 c 2
 272 665 l 1
 238 644 l 2
 223 635 209 630 200 630 c 0
 194 630 185 637 185 649 c 0
 185 668 208 696 262 742 c 0
 312 785 331 798 355 798 c 0
 369 798 372 795 398 795 c 0
 461 795 496 812 557 812 c 0
 564 812 569 812 574 811 c 0
 677 797 746 789 746 709 c 0
311 434 m 0
 311 411 312 409 335 409 c 0
 377 409 468 431 518 456 c 0
 547 471 573 494 578 510 c 0
 596 562 676 600 676 655 c 0
 676 685 651 708 600 720 c 0
 567 728 550 732 530 732 c 0
 509 732 484 727 434 717 c 0
 360 703 350 694 334 617 c 0
 321 558 311 473 311 434 c 0
EndSplineSet
Validated: 1
Layer: 2
SplineSet
746 709 m 0,0,1
 746 664 746 664 718.5 595.5 c 128,-1,2
 691 527 691 527 675 527 c 0,3,4
 661 527 661 527 658 508 c 0,5,6
 653 485 653 485 581.5 430 c 128,-1,7
 510 375 510 375 474 368 c 0,8,9
 447 361 447 361 432.5 351.5 c 128,-1,10
 418 342 418 342 404.5 337.5 c 128,-1,11
 391 333 391 333 355 333 c 2,12,-1
 296 333 l 1,13,-1
 268 153 l 2,14,15
 241 -21 241 -21 218 -48 c 0,16,17
 199 -68 199 -68 185 -68 c 0,18,19
 166 -68 166 -68 166 -33 c 0,20,21
 166 8 166 8 199.5 243 c 128,-1,22
 233 478 233 478 250 558 c 2,23,-1
 272 665 l 1,24,-1
 238 644 l 2,25,26
 215 630 215 630 200 630 c 0,27,28
 195 630 195 630 190 635.5 c 128,-1,29
 185 641 185 641 185 649 c 0,30,31
 185 676 185 676 262 742 c 0,32,33
 301 775 301 775 319.5 786.5 c 128,-1,34
 338 798 338 798 355 798 c 0,35,36
 360 798 360 798 372 796.5 c 128,-1,37
 384 795 384 795 398 795 c 0,38,39
 430 795 430 795 478.5 803.5 c 128,-1,40
 527 812 527 812 557 812 c 0,41,42
 569 812 569 812 574 811 c 0,43,44
 609 806 609 806 623.5 804 c 128,-1,45
 638 802 638 802 663.5 796.5 c 128,-1,46
 689 791 689 791 699.5 784.5 c 128,-1,47
 710 778 710 778 723.5 768 c 128,-1,48
 737 758 737 758 741.5 743.5 c 128,-1,49
 746 729 746 729 746 709 c 0,0,1
311 434 m 0,50,51
 311 417 311 417 314.5 413 c 128,-1,52
 318 409 318 409 335 409 c 0,53,54
 367 409 367 409 424 423.5 c 128,-1,55
 481 438 481 438 518 456 c 0,56,57
 569 483 569 483 578 510 c 0,58,59
 586 532 586 532 631 578.5 c 128,-1,60
 676 625 676 625 676 655 c 0,61,62
 676 702 676 702 600 720 c 0,63,64
 551 732 551 732 530 732 c 128,-1,65
 509 732 509 732 434 717 c 0,66,67
 378 706 378 706 362 690 c 128,-1,68
 346 674 346 674 334 617 c 0,69,70
 311 513 311 513 311 434 c 0,50,51
EndSplineSet
EndChar

StartChar: Q
Encoding: 81 81 60
Width: 761
Flags: W
HStem: -55 78<222.146 378.154> -18 21G<712.5 727> 661 98<508 717>
VStem: 99 76<79.2555 309.047> 707 62<493.085 641>
DStem2: 609 177 551 106 0.763685 -0.645589<1.54311 156.094>
LayerCount: 3
Fore
SplineSet
738 -0 m 0xb8
 738 -9 734 -18 720 -18 c 0x78
 705 -18 665 5 648 24 c 0
 641 31 617 51 593 71 c 2
 551 106 l 1
 524 74 l 2
 455 -9 360 -55 277 -55 c 0
 230 -55 186 -40 154 -8 c 0
 123 23 99 118 99 198 c 0
 99 304 170 460 232 547 c 0
 329 685 459 743 689 759 c 1
 745 759 769 665 769 617 c 0
 769 520 713 379 661 279 c 2
 609 177 l 1
 638 151 l 2
 696 98 738 32 738 -0 c 0xb8
556 237 m 0
 574 237 707 496 707 555 c 0
 707 580 696 597 678 620 c 0
 654 652 643 661 524 661 c 0
 492 661 465 659 458 657 c 0
 410 641 277 526 270 494 c 0
 267 482 258 465 249 457 c 0
 235 445 175 264 175 192 c 0
 175 176 177 159 180 138 c 0
 195 52 225 23 297 23 c 0xb8
 386 23 498 102 498 140 c 0
 498 158 460 209 404 260 c 0
 388 274 381 282 381 289 c 0
 381 298 407 324 421 324 c 0
 449 324 535 237 556 237 c 0
EndSplineSet
Validated: 1
Layer: 2
SplineSet
738 -0 m 0,0,1
 738 -18 738 -18 720 -18 c 0,2,3
 709 -18 709 -18 685 -4 c 128,-1,4
 661 10 661 10 648 24 c 0,5,6
 641 31 641 31 593 71 c 2,7,-1
 551 106 l 1,8,-1
 524 74 l 2,9,10
 473 13 473 13 407 -21 c 128,-1,11
 341 -55 341 -55 277 -55 c 0,12,13
 201 -55 201 -55 154 -8 c 0,14,15
 131 15 131 15 115 76 c 128,-1,16
 99 137 99 137 99 198 c 0,17,18
 99 273 99 273 140 374 c 128,-1,19
 181 475 181 475 232 547 c 0,20,21
 304 650 304 650 409.5 698.5 c 128,-1,22
 515 747 515 747 689 759 c 0,23,24
 715 759 715 759 734 732.5 c 128,-1,25
 753 706 753 706 761 675 c 128,-1,26
 769 644 769 644 769 617 c 0,27,28
 769 487 769 487 661 279 c 2,29,-1
 609 177 l 1,30,-1
 638 151 l 2,31,32
 681 112 681 112 709.5 68 c 128,-1,33
 738 24 738 24 738 -0 c 0,0,1
556 237 m 0,34,35
 571 237 571 237 639 375.5 c 128,-1,36
 707 514 707 514 707 555 c 0,37,38
 707 583 707 583 678 620 c 0,39,40
 659 646 659 646 634 653.5 c 128,-1,41
 609 661 609 661 524 661 c 0,42,43
 472 661 472 661 458 657 c 0,44,45
 422 645 422 645 348.5 581.5 c 128,-1,46
 275 518 275 518 270 494 c 0,47,48
 264 470 264 470 249 457 c 0,49,50
 237 446 237 446 206 343.5 c 128,-1,51
 175 241 175 241 175 192 c 0,52,53
 175 173 175 173 180 138 c 0,54,55
 191 74 191 74 217 48.5 c 128,-1,56
 243 23 243 23 297 23 c 0,57,58
 360 23 360 23 429 66 c 128,-1,59
 498 109 498 109 498 140 c 0,60,61
 498 154 498 154 471.5 188.5 c 128,-1,62
 445 223 445 223 404 260 c 0,63,64
 381 280 381 280 381 289 c 0,65,66
 381 296 381 296 396 310 c 128,-1,67
 411 324 411 324 421 324 c 0,68,69
 436 324 436 324 491 280.5 c 128,-1,70
 546 237 546 237 556 237 c 0,34,35
EndSplineSet
EndChar

StartChar: R
Encoding: 82 82 61
Width: 636
Flags: W
HStem: 57 105<529.508 572.146> 666 75<344 521.649>
VStem: 178 62<-19.7304 71.1818> 260 52<391.562 561.822> 617 61<576.328 649.547>
LayerCount: 3
Fore
SplineSet
188 615 m 0
 188 646 305 741 317 741 c 0
 368 741 596 712 627 701 c 0
 661 690 678 666 678 633 c 0
 678 530 531 430 527 413 c 0
 525 404 410 338 345 308 c 0
 339 305 304 288 304 283 c 0
 304 277 438 240 495 194 c 0
 517 176 539 162 544 162 c 0
 562 161 604 105 604 84 c 1
 604 84 602 57 581 57 c 0
 542 57 462 132 345 182 c 2
 273 213 l 1
 240 33 l 2
 233 0 230 -24 201 -24 c 0
 186 -24 178 -11 178 17 c 0
 178 68 200 128 200 188 c 0
 200 265 156 237 156 275 c 0
 156 290 169 306 193 316 c 2
 229 331 l 1
 246 445 l 2
 256 510 260 552 260 577 c 0
 260 598 257 607 250 607 c 0
 240 607 235 593 213 593 c 0
 199 593 188 601 188 615 c 0
617 620 m 0
 617 634 493 666 416 666 c 2
 344 666 l 1
 339 612 l 2
 335 564 312 396 312 368 c 0
 312 365 313 364 313 364 c 1
 332 364 452 423 490 452 c 0
 540 489 617 600 617 620 c 0
EndSplineSet
Validated: 1
Layer: 2
SplineSet
188 615 m 0,0,1
 188 636 188 636 246.5 688.5 c 128,-1,2
 305 741 305 741 317 741 c 0,3,4
 356 741 356 741 480 725 c 128,-1,5
 604 709 604 709 627 701 c 0,6,7
 678 684 678 684 678 633 c 0,8,9
 678 598 678 598 655 558 c 128,-1,10
 632 518 632 518 604 490.5 c 128,-1,11
 576 463 576 463 552 440 c 128,-1,12
 528 417 528 417 527 413 c 0,13,14
 526 406 526 406 460 368.5 c 128,-1,15
 394 331 394 331 345 308 c 0,16,17
 304 288 304 288 304 283 c 0,18,19
 304 281 304 281 339 268.5 c 128,-1,20
 374 256 374 256 422 235 c 128,-1,21
 470 214 470 214 495 194 c 0,22,23
 534 162 534 162 544 162 c 0,24,25
 557 161 557 161 580.5 130.5 c 128,-1,26
 604 100 604 100 604 84 c 0,27,28
 602 57 602 57 581 57 c 0,29,30
 565 57 565 57 532 76.5 c 128,-1,31
 499 96 499 96 446 128.5 c 128,-1,32
 393 161 393 161 345 182 c 2,33,-1
 273 213 l 1,34,-1
 240 33 l 2,35,36
 231.090936869 -8.99986904541 231.090936869 -8.99986904541 221.640034991 -17.2923166642 c 0,37,38
 213.057517077 -23.6876224544 213.057517077 -23.6876224544 201 -24 c 0,39,40
 178 -24 178 -24 178 17 c 0,41,42
 178 41 178 41 189 99 c 128,-1,43
 200 157 200 157 200 188 c 0,44,45
 200 214 200 214 193 228.5 c 128,-1,46
 186 243 186 243 178 246 c 128,-1,47
 170 249 170 249 163 256 c 128,-1,48
 156 263 156 263 156 275 c 0,49,50
 156 301 156 301 193 316 c 2,51,-1
 229 331 l 1,52,-1
 246 445 l 2,53,54
 260 536 260 536 260 577 c 0,55,56
 260 607 260 607 250 607 c 0,57,58
 246 607 246 607 235.5 600 c 128,-1,59
 225 593 225 593 213 593 c 0,60,61
 188 593 188 593 188 615 c 0,0,1
617 620 m 0,62,63
 617 631 617 631 544 648.5 c 128,-1,64
 471 666 471 666 416 666 c 2,65,-1
 344 666 l 1,66,-1
 339 612 l 2,67,68
 337 593 337 593 324.5 488.5 c 128,-1,69
 312 384 312 384 312 368 c 2,70,-1
 313 364 l 1,71,72
 327 364 327 364 394.5 397.5 c 128,-1,73
 462 431 462 431 490 452 c 0,74,75
 525 478 525 478 571 541 c 128,-1,76
 617 604 617 604 617 620 c 0,62,63
EndSplineSet
EndChar

StartChar: S
Encoding: 83 83 62
Width: 579
Flags: W
HStem: 681 54<411.42 584.204>
VStem: 118 53<74.237 152.02> 165 78<443.355 538.203> 487 68<154.257 256.528>
LayerCount: 3
Fore
SplineSet
118 102 m 0xd0
 118 165 149 215 199 215 c 0
 210 215 216 207 216 196 c 0
 216 154 171 152 171 116 c 0xd0
 171 111 171 107 173 101 c 0
 180 71 188 69 269 69 c 0
 338 69 365 76 403 99 c 0
 463 136 472 147 483 200 c 0
 485 210 487 217 487 224 c 0
 487 245 473 254 429 277 c 0
 394 295 357 309 347 309 c 0
 291 309 165 437 165 490 c 0
 165 536 265 665 389 718 c 0
 411 728 462 735 521 735 c 0
 577 735 596 729 622 703 c 0
 639 686 652 661 652 646 c 0
 652 636 647 618 639 618 c 0
 613 618 598 681 508 681 c 0
 369 681 243 544 243 481 c 0xb0
 243 433 353 388 423 364 c 0
 510 335 555 291 555 233 c 0
 555 201 543 173 533 154 c 0
 480 50 417 19 231 7 c 2
 140 1 l 1
 125 57 l 2
 120 73 118 87 118 102 c 0xd0
EndSplineSet
Validated: 1
Layer: 2
SplineSet
118 102 m 0,0,1
 118 150 118 150 140 182.5 c 128,-1,2
 162 215 162 215 199 215 c 0,3,4
 216 215 216 215 216 196 c 0,5,6
 216 174 216 174 193.5 153.5 c 128,-1,7
 171 133 171 133 171 116 c 0,8,9
 171 107 171 107 173 101 c 0,10,11
 178 79 178 79 193 74 c 128,-1,12
 208 69 208 69 269 69 c 0,13,14
 320 69 320 69 347 75 c 128,-1,15
 374 81 374 81 403 99 c 0,16,17
 448 127 448 127 461.5 143.5 c 128,-1,18
 475 160 475 160 483 200 c 0,19,20
 487 220 487 220 487 224 c 0,21,22
 487 239 487 239 475.5 249 c 128,-1,23
 464 259 464 259 429 277 c 0,24,25
 367 309 367 309 347 309 c 0,26,27
 305 309 305 309 235 379.5 c 128,-1,28
 165 450 165 450 165 490 c 0,29,30
 165 529 165 529 234 605 c 128,-1,31
 303 681 303 681 389 718 c 0,32,33
 426 735 426 735 521 735 c 0,34,35
 563 735 563 735 583 728.5 c 128,-1,36
 603 722 603 722 622 703 c 0,37,38
 652 673 652 673 652 646 c 0,39,40
 652 637 652 637 648 627.5 c 128,-1,41
 644 618 644 618 639 618 c 0,42,43
 631 618 631 618 620 628 c 128,-1,44
 609 638 609 638 597.5 649.5 c 128,-1,45
 586 661 586 661 562.5 671 c 128,-1,46
 539 681 539 681 508 681 c 0,47,48
 412 681 412 681 327.5 608 c 128,-1,49
 243 535 243 535 243 481 c 0,50,51
 243 426 243 426 423 364 c 0,52,53
 555 320 555 320 555 233 c 0,54,55
 555 196 555 196 533 154 c 0,56,57
 493 76 493 76 431.5 46 c 128,-1,58
 370 16 370 16 231 7 c 2,59,-1
 140 1 l 1,60,-1
 125 57 l 2,61,62
 118 79 118 79 118 102 c 0,0,1
EndSplineSet
EndChar

StartChar: T
Encoding: 84 84 63
Width: 832
Flags: W
HStem: 689 78<723.023 946.351>
VStem: 490 63<-41.8624 177.936> 551 73<369.051 639.516>
LayerCount: 3
Fore
SplineSet
551 578 m 0xa0
 551 636 543 640 520 640 c 0
 496 640 412 620 353 620 c 0
 295 620 262 604 233 604 c 0
 203 604 180 615 180 632 c 0
 180 676 269 662 723 746 c 0
 800 760 842 767 871 767 c 0
 908 767 957 750 957 728 c 0
 957 705 908 689 854 689 c 0
 818 689 752 681 708 671 c 2
 627 653 l 1
 624 569 l 2xa0
 619 434 560 106 553 24 c 1
 549 -10 550 -46 514 -46 c 0
 498 -46 490 -30 490 12 c 0xc0
 490 132 551 408 551 578 c 0xa0
EndSplineSet
Validated: 1
Layer: 2
SplineSet
551 578 m 0,0,1
 551 619 551 619 545 629.5 c 128,-1,2
 539 640 539 640 520 640 c 0,3,4
 512 640 512 640 449.5 630 c 128,-1,5
 387 620 387 620 353 620 c 0,6,7
 320 620 320 620 282 612 c 128,-1,8
 244 604 244 604 233 604 c 0,9,10
 210 604 210 604 195 611.5 c 128,-1,11
 180 619 180 619 180 632 c 0,12,13
 180 651 180 651 209.5 659.5 c 128,-1,14
 239 668 239 668 347.235486856 683.959188223 c 0,15,16
 550 714 550 714 723 746 c 0,17,18
 839 767 839 767 871 767 c 0,19,20
 901 767 901 767 929 755.5 c 128,-1,21
 957 744 957 744 957 728 c 0,22,23
 957 711 957 711 926.5 700 c 128,-1,24
 896 689 896 689 854 689 c 0,25,26
 787 689 787 689 708 671 c 2,27,-1
 627 653 l 1,28,-1
 624 569 l 2,29,30
 621 490 621 490 588 268 c 128,-1,31
 555 46 555 46 553 24 c 0,32,33
 553 21 553 21 551.5 10 c 128,-1,34
 550 -1 550 -1 549.5 -5 c 128,-1,35
 549 -9 549 -9 547.5 -17.5 c 128,-1,36
 546 -26 546 -26 543.5 -29.5 c 128,-1,37
 541 -33 541 -33 537 -38 c 128,-1,38
 533 -43 533 -43 527 -44.5 c 128,-1,39
 521 -46 521 -46 514 -46 c 0,40,41
 490 -46 490 -46 490 12 c 0,42,43
 490 66 490 66 520.5 276.5 c 128,-1,44
 551 487 551 487 551 578 c 0,0,1
EndSplineSet
EndChar

StartChar: U
Encoding: 85 85 64
Width: 677
Flags: W
HStem: -11 70<266.32 382.467>
VStem: 176 80<68.0412 397.775> 236 69<542.661 726.825> 662 90<584.897 734.906> 674 78<491.788 727.766>
LayerCount: 3
Fore
SplineSet
662 722 m 0x90
 662 761 701 762 703 762 c 0
 748 762 732 649 750 620 c 0
 751 619 752 615 752 610 c 0
 752 593 746 557 738 519 c 0
 642 80 378 -11 316 -11 c 0
 277 -11 219 13 195 42 c 0
 181 59 176 101 176 157 c 0xd0
 176 316 219 584 236 663 c 0
 247 714 255 728 268 737 c 0
 278 744 286 748 292 748 c 0
 301 748 305 739 305 718 c 0xa0
 305 679 256 367 256 149 c 0
 256 118 258 97 261 90 c 0
 270 69 286 59 310 59 c 0
 334 59 366 70 407 93 c 0
 497 143 551 210 611 341 c 0
 642 407 674 486 674 582 c 0xc8
 674 644 662 693 662 722 c 0x90
EndSplineSet
Validated: 1
Layer: 2
SplineSet
662 722 m 0,0,1
 662 733 662 733 666 741 c 128,-1,2
 670 749 670 749 675.5 753 c 128,-1,3
 681 757 681 757 688 759 c 128,-1,4
 695 761 695 761 698 761.5 c 128,-1,5
 701 762 701 762 703 762 c 0,6,7
 723 762 723 762 730.5 733.5 c 128,-1,8
 738 705 738 705 740.5 668 c 128,-1,9
 743 631 743 631 750 620 c 0,10,11
 752 618 752 618 752 610 c 0,12,13
 752 586 752 586 738 519 c 0,14,15
 711 395 711 395 663 296 c 128,-1,16
 615 197 615 197 566 142 c 128,-1,17
 517 87 517 87 463.5 50 c 128,-1,18
 410 13 410 13 374.5 1 c 128,-1,19
 339 -11 339 -11 316 -11 c 0,20,21
 286 -11 286 -11 249.5 5 c 128,-1,22
 213 21 213 21 195 42 c 0,23,24
 176 65 176 65 176 157 c 0,25,26
 176 262 176 262 197 421.5 c 128,-1,27
 218 581 218 581 236 663 c 0,28,29
 249 724 249 724 268 737 c 0,30,31
 284 748 284 748 292 748 c 0,32,33
 305 748 305 748 305 718 c 0,34,35
 305 707 305 707 292.5 609 c 128,-1,36
 280 511 280 511 268 378 c 128,-1,37
 256 245 256 245 256 149 c 0,38,39
 256 102 256 102 261 90 c 0,40,41
 274 59 274 59 310 59 c 128,-1,42
 346 59 346 59 407 93 c 0,43,44
 474 130 474 130 520 186 c 128,-1,45
 566 242 566 242 611 341 c 0,46,47
 674 475 674 475 674 582 c 0,48,49
 674 617 674 617 668 664.5 c 128,-1,50
 662 712 662 712 662 722 c 0,0,1
EndSplineSet
EndChar

StartChar: V
Encoding: 86 86 65
Width: 742
Flags: W
HStem: 5 124<366 424.449>
VStem: 244 70<550.222 669.432>
LayerCount: 3
Fore
SplineSet
212 709 m 0
 212 745 250 770 265 770 c 0
 295 770 290 705 309 705 c 0
 319 705 314 682 314 676 c 0
 314 641 339 559 363 382 c 0
 383 228 403 129 414 129 c 0
 425 129 552 334 600 430 c 0
 663 557 785 757 814 757 c 0
 821 757 847 753 847 729 c 0
 847 687 743 538 648 362 c 0
 620 312 557 213 507 138 c 0
 434 30 411 5 388 5 c 0
 344 5 335 27 311 183 c 2
 266 464 l 2
 254 536 244 600 244 612 c 0
 244 645 212 669 212 709 c 0
EndSplineSet
Validated: 1
Layer: 2
SplineSet
212 709 m 0,0,1
 212 733 212 733 231.5 751.5 c 128,-1,2
 251 770 251 770 265 770 c 0,3,4
 281 770 281 770 291 737.5 c 128,-1,5
 301 705 301 705 309 705 c 0,6,7
 312 705 312 705 313.5 702.5 c 128,-1,8
 315 700 315 700 315 696.5 c 128,-1,9
 315 693 315 693 315 689 c 128,-1,10
 315 685 315 685 314.5 681 c 128,-1,11
 314 677 314 677 314 676 c 0,12,13
 314 662 314 662 321 627.5 c 128,-1,14
 328 593 328 593 340.5 525 c 128,-1,15
 353 457 353 457 363 382 c 0,16,17
 396 129 396 129 414 129 c 0,18,19
 422 129 422 129 493 243.5 c 128,-1,20
 564 358 564 358 600 430 c 0,21,22
 652 535 652 535 723 646 c 128,-1,23
 794 757 794 757 814 757 c 0,24,25
 819 757 819 757 826 755.5 c 128,-1,26
 833 754 833 754 840 747 c 128,-1,27
 847 740 847 740 847 729 c 0,28,29
 847 710 847 710 820 661 c 128,-1,30
 793 612 793 612 738 519.5 c 128,-1,31
 683 427 683 427 648 362 c 0,32,33
 604 284 604 284 507 138 c 0,34,35
 453 58 453 58 429 31.5 c 128,-1,36
 405 5 405 5 388 5 c 0,37,38
 355 5 355 5 342 35.5 c 128,-1,39
 329 66 329 66 311 183 c 2,40,-1
 266 464 l 2,41,42
 244 596 244 596 244 612 c 128,-1,43
 244 628 244 628 228 658 c 128,-1,44
 212 688 212 688 212 709 c 0,0,1
EndSplineSet
EndChar

StartChar: W
Encoding: 87 87 66
Width: 878
Flags: W
HStem: -42 197<216 290> 35 158<653.54 708.41>
VStem: 203 69<155.046 558.348 606.71 654.396>
LayerCount: 3
Fore
SplineSet
272 422 m 0xa0
 272 360 271 324 271 299 c 0
 271 218 276 155 282 155 c 0xa0
 298 155 439 433 475 480 c 0
 490 501 509 511 527 511 c 0
 587 511 652 407 670 258 c 0
 673 233 681 193 690 193 c 0
 704 193 757 302 768 354 c 0
 775 389 940 794 953 794 c 0
 979 794 993 789 993 766 c 0
 993 731 955 643 934 591 c 2
 826 331 l 1
 737 114 734 134 724 85 c 0
 717 52 698 35 679 35 c 0x60
 629 35 637 125 617 125 c 0
 612 125 606 144 606 167 c 0
 606 230 569 360 542 392 c 2
 518 421 l 1
 473 346 l 2
 260 -9 277 -42 228 -42 c 0
 204 -42 198 -32 198 19 c 2
 198 93 l 2
 198 231 203 317 203 393 c 0
 203 450 200 468 200 487 c 0
 200 537 207 545 207 559 c 0
 207 578 194 574 194 606 c 0
 194 621 197 645 205 682 c 0
 212 714 219 724 231 724 c 0
 261 724 272 651 272 422 c 0xa0
EndSplineSet
Validated: 1
Layer: 2
SplineSet
272 422 m 0,0,1
 272 386 272 386 271.5 346.5 c 128,-1,2
 271 307 271 307 271 299 c 0,3,4
 271 155 271 155 282 155 c 0,5,6
 289 155 289 155 329 225.5 c 128,-1,7
 369 296 369 296 415 378.5 c 128,-1,8
 461 461 461 461 475 480 c 0,9,10
 497 511 497 511 527 511 c 0,11,12
 573 511 573 511 615 439 c 128,-1,13
 657 367 657 367 670 258 c 0,14,15
 678 193 678 193 690 193 c 0,16,17
 701 193 701 193 730.5 254 c 128,-1,18
 760 315 760 315 768 354 c 0,19,20
 774 383 774 383 859 588.5 c 128,-1,21
 944 794 944 794 953 794 c 0,22,23
 974 794 974 794 983.5 788 c 128,-1,24
 993 782 993 782 993 766 c 0,25,26
 993 737 993 737 934 591 c 2,27,-1
 826 331 l 2,28,29
 797 260 797 260 774.5 209.5 c 128,-1,30
 752 159 752 159 744.5 143.5 c 128,-1,31
 737 128 737 128 732.5 115 c 128,-1,32
 728 102 728 102 724 85 c 0,33,34
 719 61 719 61 706.5 48 c 128,-1,35
 694 35 694 35 679 35 c 0,36,37
 657 35 657 35 646 57.5 c 128,-1,38
 635 80 635 80 629.5 102.5 c 128,-1,39
 624 125 624 125 617 125 c 0,40,41
 613 125 613 125 609.5 137.5 c 128,-1,42
 606 150 606 150 606 167 c 0,43,44
 606 214 606 214 584 291 c 128,-1,45
 562 368 562 368 542 392 c 2,46,-1
 518 421 l 1,47,-1
 473 346 l 2,48,49
 440 291 440 291 410.5 239.5 c 128,-1,50
 381 188 381 188 362 153.5 c 128,-1,51
 343 119 343 119 326 88 c 128,-1,52
 309 57 309 57 299.5 38 c 128,-1,53
 290 19 290 19 280.5 3 c 128,-1,54
 271 -13 271 -13 266 -20.5 c 128,-1,55
 261 -28 261 -28 254.5 -33.5 c 128,-1,56
 248 -39 248 -39 242.5 -40.5 c 128,-1,57
 237 -42 237 -42 228 -42 c 0,58,59
 210 -42 210 -42 204 -30.5 c 128,-1,60
 198 -19 198 -19 198 19 c 2,61,-1
 198 93 l 2,62,63
 198 170 198 170 200.5 266.5 c 128,-1,64
 203 363 203 363 203 393 c 0,65,66
 203 426 203 426 201.5 454 c 128,-1,67
 200 482 200 482 200 487 c 0,68,69
 200 516 200 516 203.5 536 c 128,-1,70
 207 556 207 556 207 559 c 0,71,72
 207 567 207 567 200.5 577.5 c 128,-1,73
 194 588 194 588 194 606 c 0,74,75
 194 631 194 631 205 682 c 0,76,77
 214 724 214 724 231 724 c 0,78,79
 254 724 254 724 263 658 c 128,-1,80
 272 592 272 592 272 422 c 0,0,1
EndSplineSet
EndChar

StartChar: X
Encoding: 88 88 67
Width: 761
Flags: W
DStem2: 538 374 481 297 0.601023 -0.799232<27.2826 312.66>
LayerCount: 3
Fore
SplineSet
163 -9 m 0
 163 34 422 329 422 367 c 0
 422 438 198 669 198 734 c 0
 198 747 212 760 223 760 c 0
 246 760 284 720 372 612 c 0
 440 529 497 461 498 461 c 0
 499 461 526 493 558 532 c 0
 625 614 746 721 772 721 c 0
 787 721 795 716 795 706 c 0
 795 685 763 647 711 602 c 0
 691 585 645 527 608 473 c 2
 538 374 l 1
 572 326 l 2
 634 239 739 145 739 93 c 0
 739 62 695 54 689 54 c 0
 666 54 644 81 575 172 c 2
 481 297 l 1
 438 246 l 2
 365 158 310 72 297 65 c 1
 274 46 238 -30 186 -30 c 0
 167 -30 163 -16 163 -9 c 0
EndSplineSet
Validated: 1
Layer: 2
SplineSet
163 -9 m 0,0,1
 163 13 163 13 292.5 181 c 128,-1,2
 422 349 422 349 422 367 c 0,3,4
 422 397 422 397 366 475 c 128,-1,5
 310 553 310 553 254 630 c 128,-1,6
 198 707 198 707 198 734 c 0,7,8
 198 744 198 744 206 752 c 128,-1,9
 214 760 214 760 223 760 c 0,10,11
 240 760 240 760 272 727.5 c 128,-1,12
 304 695 304 695 372 612 c 0,13,14
 496 461 496 461 498 461 c 128,-1,15
 500 461 500 461 558 532 c 0,16,17
 608 594 608 594 680.5 657.5 c 128,-1,18
 753 721 753 721 772 721 c 0,19,20
 795 721 795 721 795 706 c 0,21,22
 795 675 795 675 711 602 c 0,23,24
 676 572 676 572 608 473 c 2,25,-1
 538 374 l 1,26,-1
 572 326 l 2,27,28
 594 296 594 296 640 243 c 128,-1,29
 686 190 686 190 712.5 153 c 128,-1,30
 739 116 739 116 739 93 c 0,31,32
 739 73 739 73 719.5 63.5 c 128,-1,33
 700 54 700 54 689 54 c 0,34,35
 673 54 673 54 651.5 76.5 c 128,-1,36
 630 99 630 99 575 172 c 2,37,-1
 481 297 l 1,38,-1
 438 246 l 2,39,40
 408 209 408 209 374 163.5 c 128,-1,41
 340 118 340 118 321 93 c 128,-1,42
 302 68 302 68 297 65 c 0,43,44
 291 60 291 60 271.5 33.5 c 128,-1,45
 252 7 252 7 230.5 -11.5 c 128,-1,46
 209 -30 209 -30 186 -30 c 128,-1,47
 163 -30 163 -30 163 -9 c 0,0,1
EndSplineSet
EndChar

StartChar: Y
Encoding: 89 89 68
Width: 730
Flags: W
LayerCount: 3
Fore
SplineSet
223 715 m 0
 223 733 240 747 251 747 c 0
 273 747 310 704 428 553 c 0
 481 485 533 430 543 430 c 0
 582 430 621 506 738 657 c 0
 774 704 769 784 802 784 c 0
 806 784 845 769 845 747 c 0
 845 677 671 442 603 376 c 0
 547 322 560 329 430 122 c 2
 308 -72 l 2
 295 -93 279 -104 265 -104 c 0
 251 -104 236 -90 236 -72 c 0
 236 -49 268 4 407 210 c 2
 492 336 l 1
 363 504 l 2
 259 639 223 687 223 715 c 0
EndSplineSet
Validated: 1
Layer: 2
SplineSet
223 715 m 0,0,1
 223 728 223 728 232.5 737.5 c 128,-1,2
 242 747 242 747 251 747 c 0,3,4
 267 747 267 747 302 708.5 c 128,-1,5
 337 670 337 670 428 553 c 0,6,7
 467 503 467 503 501 466.5 c 128,-1,8
 535 430 535 430 543 430 c 0,9,10
 554 430 554 430 566 438 c 128,-1,11
 578 446 578 446 595.5 467.5 c 128,-1,12
 613 489 613 489 629.5 511 c 128,-1,13
 646 533 646 533 677.5 576.5 c 128,-1,14
 709 620 709 620 738 657 c 0,15,16
 750 672 750 672 758.5 696 c 128,-1,17
 767 720 767 720 771 738.5 c 128,-1,18
 775 757 775 757 783 770.5 c 128,-1,19
 791 784 791 784 802 784 c 0,20,21
 809 784 809 784 827 772.5 c 128,-1,22
 845 761 845 761 845 747 c 0,23,24
 845 699 845 699 754 567 c 128,-1,25
 663 435 663 435 603 376 c 0,26,27
 585 359 585 359 576.5 350 c 128,-1,28
 568 341 568 341 554.5 321.5 c 128,-1,29
 541 302 541 302 531.5 286.5 c 128,-1,30
 522 271 522 271 491.5 221.5 c 128,-1,31
 461 172 461 172 430 122 c 2,32,-1
 308 -72 l 2,33,34
 288 -104 288 -104 265 -104 c 0,35,36
 254 -104 254 -104 245 -94.5 c 128,-1,37
 236 -85 236 -85 236 -72 c 0,38,39
 236 -55 236 -55 269.5 0.5 c 128,-1,40
 303 56 303 56 407 210 c 2,41,-1
 492 336 l 1,42,-1
 363 504 l 2,43,44
 278 615 278 615 250.5 655 c 128,-1,45
 223 695 223 695 223 715 c 0,0,1
EndSplineSet
EndChar

StartChar: Z
Encoding: 90 90 69
Width: 932
Flags: W
HStem: -3 71<294.309 580.762> 33 74<571.627 806.04> 68 70<801.059 912.922> 559 21G<200 214.5> 641 71<472.692 727.114>
VStem: 232 113<23.5 114> 728 78<588.629 674>
LayerCount: 3
Fore
SplineSet
926 120 m 0x3e
 926 87 890 68 858 68 c 0x3e
 801 68 805 33 705 33 c 1x5e
 582 30 535 -3 378 -3 c 0
 260 -3 232 12 232 35 c 0
 232 60 265 82 270 105 c 0
 273 120 394 264 408 269 c 0
 414 272 419 279 421 288 c 0
 424 301 519 390 604 460 c 0
 637 487 728 594 728 625 c 0
 728 639 708 641 621 641 c 0
 462 641 462 616 322 593 c 0
 278 585 237 574 232 567 c 0
 227 561 219 559 210 559 c 0
 190 559 166 572 166 586 c 0
 166 625 476 712 691 712 c 0
 774 712 806 694 806 654 c 0
 806 589 705 473 671 444 c 0
 536 332 345 128 345 100 c 0
 345 80 390 68 447 68 c 0x9e
 561 68 575 101 715 107 c 1x5e
 832 110 776 119 869 135 c 0
 883 137 894 138 902 138 c 0
 915 138 926 135 926 120 c 0x3e
EndSplineSet
Validated: 1
Layer: 2
SplineSet
926 120 m 0,0,1
 926 97 926 97 905 82.5 c 128,-1,2
 884 68 884 68 858 68 c 0,3,4
 835 68 835 68 797.5 50.5 c 128,-1,5
 760 33 760 33 705 33 c 0,6,7
 651 32 651 32 557 14.5 c 128,-1,8
 463 -3 463 -3 378 -3 c 0,9,10
 321 -3 321 -3 288 2 c 128,-1,11
 255 7 255 7 243.5 15 c 128,-1,12
 232 23 232 23 232 35 c 0,13,14
 232 49 232 49 250 72 c 128,-1,15
 268 95 268 95 270 105 c 0,16,17
 272 116 272 116 335 190.5 c 128,-1,18
 398 265 398 265 408 269 c 0,19,20
 418 274 418 274 421 288 c 0,21,22
 423 298 423 298 481.5 352.5 c 128,-1,23
 540 407 540 407 604 460 c 0,24,25
 633 484 633 484 680.5 544 c 128,-1,26
 728 604 728 604 728 625 c 0,27,28
 728 635 728 635 708 638 c 128,-1,29
 688 641 688 641 621 641 c 0,30,31
 550 641 550 641 509.5 634.5 c 128,-1,32
 469 628 469 628 421 614.5 c 128,-1,33
 373 601 373 601 322 593 c 0,34,35
 240 578 240 578 232 567 c 0,36,37
 225 559 225 559 210 559 c 128,-1,38
 195 559 195 559 180.5 567.5 c 128,-1,39
 166 576 166 576 166 586 c 0,40,41
 166 605 166 605 251 635 c 128,-1,42
 336 665 336 665 463 688.5 c 128,-1,43
 590 712 590 712 691 712 c 0,44,45
 753 712 753 712 779.5 698 c 128,-1,46
 806 684 806 684 806 654 c 0,47,48
 806 611 806 611 757 543 c 128,-1,49
 708 475 708 475 671 444 c 0,50,51
 571 361 571 361 458 241 c 128,-1,52
 345 121 345 121 345 100 c 0,53,54
 345 85 345 85 374 76.5 c 128,-1,55
 403 68 403 68 447 68 c 0,56,57
 504 68 504 68 574.5 86 c 128,-1,58
 645 104 645 104 715 107 c 0,59,60
 767 108 767 108 783.5 111.5 c 128,-1,61
 800 115 800 115 816.5 122 c 128,-1,62
 833 129 833 129 869 135 c 0,63,64
 890 138 890 138 902 138 c 0,65,66
 926 138 926 138 926 120 c 0,0,1
EndSplineSet
EndChar

StartChar: bracketleft
Encoding: 91 91 70
Width: 485
Flags: W
HStem: -65 60<226.605 365.887> 618 84<310 440>
VStem: 164 62<-43 149.493>
LayerCount: 3
Fore
SplineSet
215 -65 m 0
 171 -65 164 -64 164 -22 c 0
 164 61 210 268 237 503 c 0
 253 647 256 660 324 679 c 0
 381 695 418 702 440 702 c 0
 453 702 479 698 479 682 c 0
 479 652 448 648 414 644 c 0
 325 633 352 618 310 618 c 0
 300 618 294 616 294 613 c 0
 294 611 297 609 297 594 c 0
 297 492 226 73 226 28 c 0
 226 1 234 -5 255 -5 c 0
 272 -5 307 0 342 0 c 0
 362 0 376 -1 376 -17 c 0
 376 -33 367 -42 365 -44 c 0
 352 -57 269 -65 215 -65 c 0
EndSplineSet
Validated: 1
Layer: 2
SplineSet
215 -65 m 0,0,1
 181 -65 181 -65 172.5 -58.5 c 128,-1,2
 164 -52 164 -52 164 -22 c 0,3,4
 164 13 164 13 176 91 c 128,-1,5
 188 169 188 169 207 288 c 128,-1,6
 226 407 226 407 237 503 c 0,7,8
 249 613 249 613 261.5 639 c 128,-1,9
 274 665 274 665 324 679 c 0,10,11
 406 702 406 702 440 702 c 0,12,13
 479 702 479 702 479 682 c 0,14,15
 479 668 479 668 468.5 659.5 c 128,-1,16
 458 651 458 651 447 649 c 128,-1,17
 436 647 436 647 414 644 c 0,18,19
 365 638 365 638 346.5 628 c 128,-1,20
 328 618 328 618 310 618 c 0,21,22
 294 618 294 618 294 613 c 2,23,-1
 295 611 l 2,24,25
 296 609 296 609 296.5 605 c 128,-1,26
 297 601 297 601 297 594 c 0,27,28
 297 536 297 536 261.5 289.5 c 128,-1,29
 226 43 226 43 226 28 c 0,30,31
 226 8 226 8 232.5 1.5 c 128,-1,32
 239 -5 239 -5 255 -5 c 0,33,34
 261 -5 261 -5 291.5 -2.5 c 128,-1,35
 322 0 322 0 342 0 c 0,36,37
 360 0 360 0 368 -3 c 128,-1,38
 376 -6 376 -6 376 -17 c 0,39,40
 376 -33 376 -33 365 -44 c 0,41,42
 356 -53 356 -53 308 -59 c 128,-1,43
 260 -65 260 -65 215 -65 c 0,0,1
EndSplineSet
EndChar

StartChar: backslash
Encoding: 92 92 71
Width: 693
Flags: W
VStem: 190 64<598.876 668.487>
LayerCount: 3
Fore
SplineSet
190 644 m 0
 190 653 190 671 217 671 c 0
 235 671 254 661 254 646 c 0
 254 612 398 420 447 289 c 0
 457 263 469 236 475 229 c 0
 492 207 545 109 556 71 c 0
 570 25 588 4 588 -10 c 0
 588 -24 565 -37 552 -37 c 0
 534 -37 517 -18 505 19 c 0
 481 87 405 217 377 281 c 0
 323 406 224 524 221 554 c 0
 220 564 215 571 211 571 c 0
 202 571 190 617 190 644 c 0
EndSplineSet
Validated: 1
Layer: 2
SplineSet
190 644 m 0,0,1
 190 671 190 671 217 671 c 0,2,3
 231 671 231 671 242.5 664 c 128,-1,4
 254 657 254 657 254 646 c 0,5,6
 254 632 254 632 291 571.5 c 128,-1,7
 328 511 328 511 377 428 c 128,-1,8
 426 345 426 345 447 289 c 0,9,10
 466 239 466 239 475 229 c 0,11,12
 489 211 489 211 518.5 154.5 c 128,-1,13
 548 98 548 98 556 71 c 0,14,15
 562 52 562 52 570 34 c 128,-1,16
 578 16 578 16 583 6 c 128,-1,17
 588 -4 588 -4 588 -10 c 0,18,19
 588 -20 588 -20 575.5 -28.5 c 128,-1,20
 563 -37 563 -37 552 -37 c 0,21,22
 523 -37 523 -37 505 19 c 0,23,24
 491 58 491 58 439 158 c 128,-1,25
 387 258 387 258 377 281 c 0,26,27
 354 334 354 334 315 397 c 128,-1,28
 276 460 276 460 249 501 c 128,-1,29
 222 542 222 542 221 554 c 0,30,31
 219 571 219 571 211 571 c 0,32,33
 204 571 204 571 197 597 c 128,-1,34
 190 623 190 623 190 644 c 0,0,1
EndSplineSet
EndChar

StartChar: bracketright
Encoding: 93 93 72
Width: 538
Flags: W
HStem: -32 49<191.088 300.333> 609 63<310.81 397.444> 627 45<310.658 430.171>
VStem: 432 55<428.139 639.5>
DStem2: 335 32 382 -9 0.222155 0.975011<0 326.377>
LayerCount: 3
Fore
SplineSet
432 591 m 0xb0
 432 620 417 627 399 627 c 0xb0
 366 627 320 609 301 609 c 0xd0
 285 609 282 623 283 626 c 0
 285 636 324 662 347 667 c 0
 363 670 391 672 417 672 c 0
 448 672 476 670 481 666 c 0
 485 663 487 650 487 629 c 0
 487 547 456 341 411 127 c 2
 382 -9 l 1
 357 -20 l 1
 338 -27 286 -32 243 -32 c 0
 183 -32 172 -27 172 -20 c 0
 172 -6 210 2 270 17 c 1
 335 32 l 1
 360 143 l 2
 363 157 367 173 371 190 c 0
 400 326 432 538 432 591 c 0xb0
EndSplineSet
Validated: 1
Layer: 2
SplineSet
432 591 m 0,0,1
 432 627 432 627 399 627 c 0,2,3
 381 627 381 627 345 618 c 128,-1,4
 309 609 309 609 301 609 c 0,5,6
 294 609 294 609 289.5 612.5 c 128,-1,7
 285 616 285 616 283.5 620 c 128,-1,8
 282 624 282 624 283 626 c 0,9,10
 285 634 285 634 307.5 648.5 c 128,-1,11
 330 663 330 663 347 667 c 0,12,13
 374 672 374 672 417 672 c 0,14,15
 474 672 474 672 481 666 c 0,16,17
 487 662 487 662 487 629 c 0,18,19
 487 488 487 488 411 127 c 2,20,-1
 382 -9 l 1,21,-1
 357 -20 l 2,22,23
 324 -32 324 -32 243 -32 c 0,24,25
 172 -32 172 -32 172 -20 c 0,26,27
 172 -7 172 -7 254.094444242 13.0482640531 c 0,28,29
 265 16 265 16 270 17 c 2,30,-1
 335 32 l 1,31,-1
 360 143 l 2,32,33
 361 146 361 146 371 190 c 0,34,35
 393 291 393 291 412.5 421 c 128,-1,36
 432 551 432 551 432 591 c 0,0,1
EndSplineSet
EndChar

StartChar: asciicircum
Encoding: 94 94 73
Width: 447
Flags: W
HStem: 718 77<345.138 385.93>
VStem: 195 302<585 620>
LayerCount: 3
Fore
SplineSet
374 795 m 0
 393 795 497 660 497 620 c 0
 497 611 490 591 478 591 c 0
 443 591 388 718 360 718 c 0
 345 718 327 694 286 644 c 0
 242 589 230 579 212 579 c 0
 199 579 195 580 195 585 c 0
 195 592 215 629 227 640 c 0
 256 667 352 795 374 795 c 0
EndSplineSet
Validated: 1
Layer: 2
SplineSet
374 795 m 0,0,1
 390 795 390 795 443.5 721.5 c 128,-1,2
 497 648 497 648 497 620 c 0,3,4
 497 612 497 612 491.5 601.5 c 128,-1,5
 486 591 486 591 478 591 c 0,6,7
 466 591 466 591 448.5 611 c 128,-1,8
 431 631 431 631 416 654.5 c 128,-1,9
 401 678 401 678 385 698 c 128,-1,10
 369 718 369 718 360 718 c 128,-1,11
 351 718 351 718 337.5 704 c 128,-1,12
 324 690 324 690 297.22185336 657.722185336 c 0,13,14
 290 649 290 649 286 644 c 0,15,16
 253 603 253 603 239.5 591 c 128,-1,17
 226 579 226 579 212 579 c 0,18,19
 195 579 195 579 195 585 c 128,-1,20
 195 591 195 591 206.5 611.5 c 128,-1,21
 218 632 218 632 227 640 c 0,22,23
 237 649 237 649 271 690 c 128,-1,24
 305 731 305 731 334.5 763 c 128,-1,25
 364 795 364 795 374 795 c 0,0,1
EndSplineSet
EndChar

StartChar: underscore
Encoding: 95 95 74
Width: 598
Flags: W
HStem: -22 36<44.4903 267.352>
LayerCount: 3
Fore
SplineSet
88 -22 m 0
 63 -22 44 -17 44 -0 c 0
 44 8 51 13 71 14 c 0
 89 14 402 43 412 51 c 0
 413 53 432 54 457 54 c 0
 535 54 547 50 547 41 c 0
 547 39 547 37 546 34 c 0
 539 3 534 24 286 -4 c 0
 184 -16 123 -22 88 -22 c 0
EndSplineSet
Validated: 1
Layer: 2
SplineSet
88 -22 m 0,0,1
 44 -22 44 -22 44 0 c 0,2,3
 44 13 44 13 71 14 c 0,4,5
 91 14 91 14 248 30 c 128,-1,6
 405 46 405 46 412 51 c 0,7,8
 414 54 414 54 457 54 c 0,9,10
 495 54 495 54 515 52.5 c 128,-1,11
 535 51 535 51 541 48.5 c 128,-1,12
 547 46 547 46 547 41 c 0,13,14
 547 37 547 37 546 34 c 0,15,16
 543 21 543 21 535 18 c 128,-1,17
 527 15 527 15 485.331538576 12.6876954948 c 0,18,19
 388 7 388 7 286 -4 c 0,20,21
 133 -22 133 -22 88 -22 c 0,0,1
EndSplineSet
EndChar

StartChar: grave
Encoding: 96 96 75
Width: 420
Flags: W
HStem: 545 152
VStem: 255 124
LayerCount: 3
Fore
SplineSet
379 568 m 0
 379 560 371 545 361 545 c 0
 334 545 255 655 255 672 c 0
 255 682 279 697 285 697 c 0
 290 697 379 599 379 568 c 0
EndSplineSet
Validated: 1
Layer: 2
SplineSet
379 568 m 0,0,1
 379 561 379 561 373.5 553 c 128,-1,2
 368 545 368 545 361 545 c 0,3,4
 342 545 342 545 298.5 601 c 128,-1,5
 255 657 255 657 255 672 c 0,6,7
 255 679 255 679 267.5 688 c 128,-1,8
 280 697 280 697 285 697 c 0,9,10
 288 697 288 697 311 671.5 c 128,-1,11
 334 646 334 646 356.5 614 c 128,-1,12
 379 582 379 582 379 568 c 0,0,1
EndSplineSet
EndChar

StartChar: a
Encoding: 97 97 76
Width: 556
Flags: W
HStem: -1 47<169.875 301.066> 240 52<286.829 431.956> 498 51<374.451 502.358>
VStem: 115 48<55.6649 150.235> 442 59<8.49258 119.031> 512 55<294.697 492.102>
LayerCount: 3
Fore
SplineSet
482 238 m 0
 489 238 512 367 512 422 c 0
 512 480 495 498 468 498 c 0
 362 498 250 421 204 421 c 0
 196 421 194 424 195 431 c 0
 205 479 263 485 375 528 c 0
 414 542 446 549 471 549 c 0
 517 549 543 526 558 477 c 0
 563 459 567 448 567 430 c 0
 567 402 558 358 536 247 c 0
 502 76 501 41 501 41 c 2
 497 20 466 -5 460 -5 c 0
 446 -5 442 18 442 44 c 0
 442 71 446 100 446 114 c 0
 446 119 445 122 444 122 c 0
 442 122 438 118 433 111 c 0
 399 70 285 -1 227 -1 c 0
 194 -1 143 14 126 29 c 0
 119 36 115 54 115 75 c 0
 115 171 168 214 251 255 c 0
 298 278 346 292 381 292 c 0
 436 292 436 259 451 259 c 0
 459 259 478 238 482 238 c 0
163 85 m 0
 163 59 201 46 221 46 c 0
 271 46 366 94 369 106 c 0
 373 123 447 167 447 191 c 0
 447 204 433 240 350 240 c 0
 228 240 163 142 163 85 c 0
EndSplineSet
Validated: 1
Layer: 2
SplineSet
482 238 m 0,0,1
 485 238 485 238 492.5 272 c 128,-1,2
 500 306 500 306 506 351 c 128,-1,3
 512 396 512 396 512 422 c 0,4,5
 512 498 512 498 468 498 c 0,6,7
 408 498 408 498 314 459.5 c 128,-1,8
 220 421 220 421 204 421 c 0,9,10
 194 421 194 421 195 431 c 0,11,12
 198 445 198 445 206 455 c 128,-1,13
 214 465 214 465 231.5 474 c 128,-1,14
 249 483 249 483 265 489 c 128,-1,15
 281 495 281 495 315.5 506.5 c 128,-1,16
 350 518 350 518 375 528 c 0,17,18
 433.5 549 433.5 549 471 549 c 0,19,20
 536 549 536 549 558 477 c 0,21,22
 567 445 567 445 567 430 c 0,23,24
 567 403 567 403 536 247 c 0,25,26
 521 171 521 171 512 119.5 c 128,-1,27
 503 68 503 68 502 54.5 c 2,28,-1
 501 41 l 2,29,30
 498 27 498 27 482 11 c 128,-1,31
 466 -5 466 -5 460 -5 c 0,32,33
 442 -5 442 -5 442 44 c 0,34,35
 442 59 442 59 444 84 c 128,-1,36
 446 109 446 109 446 114 c 0,37,38
 446 122 446 122 444 122 c 0,39,40
 441 122 441 122 433 111 c 0,41,42
 405 77 405 77 336.5 38 c 128,-1,43
 268 -1 268 -1 227 -1 c 0,44,45
 202 -1 202 -1 170.5 8.5 c 128,-1,46
 139 18 139 18 126 29 c 0,47,48
 115 40 115 40 115 75 c 0,49,50
 115 142 115 142 148.5 181.5 c 128,-1,51
 182 221 182 221 251 255 c 0,52,53
 327 292 327 292 381 292 c 0,54,55
 405 292 405 292 419 284 c 128,-1,56
 433 276 433 276 439.5 267.5 c 128,-1,57
 446 259 446 259 451 259 c 128,-1,58
 456 259 456 259 468 248.5 c 128,-1,59
 480 238 480 238 482 238 c 0,0,1
163 85 m 0,60,61
 163 67 163 67 182.5 56.5 c 128,-1,62
 202 46 202 46 221 46 c 0,63,64
 255 46 255 46 310.5 70.5 c 128,-1,65
 366 95 366 95 369 106 c 0,66,67
 371 113 371 113 409 145.5 c 128,-1,68
 447 178 447 178 447 191 c 0,69,70
 447 197 447 197 443 204.5 c 128,-1,71
 439 212 439 212 430 220.5 c 128,-1,72
 421 229 421 229 400 234.5 c 128,-1,73
 379 240 379 240 350 240 c 0,74,75
 267 240 267 240 215 188 c 128,-1,76
 163 136 163 136 163 85 c 0,60,61
EndSplineSet
EndChar

StartChar: b
Encoding: 98 98 77
Width: 655
Flags: W
HStem: -23 55<241.468 331.144> 478 64<499.325 612.805>
VStem: 153 80<37.462 182.448> 253 64<640.257 837.166> 621 59<319.439 470.02>
LayerCount: 3
Fore
SplineSet
589 542 m 0
 616 542 680 516 680 424 c 0
 680 320 602 182 496 95 c 0
 428 39 303 -23 259 -23 c 0
 215 -23 153 16 153 43 c 0
 153 79 214 377 222 517 c 0
 226 599 241 733 253 789 c 0
 260 820 266 830 278 840 c 0
 290 850 299 855 305 855 c 0
 314 855 317 845 317 826 c 0
 317 776 294 669 287 547 c 0
 284 501 280 440 276 409 c 2
 269 354 l 1
 364 431 l 2
 436 490 472 513 515 526 c 0
 549 536 572 542 589 542 c 0
533 197 m 0
 581 252 621 347 621 416 c 0
 621 449 610 478 573 478 c 0
 560 478 544 476 522 472 c 0
 493 467 400 398 333 331 c 0
 279 276 233 163 233 94 c 0
 233 48 254 32 271 32 c 0
 293 32 409 54 533 197 c 0
EndSplineSet
Validated: 1
Layer: 2
SplineSet
589 542 m 0,0,1
 618 542 618 542 649 513.5 c 128,-1,2
 680 485 680 485 680 424 c 0,3,4
 680 346 680 346 628 253 c 128,-1,5
 576 160 576 160 496 95 c 0,6,7
 445 53 445 53 368.5 15 c 128,-1,8
 292 -23 292 -23 259 -23 c 128,-1,9
 226 -23 226 -23 189.5 0 c 128,-1,10
 153 23 153 23 153 43 c 0,11,12
 153 54 153 54 185 245 c 128,-1,13
 217 436 217 436 222 517 c 0,14,15
 230 682 230 682 253 789 c 0,16,17
 261 826 261 826 278 840 c 0,18,19
 296 855 296 855 305 855 c 0,20,21
 317 855 317 855 317 826 c 0,22,23
 317 804 317 804 304 708.5 c 128,-1,24
 291 613 291 613 287 547 c 0,25,26
 280 440 280 440 276 409 c 2,27,-1
 269 354 l 1,28,-1
 364 431 l 2,29,30
 459 509 459 509 515 526 c 0,31,32
 569 542 569 542 589 542 c 0,0,1
533 197 m 0,33,34
 570 239 570 239 595.5 302 c 128,-1,35
 621 365 621 365 621 416 c 0,36,37
 621 478 621 478 573 478 c 0,38,39
 555 478 555 478 522 472 c 0,40,41
 500 468 500 468 441.5 424.5 c 128,-1,42
 383 381 383 381 333 331 c 0,43,44
 293 290 293 290 263 218 c 128,-1,45
 233 146 233 146 233 94 c 0,46,47
 233 62 233 62 244.5 47 c 128,-1,48
 256 32 256 32 271 32 c 0,49,50
 283 32 283 32 305 38.5 c 128,-1,51
 327 45 327 45 362.5 60.5 c 128,-1,52
 398 76 398 76 444 111.5 c 128,-1,53
 490 147 490 147 533 197 c 0,33,34
EndSplineSet
EndChar

StartChar: c
Encoding: 99 99 78
Width: 569
Flags: W
HStem: -4 58<200.002 339.922> 490 55<327.603 504.125>
VStem: 93 55<112.12 281.359> 539 52<367.389 451.088>
LayerCount: 3
Fore
SplineSet
591 416 m 0
 591 387 573 363 557 363 c 0
 547 363 539 372 539 389 c 2
 539 396 l 2
 539 410 530 434 519 450 c 0
 505 470 495 490 391 490 c 0
 338 490 316 474 266 419 c 0
 201 349 148 274 148 177 c 0
 148 134 164 118 181 97 c 0
 212 60 222 54 259 54 c 0
 385 54 516 232 565 232 c 0
 573 232 577 226 574 213 c 0
 569 188 397 -4 258 -4 c 0
 226 -4 197 5 165 23 c 0
 116 50 93 88 93 156 c 0
 93 191 104 266 108 284 c 0
 116 320 126 336 154 373 c 0
 207 445 308 524 363 538 c 0
 381 542 407 545 430 545 c 0
 529 545 591 471 591 416 c 0
EndSplineSet
Validated: 1
Layer: 2
SplineSet
591 416 m 0,0,1
 591 395 591 395 580 379 c 128,-1,2
 569 363 569 363 557 363 c 0,3,4
 539 363 539 363 539 389 c 2,5,-1
 539 396 l 2,6,7
 539 421 539 421 519 450 c 0,8,9
 509 464 509 464 502.5 470 c 128,-1,10
 496 476 496 476 467.5 483 c 128,-1,11
 439 490 439 490 391 490 c 0,12,13
 353 490 353 490 329 476 c 128,-1,14
 305 462 305 462 266 419 c 0,15,16
 210 358 210 358 179 301 c 128,-1,17
 148 244 148 244 148 177 c 0,18,19
 148 157 148 157 154 140.5 c 128,-1,20
 160 124 160 124 164 118.5 c 128,-1,21
 168 113 168 113 181 97 c 0,22,23
 204 69 204 69 217.5 61.5 c 128,-1,24
 231 54 231 54 259 54 c 0,25,26
 302 54 302 54 353 82 c 128,-1,27
 404 110 404 110 441 143 c 128,-1,28
 478 176 478 176 513.5 204 c 128,-1,29
 549 232 549 232 565 232 c 0,30,31
 578 232 578 232 574 213 c 0,32,33
 572 202 572 202 541.5 168 c 128,-1,34
 511 134 511 134 467 95 c 128,-1,35
 423 56 423 56 364.5 26 c 128,-1,36
 306 -4 306 -4 258 -4 c 0,37,38
 213 -4 213 -4 165 23 c 0,39,40
 128 44 128 44 110.5 75 c 128,-1,41
 93 106 93 106 93 156 c 0,42,43
 93 216 93 216 108 284 c 0,44,45
 117 324 117 324 154 373 c 0,46,47
 194 427 194 427 258 477 c 128,-1,48
 322 527 322 527 363 538 c 0,49,50
 394 545 394 545 430 545 c 0,51,52
 499 545 499 545 545 503.5 c 128,-1,53
 591 462 591 462 591 416 c 0,0,1
EndSplineSet
EndChar

StartChar: d
Encoding: 100 100 79
Width: 715
Flags: W
HStem: -10 67<220.333 368.65> 472 69<384.804 472.674>
VStem: 106 71<94.0673 249.956> 565 74<-50.7971 132.879>
LayerCount: 3
Fore
SplineSet
270 -10 m 0
 214 -10 106 20 106 139 c 0
 106 307 260 481 391 526 c 0
 419 536 434 541 448 541 c 0
 481 541 575 485 600 441 c 0
 612 420 625 405 633 405 c 0
 634 405 634 406 635 406 c 0
 654 417 748 908 774 952 c 0
 787 973 803 983 820 983 c 2
 847 983 l 1
 752 572 l 2
 632 53 653 53 639 -10 c 0
 629 -58 597 -62 593 -62 c 0
 571 -62 565 -42 565 -14 c 0
 565 29 578 90 578 135 c 0
 578 144 577 151 575 151 c 0
 569 151 552 139 534 122 c 0
 443 36 350 -10 270 -10 c 0
499 433 m 0
 471 454 437 472 425 472 c 0
 398 472 243 347 217 304 c 0
 199 274 177 187 177 138 c 0
 177 129 178 122 180 117 c 0
 187 97 237 57 292 57 c 0
 342 57 397 87 485 157 c 0
 590 240 590 259 590 272 c 0
 590 320 543 398 499 433 c 0
EndSplineSet
Validated: 1
Layer: 2
SplineSet
270 -10 m 0,0,1
 246 -10 246 -10 220.5 -3 c 128,-1,2
 195 4 195 4 167.5 19.5 c 128,-1,3
 140 35 140 35 123 66 c 128,-1,4
 106 97 106 97 106 139 c 0,5,6
 106 259 106 259 196.5 374.5 c 128,-1,7
 287 490 287 490 391 526 c 0,8,9
 433 541 433 541 448 541 c 0,10,11
 474 541 474 541 528 507 c 128,-1,12
 582 473 582 473 600 441 c 0,13,14
 621 405 621 405 633 405 c 0,15,16
 634 405 634 405 634 405.5 c 128,-1,17
 634 406 634 406 635 406 c 0,18,19
 643 411 643 411 672 537.5 c 128,-1,20
 701 664 701 664 732 799 c 128,-1,21
 763 934 763 934 774 952 c 0,22,23
 793 983 793 983 820 983 c 2,24,-1
 847 983 l 1,25,-1
 752 572 l 2,26,27
 711 394 711 394 686 272.5 c 128,-1,28
 661 151 661 151 655.5 108.5 c 128,-1,29
 650 66 650 66 646.5 36 c 128,-1,30
 643 6 643 6 639 -10 c 0,31,32
 635 -32 635 -32 623.5 -44.5 c 128,-1,33
 612 -57 612 -57 605 -59.5 c 128,-1,34
 598 -62 598 -62 593 -62 c 0,35,36
 565 -62 565 -62 565 -14 c 0,37,38
 565 7 565 7 571.5 59.5 c 128,-1,39
 578 112 578 112 578 135 c 0,40,41
 578 151 578 151 575 151 c 0,42,43
 565 151 565 151 534 122 c 0,44,45
 394 -10 394 -10 270 -10 c 0,0,1
499 433 m 0,46,47
 447 472 447 472 425 472 c 0,48,49
 405 472 405 472 320.5 404 c 128,-1,50
 236 336 236 336 217 304 c 0,51,52
 203 281 203 281 190 227.5 c 128,-1,53
 177 174 177 174 177 138 c 0,54,55
 177 124.5 177 124.5 180 117 c 0,56,57
 186 99 186 99 220 78 c 128,-1,58
 254 57 254 57 292 57 c 0,59,60
 329 57 329 57 373.5 80.5 c 128,-1,61
 418 104 418 104 485 157 c 0,62,63
 533 195 533 195 558 221 c 128,-1,64
 583 247 583 247 586.5 255 c 128,-1,65
 590 263 590 263 590 272 c 0,66,67
 590 307 590 307 561.5 356.5 c 128,-1,68
 533 406 533 406 499 433 c 0,46,47
EndSplineSet
EndChar

StartChar: e
Encoding: 101 101 80
Width: 617
Flags: W
HStem: -10 55<229.028 381.124> 275 50<191.004 263> 502 47<326.563 484.278>
VStem: 101 55<125.614 274.197> 539 53<378.298 444.619>
LayerCount: 3
Fore
SplineSet
614 215 m 0
 616 215 617 214 617 210 c 0
 617 185 546 111 508 83 c 0
 427 23 345 -10 278 -10 c 0
 191 -10 101 58 101 198 c 0
 101 259 116 315 136 352 c 0
 174 423 304 549 387 549 c 0
 399 549 413 548 434 546 c 0
 496 541 511 537 539 511 c 0
 570 483 592 434 592 400 c 0
 592 344 540 325 452 306 c 0
 400 295 314 283 263 280 c 2
 168 275 l 1
 160 235 l 2
 157 222 156 210 156 198 c 0
 156 162 169 131 199 95 c 0
 226 62 258 45 297 45 c 0
 422 45 577 215 614 215 c 0
505 459 m 0
 472 496 461 502 427 502 c 0
 361 502 335 493 293 454 c 0
 238 404 191 358 191 334 c 0
 191 328 196 325 213 325 c 0
 265 325 359 337 479 363 c 0
 529 374 539 399 539 409 c 0
 539 420 528 433 505 459 c 0
EndSplineSet
Validated: 1
Layer: 2
SplineSet
614 215 m 0,0,1
 617 215 617 215 617 210 c 0,2,3
 617 193 617 193 578.5 150 c 128,-1,4
 540 107 540 107 508 83 c 0,5,6
 382 -10 382 -10 278 -10 c 0,7,8
 207 -10 207 -10 154 44.5 c 128,-1,9
 101 99 101 99 101 198 c 0,10,11
 101 287 101 287 136 352 c 0,12,13
 168 412 168 412 248.5 480.5 c 128,-1,14
 329 549 329 549 387 549 c 0,15,16
 402 549 402 549 434 546 c 0,17,18
 481 542 481 542 499.5 536 c 128,-1,19
 518 530 518 530 539 511 c 0,20,21
 562 490 562 490 577 458 c 128,-1,22
 592 426 592 426 592 400 c 0,23,24
 592 361 592 361 559 341.5 c 128,-1,25
 526 322 526 322 452 306 c 0,26,27
 355 285 355 285 263 280 c 2,28,-1
 168 275 l 1,29,-1
 160 235 l 2,30,31
 156 218 156 218 156 198 c 0,32,33
 156 147 156 147 199 95 c 0,34,35
 240 45 240 45 297 45 c 0,36,37
 340 45 340 45 394 71.5 c 128,-1,38
 448 98 448 98 489 130 c 128,-1,39
 530 162 530 162 566.5 188.5 c 128,-1,40
 603 215 603 215 614 215 c 0,0,1
505 459 m 0,41,42
 480 487 480 487 466.5 494.5 c 128,-1,43
 453 502 453 502 427 502 c 0,44,45
 377 502 377 502 350.5 492.5 c 128,-1,46
 324 483 324 483 293 454 c 0,47,48
 191 361 191 361 191 334 c 0,49,50
 191 325 191 325 213 325 c 0,51,52
 304 325 304 325 479 363 c 0,53,54
 512 370 512 370 525.5 384 c 128,-1,55
 539 398 539 398 539 409 c 0,56,57
 539 421 539 421 505 459 c 0,41,42
EndSplineSet
EndChar

StartChar: f
Encoding: 102 102 81
Width: 624
Flags: W
HStem: 429 71<186.671 279.083> 524 20G<524.5 556.5> 954 45<529.11 661.304>
VStem: 261 63<0.828125 220.97> 701 56<852.212 921.544>
LayerCount: 3
Fore
SplineSet
261 57 m 0
 261 165 323 393 323 447 c 0
 323 450 323 450 319 450 c 0
 291 450 245 429 202 429 c 0
 177 429 163 437 163 451 c 0
 163 471 181 480 254 500 c 2
 340 524 l 1
 361 611 l 2
 372 658 397 751 418 816 c 0
 454 927 459 935 498 967 c 0
 528 991 539 999 572 999 c 0
 589 999 611 997 643 994 c 0
 698 988 710 982 735 952 c 0
 750 933 757 917 757 901 c 0
 757 866 714 827 704 827 c 0
 699 827 696 832 696 841 c 0
 696 853 701 866 701 882 c 0
 701 911 683 926 632 944 c 0
 613 950 597 954 583 954 c 0
 552 954 528 938 505 904 c 0
 478 865 409 587 409 550 c 0
 409 534 415 530 431 530 c 0
 459 530 502 544 547 544 c 0
 566 544 575 537 575 530 c 0
 575 521 555 507 480 486 c 2
 389 461 l 1
 352 302 l 2
 348 285 319 178 319 108 c 0
 319 81 324 69 324 52 c 0
 324 26 316 -3 286 -3 c 0
 269 -3 261 17 261 57 c 0
EndSplineSet
Validated: 1
Layer: 2
SplineSet
261 57 m 0,0,1
 261 118 261 118 292 272.5 c 128,-1,2
 323 427 323 427 323 447 c 0,3,4
 323 450 323 450 319 450 c 0,5,6
 307 450 307 450 266 439.5 c 128,-1,7
 225 429 225 429 202 429 c 0,8,9
 163 429 163 429 163 451 c 0,10,11
 163 466 163 466 181 475.5 c 128,-1,12
 199 485 199 485 254 500 c 2,13,-1
 340 524 l 1,14,-1
 361 611 l 2,15,16
 385 715 385 715 418 816 c 0,17,18
 445 898 445 898 456.5 920.5 c 128,-1,19
 468 943 468 943 498 967 c 0,20,21
 523 987 523 987 536 993 c 128,-1,22
 549 999 549 999 572 999 c 0,23,24
 590 999 590 999 643 994 c 0,25,26
 684 990 684 990 700 982.5 c 128,-1,27
 716 975 716 975 735 952 c 0,28,29
 757 924 757 924 757 901 c 128,-1,30
 757 878 757 878 735.5 852.5 c 128,-1,31
 714 827 714 827 704 827 c 0,32,33
 696 827 696 827 696 841 c 0,34,35
 696 846 696 846 698.5 859.5 c 128,-1,36
 701 873 701 873 701 882 c 0,37,38
 701 904 701 904 686 917 c 128,-1,39
 671 930 671 930 632 944 c 0,40,41
 600 954 600 954 583 954 c 0,42,43
 539 954 539 954 505 904 c 0,44,45
 486 877 486 877 447.5 729 c 128,-1,46
 409 581 409 581 409 550 c 0,47,48
 409 538 409 538 414 534 c 128,-1,49
 419 530 419 530 431 530 c 128,-1,50
 443 530 443 530 482.5 537 c 128,-1,51
 522 544 522 544 547 544 c 0,52,53
 575 544 575 544 575 530 c 0,54,55
 575 513 575 513 480 486 c 2,56,-1
 389 461 l 1,57,-1
 352 302 l 2,58,59
 319 162 319 162 319 108 c 0,60,61
 319 93 319 93 321.5 76 c 128,-1,62
 324 59 324 59 324 52 c 0,63,64
 324 -3 324 -3 286 -3 c 0,65,66
 261 -3 261 -3 261 57 c 0,0,1
EndSplineSet
EndChar

StartChar: g
Encoding: 103 103 82
Width: 704
Flags: W
HStem: -248 59<413.188 521.55> 55 56<212.415 343.818> 544 52<465.614 649.365>
VStem: 120 63<142.345 301.805> 202 82<-122.817 -63.6977> 652 77<451.418 534.586>
LayerCount: 3
Fore
SplineSet
472 -189 m 0
 529 -189 531 -143 532 -138 c 0
 566 22 554 73 562 131 c 0
 569 181 573 210 573 223 c 0
 573 230 572 233 570 233 c 0
 567 233 560 226 551 215 c 0
 506 165 399 91 346 72 c 0
 319 62 276 55 248 55 c 0
 206 55 191 62 158 97 c 0
 128 129 120 149 120 192 c 0
 120 241 126 274 135 291 c 0
 152 327 222 421 264 464 c 0
 300 502 405 562 468 581 c 0
 501 591 540 596 577 596 c 0
 658 596 729 573 729 511 c 0
 729 454 680 409 665 341 c 0
 656 297 646 215 618 10 c 2
 589 -197 l 1
 548 -225 l 2
 523 -242 509 -248 486 -248 c 0
 378 -248 202 -155 202 -108 c 0
 202 -78 271 -2 298 -2 c 0
 312 -2 317 -6 317 -13 c 0
 317 -30 284 -63 284 -87 c 0
 284 -125 345 -149 370 -149 c 0
 404 -149 423 -189 472 -189 c 0
188 265 m 0
 185 251 183 237 183 223 c 0
 183 164 210 111 261 111 c 0
 343 111 467 195 548 305 c 0
 594 367 652 484 652 521 c 0
 652 526 650 530 648 532 c 0
 635 540 608 544 578 544 c 0
 551 544 521 541 497 534 c 0
 368 499 204 340 188 265 c 0
EndSplineSet
Validated: 1
Layer: 2
SplineSet
472 -189 m 0,0,1
 481 -189 481 -189 489 -187.5 c 128,-1,2
 497 -186 497 -186 502.5 -183 c 128,-1,3
 508 -180 508 -180 512.5 -177 c 128,-1,4
 517 -174 517 -174 520 -169.5 c 128,-1,5
 523 -165 523 -165 525 -161.5 c 128,-1,6
 527 -158 527 -158 528.5 -153.5 c 128,-1,7
 530 -149 530 -149 530.5 -146.5 c 128,-1,8
 531 -144 531 -144 531.5 -141 c 2,9,-1
 532 -138 l 2,10,11
 547 -67 547 -67 552.5 -14.5 c 128,-1,12
 558 38 558 38 558.5 75.5 c 128,-1,13
 559 113 559 113 562 131 c 0,14,15
 573 210 573 210 573 223 c 0,16,17
 573 233 573 233 570 233 c 0,18,19
 566 233 566 233 551 215 c 0,20,21
 518 178 518 178 452 132 c 128,-1,22
 386 86 386 86 346 72 c 0,23,24
 300 55 300 55 248 55 c 0,25,26
 216 55 216 55 199.5 63 c 128,-1,27
 183 71 183 71 158 97 c 0,28,29
 136 121 136 121 128 140.5 c 128,-1,30
 120 160 120 160 120 192 c 0,31,32
 120 263 120 263 135 291 c 0,33,34
 148 318 148 318 190.5 375 c 128,-1,35
 233 432 233 432 264 464 c 0,36,37
 291 492 291 492 356 529.5 c 128,-1,38
 421 567 421 567 468 581 c 0,39,40
 518 596 518 596 577 596 c 0,41,42
 644 596 644 596 686.5 575.5 c 128,-1,43
 729 555 729 555 729 511 c 0,44,45
 729 480 729 480 700.5 425.5 c 128,-1,46
 672 371 672 371 665 341 c 0,47,48
 660 315 660 315 618 10 c 2,49,-1
 589 -197 l 1,50,-1
 548 -225 l 2,51,52
 514 -248 514 -248 486 -248 c 0,53,54
 434 -248 434 -248 366 -223 c 128,-1,55
 298 -198 298 -198 250 -164.5 c 128,-1,56
 202 -131 202 -131 202 -108 c 0,57,58
 202 -86 202 -86 240 -44 c 128,-1,59
 278 -2 278 -2 298 -2 c 0,60,61
 317 -2 317 -2 317 -13 c 0,62,63
 317 -21 317 -21 300.5 -47.5 c 128,-1,64
 284 -74 284 -74 284 -87 c 0,65,66
 284 -113 284 -113 315 -131 c 128,-1,67
 346 -149 346 -149 370 -149 c 0,68,69
 385 -149 385 -149 415.5 -169 c 128,-1,70
 446 -189 446 -189 472 -189 c 0,0,1
188 265 m 0,71,72
 183 242 183 242 183 223 c 0,73,74
 183 176 183 176 203.5 143.5 c 128,-1,75
 224 111 224 111 261 111 c 0,76,77
 322 111 322 111 404.5 166.5 c 128,-1,78
 487 222 487 222 548 305 c 0,79,80
 583 353 583 353 617.5 423.5 c 128,-1,81
 652 494 652 494 652 521 c 0,82,83
 652 528 652 528 648 532 c 0,84,85
 628 544 628 544 578 544 c 0,86,87
 531 544 531 544 497 534 c 0,88,89
 404 509 404 509 302.5 417 c 128,-1,90
 201 325 201 325 188 265 c 0,71,72
EndSplineSet
EndChar

StartChar: h
Encoding: 104 104 83
Width: 538
Flags: W
HStem: 517 20G<464.5 501>
VStem: 489 68<315.118 484.906>
LayerCount: 3
Fore
SplineSet
125 -22 m 0
 121 -22 102 -19 102 13 c 0
 102 29 106 52 113 86 c 0
 151 262 198 756 234 807 c 0
 245 821 254 828 261 828 c 0
 272 828 277 820 277 797 c 0
 277 752 258 648 228 425 c 2
 212 307 l 1
 239 346 l 1
 279 406 447 537 482 537 c 0
 520 537 557 484 557 448 c 0
 557 427 538 321 514 206 c 0
 470 0 469 -7 447 -7 c 0
 438 -7 432 -5 432 14 c 0
 432 75 489 307 489 418 c 0
 489 425 489 431 488 436 c 2
 482 486 l 1
 413 432 l 2
 338 373 262 291 234 233 c 0
 194 151 162 -22 125 -22 c 0
EndSplineSet
Validated: 1
Layer: 2
SplineSet
125 -22 m 0,0,1
 121 -22 121 -22 117 -20.5 c 128,-1,2
 113 -19 113 -19 107.5 -10 c 128,-1,3
 102 -1 102 -1 102 13 c 0,4,5
 102 33 102 33 113 86 c 0,6,7
 128 154 128 154 151.5 330.5 c 128,-1,8
 175 507 175 507 196.5 646 c 128,-1,9
 218 785 218 785 234 807 c 0,10,11
 250.5 828 250.5 828 261 828 c 0,12,13
 277 828 277 828 277 797 c 0,14,15
 277 777 277 777 272 738 c 128,-1,16
 267 699 267 699 253 603 c 128,-1,17
 239 507 239 507 228 425 c 2,18,-1
 212 307 l 1,19,-1
 239 346 l 2,20,21
 269 391 269 391 362.5 464 c 128,-1,22
 456 537 456 537 482 537 c 0,23,24
 509 537 509 537 533 507 c 128,-1,25
 557 477 557 477 557 448 c 0,26,27
 557 412 557 412 514 206 c 0,28,29
 474.241161286 19.8563460215 474.241161286 19.8563460215 464.583231586 2.8153563316 c 0,30,31
 457.878425616 -6.82561590443 457.878425616 -6.82561590443 447 -7 c 0,32,33
 439 -7 439 -7 435.5 -3 c 128,-1,34
 432 1 432 1 432 14 c 0,35,36
 432 38 432 38 460.5 197 c 128,-1,37
 489 356 489 356 489 418 c 0,38,39
 489 431 489 431 488 436 c 2,40,-1
 482 486 l 1,41,-1
 413 432 l 2,42,43
 355 387 355 387 305 331.5 c 128,-1,44
 255 276 255 276 234 233 c 0,45,46
 219 203 219 203 198 134.5 c 128,-1,47
 177 66 177 66 159 22 c 128,-1,48
 141 -22 141 -22 125 -22 c 0,0,1
EndSplineSet
EndChar

StartChar: i
Encoding: 105 105 84
Width: 277
Flags: W
HStem: 763 84<289.151 349.955>
VStem: 203 76<379.522 560.062> 278 78<768.573 835.912>
LayerCount: 3
Fore
SplineSet
235 570 m 0xc0
 246 578 255 582 262 582 c 0
 273 582 279 571 279 541 c 0
 279 462 209 43 189 23 c 0
 179 13 167 8 156 8 c 0
 137 8 129 20 129 30 c 0
 129 58 182 397 203 495 c 0
 214 549 222 561 235 570 c 0xc0
278 798 m 0xa0
 278 823 309 847 320 847 c 0
 326 847 356 833 356 807 c 0
 356 784 337 763 316 763 c 0
 298 763 278 777 278 798 c 0xa0
EndSplineSet
Validated: 1
Layer: 2
SplineSet
235 570 m 0,0,1
 251.5 582 251.5 582 262 582 c 0,2,3
 279 582 279 582 279 541 c 0,4,5
 279 479 279 479 241.5 258.5 c 128,-1,6
 204 38 204 38 189 23 c 128,-1,7
 174 8 174 8 156 8 c 0,8,9
 143 8 143 8 136 14.5 c 128,-1,10
 129 21 129 21 129 30 c 0,11,12
 129 52 129 52 158.5 238 c 128,-1,13
 188 424 188 424 203 495 c 0,14,15
 216 557 216 557 235 570 c 0,0,1
278 798 m 0,16,17
 278 815 278 815 294 831 c 128,-1,18
 310 847 310 847 320 847 c 0,19,20
 328 847 328 847 342 835.5 c 128,-1,21
 356 824 356 824 356 807 c 128,-1,22
 356 790 356 790 344 776.5 c 128,-1,23
 332 763 332 763 316 763 c 0,24,25
 302 763 302 763 290 773 c 128,-1,26
 278 783 278 783 278 798 c 0,16,17
EndSplineSet
EndChar

StartChar: j
Encoding: 106 106 85
Width: 466
Flags: W
HStem: -243 62<98.8971 252.087> 544 20G<387 402.5> 748 78<393.464 442.176>
VStem: 35 63<-186.5 -81.2581> 348 67<285.528 528.29> 385 64<750.815 817.053>
LayerCount: 3
Fore
SplineSet
106 -72 m 0xf8
 106 -103 98 -120 98 -151 c 0
 98 -156 98 -160 99 -162 c 0
 104 -172 160 -181 202 -181 c 0
 220 -181 235 -179 241 -175 c 0
 289 -146 348 211 348 256 c 2
 348 295 l 2
 348 396 358 494 368 540 c 0
 373 561 380 564 394 564 c 0
 411 564 415 563 415 517 c 0
 415 202 385 92 359 -9 c 0
 306 -221 287 -243 160 -243 c 0
 98 -243 55 -230 55 -211 c 0
 55 -185 35 -201 35 -172 c 0
 35 -123 66 -41 92 -41 c 0
 100 -41 106 -51 106 -72 c 0xf8
385 782 m 0xf4
 385 808 417 826 428 826 c 0
 432 826 449 820 449 798 c 0
 449 777 434 748 420 748 c 0
 398 749 385 765 385 782 c 0xf4
EndSplineSet
Validated: 1
Layer: 2
SplineSet
106 -72 m 0,0,1
 106 -88 106 -88 102 -112 c 128,-1,2
 98 -136 98 -136 98 -151 c 0,3,4
 98 -160 98 -160 99 -162 c 0,5,6
 103 -169 103 -169 136 -175 c 128,-1,7
 169 -181 169 -181 202 -181 c 0,8,9
 232 -181 232 -181 241 -175 c 0,10,11
 272 -156 272 -156 310 23.5 c 128,-1,12
 348 203 348 203 348 256 c 2,13,-1
 348 295 l 2,14,15
 348 448 348 448 368 540 c 0,16,17
 372 555 372 555 377.5 559.5 c 128,-1,18
 383 564 383 564 394 564 c 0,19,20
 408 564 408 564 411.5 557 c 128,-1,21
 415 550 415 550 415 517 c 0,22,23
 415 371 415 371 405 260 c 128,-1,24
 395 149 395 149 386 105.5 c 128,-1,25
 377 62 377 62 359 -9 c 0,26,27
 342 -78 342 -78 329.5 -115.5 c 128,-1,28
 317 -153 317 -153 303 -182 c 128,-1,29
 289 -211 289 -211 269 -222.5 c 128,-1,30
 249 -234 249 -234 225 -238.5 c 128,-1,31
 201 -243 201 -243 160 -243 c 0,32,33
 113 -243 113 -243 84 -234 c 128,-1,34
 55 -225 55 -225 55 -211 c 0,35,36
 55 -198 55 -198 45 -192.5 c 128,-1,37
 35 -187 35 -187 35 -172 c 0,38,39
 35 -134 35 -134 54 -87.5 c 128,-1,40
 73 -41 73 -41 92 -41 c 0,41,42
 106 -41 106 -41 106 -72 c 0,0,1
385 782 m 0,43,44
 385 799 385 799 401 812.5 c 128,-1,45
 417 826 417 826 428 826 c 0,46,47
 431 826 431 826 435.5 824 c 128,-1,48
 440 822 440 822 444.5 815 c 128,-1,49
 449 808 449 808 449 798 c 0,50,51
 449 782 449 782 439.5 765 c 128,-1,52
 430 748 430 748 420 748 c 0,53,54
 404 749 404 749 394.5 759 c 128,-1,55
 385 769 385 769 385 782 c 0,43,44
EndSplineSet
EndChar

StartChar: k
Encoding: 107 107 86
Width: 519
Flags: W
HStem: 534 20G<501 513>
VStem: 171 96<532.867 652.814>
LayerCount: 3
Fore
SplineSet
243 793 m 0
 252 793 267 787 267 759 c 0
 267 701 238 482 230 394 c 2
 225 336 l 1
 364 450 l 2
 460 529 493 554 509 554 c 0
 517 554 527 542 527 529 c 0
 527 505 508 513 456 456 c 0
 359 349 222 287 214 248 c 0
 212 239 216 231 227 225 c 2
 323 175 l 2
 408 131 469 80 469 54 c 0
 469 49 464 30 444 30 c 0
 411 30 379 79 358 79 c 0
 351 79 347 83 347 88 c 0
 347 96 320 108 237 143 c 2
 189 163 l 1
 178 80 l 2
 168 10 163 -14 140 -14 c 0
 119 -14 109 -5 109 30 c 0
 109 104 168 373 171 467 c 0
 173 529 194 676 209 745 c 0
 212 758 216 793 243 793 c 0
EndSplineSet
Validated: 1
Layer: 2
SplineSet
243 793 m 0,0,1
 267 793 267 793 267 759 c 0,2,3
 267 734 267 734 259.5 664 c 128,-1,4
 252 594 252 594 242.5 509.5 c 128,-1,5
 233 425 233 425 230 394 c 2,6,-1
 225 336 l 1,7,-1
 364 450 l 2,8,9
 490 554 490 554 509 554 c 0,10,11
 515 554 515 554 521 546 c 128,-1,12
 527 538 527 538 527 529 c 0,13,14
 527 519 527 519 521.5 513.5 c 128,-1,15
 516 508 516 508 496.5 493.5 c 128,-1,16
 477 479 477 479 456 456 c 0,17,18
 416 411 416 411 355 366 c 128,-1,19
 294 321 294 321 255.5 292.5 c 128,-1,20
 217 264 217 264 214 248 c 0,21,22
 211 234 211 234 227 225 c 2,23,-1
 323 175 l 2,24,25
 386 142 386 142 427.5 108 c 128,-1,26
 469 74 469 74 469 54 c 0,27,28
 469 47 469 47 463 38.5 c 128,-1,29
 457 30 457 30 444 30 c 0,30,31
 426 30 426 30 396.5 54.5 c 128,-1,32
 367 79 367 79 358 79 c 0,33,34
 347 79 347 79 347 88 c 128,-1,35
 347 97 347 97 237 143 c 2,36,-1
 189 163 l 1,37,-1
 178 80 l 2,38,39
 170 23 170 23 163 4.5 c 128,-1,40
 156 -14 156 -14 140 -14 c 0,41,42
 123 -14 123 -14 116 -4.5 c 128,-1,43
 109 5 109 5 109 30 c 0,44,45
 109 67 109 67 139 243.5 c 128,-1,46
 169 420 169 420 171 467 c 0,47,48
 172 512 172 512 184.5 601.5 c 128,-1,49
 197 691 197 691 209 745 c 0,50,51
 209 746 209 746 210.5 751.5 c 128,-1,52
 212 757 212 757 212.5 760 c 128,-1,53
 213 763 213 763 215 769 c 128,-1,54
 217 775 217 775 219.5 778.5 c 128,-1,55
 222 782 222 782 225 785.5 c 128,-1,56
 228 789 228 789 232.5 791 c 128,-1,57
 237 793 237 793 243 793 c 0,0,1
EndSplineSet
EndChar

StartChar: l
Encoding: 108 108 87
Width: 299
Flags: W
HStem: 959 20G<326.5 340.5>
VStem: 164 186
LayerCount: 3
Fore
SplineSet
267 799 m 0
 301 959 317 979 336 979 c 0
 345 979 350 973 350 968 c 0
 350 915 220 41 219 36 c 0
 215 19 207 14 188 14 c 0
 172 14 164 19 164 50 c 0
 164 109 192 262 243 658 c 0
 248 701 257 751 267 799 c 0
EndSplineSet
Validated: 1
Layer: 2
SplineSet
267 799 m 0,0,1
 283 876 283 876 296 916.5 c 128,-1,2
 309 957 309 957 317 968 c 128,-1,3
 325 979 325 979 336 979 c 0,4,5
 350 979 350 979 350 968 c 0,6,7
 350 944 350 944 317.5 711.5 c 128,-1,8
 285 479 285 479 252.5 260.5 c 128,-1,9
 220 42 220 42 219 36 c 0,10,11
 214 14 214 14 188 14 c 0,12,13
 175 14 175 14 169.5 21 c 128,-1,14
 164 28 164 28 164 50 c 0,15,16
 164 76 164 76 172 135 c 128,-1,17
 180 194 180 194 201.5 348 c 128,-1,18
 223 502 223 502 243 658 c 0,19,20
 250 716 250 716 267 799 c 0,0,1
EndSplineSet
EndChar

StartChar: m
Encoding: 109 109 88
Width: 844
Flags: W
HStem: 491 59<411.127 462.36 713.933 780> 541 20G<274 283>
VStem: 251 39<406.278 555.012> 448 41<-18.9219 85.7224> 493 42<282.152 449.934> 692 97<-11 42> 765 53<305.189 486.212>
LayerCount: 3
Fore
SplineSet
493 343 m 0xba
 493 419 461 491 439 491 c 0xba
 420 491 391 446 317 325 c 0
 301 299 286 261 281 239 c 0
 266 169 267 241 221 53 c 0
 199 -40 194 -74 170 -74 c 0
 162 -74 157 -67 157 -48 c 0
 157 -17 169 48 194 166 c 0
 237 368 233 419 251 503 c 0
 258 535 269 561 279 561 c 0x7a
 287 561 290 539 290 510 c 0
 290 476 287 432 287 405 c 0
 287 389 288 379 291 379 c 0
 297 379 319 429 331 439 c 0
 335 443 353 465 369 488 c 0
 409 545 415 550 453 550 c 0
 476 550 492 538 512 507 c 0
 530 479 535 462 535 419 c 0
 535 406 535 390 534 371 c 2
 530 277 l 1
 560 337 l 2
 618 453 711 550 764 550 c 0
 796 550 818 510 818 453 c 0xba
 818 416 804 341 789 268 c 0
 729 -14 724 -9 706 -12 c 0
 703 -13 701 -13 699 -13 c 0
 695 -13 692 -11 692 -2 c 0xbc
 692 42 765 314 765 433 c 0
 765 469 758 487 744 487 c 0
 727 487 697 458 657 401 c 0
 590 306 526 161 489 22 c 0
 480 -11 473 -21 460 -21 c 0
 452 -21 448 -19 448 -4 c 0
 448 39 493 239 493 343 c 0xba
EndSplineSet
Validated: 1
Layer: 2
SplineSet
493 343 m 0,0,1
 493 398 493 398 474.5 444.5 c 128,-1,2
 456 491 456 491 439 491 c 0,3,4
 426 491 426 491 401.5 457 c 128,-1,5
 377 423 377 423 317 325 c 0,6,7
 291 283 291 283 281 239 c 0,8,9
 276 216 276 216 261.5 188.5 c 128,-1,10
 247 161 247 161 221 53 c 0,11,12
 197.111075332 -47.9849997345 197.111075332 -47.9849997345 189.240896356 -61.3365376495 c 0,13,14
 181.776309446 -74 181.776309446 -74 170 -74 c 0,15,16
 157 -74 157 -74 157 -48 c 0,17,18
 157 -9 157 -9 194 166 c 0,19,20
 219 282 219 282 232 378.5 c 128,-1,21
 245 475 245 475 251 503 c 0,22,23
 264 561 264 561 279 561 c 0,24,25
 290 561 290 561 290 510 c 0,26,27
 290 492 290 492 288.5 455 c 128,-1,28
 287 418 287 418 287 405 c 0,29,30
 287 379 287 379 291 379 c 0,31,32
 293 379 293 379 300.5 391.5 c 128,-1,33
 308 404 308 404 317 419.5 c 128,-1,34
 326 435 326 435 331 439 c 0,35,36
 344 452 344 452 369 488 c 0,37,38
 399 531 399 531 412 540.5 c 128,-1,39
 425 550 425 550 453 550 c 0,40,41
 484 550 484 550 512 507 c 0,42,43
 535 471 535 471 535 419 c 0,44,45
 535 390 535 390 534 371 c 2,46,-1
 530 277 l 1,47,-1
 560 337 l 2,48,49
 603 424 603 424 663.5 487 c 128,-1,50
 724 550 724 550 764 550 c 0,51,52
 788 550 788 550 803 523 c 128,-1,53
 818 496 818 496 818 453 c 0,54,55
 818 409 818 409 789 268 c 0,56,57
 760 130 760 130 744.5 70 c 128,-1,58
 729 10 729 10 723 0 c 128,-1,59
 717 -10 717 -10 706 -12 c 0,60,61
 703 -13 703 -13 699 -13 c 0,62,63
 692 -13 692 -13 692 -2 c 0,64,65
 692 11 692 11 728.5 187.5 c 128,-1,66
 765 364 765 364 765 433 c 0,67,68
 765 487 765 487 744 487 c 0,69,70
 717 487 717 487 657 401 c 0,71,72
 607 330 607 330 562 228.5 c 128,-1,73
 517 127 517 127 489 22 c 0,74,75
 482 -3 482 -3 476 -12 c 128,-1,76
 470 -21 470 -21 460 -21 c 0,77,78
 448 -21 448 -21 448 -4 c 0,79,80
 448 10 448 10 470.5 146.5 c 128,-1,81
 493 283 493 283 493 343 c 0,0,1
EndSplineSet
EndChar

StartChar: n
Encoding: 110 110 89
Width: 619
Flags: W
HStem: 494 72<503.861 563>
VStem: 171 63<-7.34863 114.481> 220 61<320.067 541.887> 484 70<19.2585 100.325> 561 54<303.822 490.818>
LayerCount: 3
Fore
SplineSet
561 437 m 0xb8
 561 478 540 494 532 494 c 0
 503 494 403 374 339 272 c 0
 279 176 262 145 234 57 c 0
 216 1 199 -45 196 -45 c 0
 193 -45 184 -38 177 -28 c 0
 173 -23 171 -14 171 -1 c 0xd8
 171 48 197 160 220 384 c 0
 234 522 240 575 268 575 c 0
 277 575 281 571 281 547 c 0
 281 496 252 235 252 207 c 1
 258 213 274 242 298 288 c 0
 344 378 358 398 420 465 c 0
 483 533 525 566 554 566 c 0
 572 566 586 554 596 531 c 0
 608 505 615 486 615 455 c 0
 615 388 554 99 554 99 c 1
 533 -1 523 -8 495 -8 c 0
 488 -8 484 -6 484 4 c 0
 484 32 561 289 561 437 c 0xb8
EndSplineSet
Validated: 1
Layer: 2
SplineSet
561 437 m 0,0,1
 561 456 561 456 555 469.5 c 128,-1,2
 549 483 549 483 543 488.5 c 128,-1,3
 537 494 537 494 532 494 c 0,4,5
 511 494 511 494 450 423 c 128,-1,6
 389 352 389 352 339 272 c 0,7,8
 292 197 292 197 273 159 c 128,-1,9
 254 121 254 121 234 57 c 0,10,11
 201 -45 201 -45 196 -45 c 0,12,13
 189 -45 189 -45 177 -28 c 0,14,15
 171 -20.5 171 -20.5 171 -1 c 0,16,17
 171 19 171 19 178 65.5 c 128,-1,18
 185 112 185 112 197.5 200.5 c 128,-1,19
 210 289 210 289 220 384 c 0,20,21
 232 499 232 499 240 537 c 128,-1,22
 248 575 248 575 268 575 c 0,23,24
 281 575 281 575 281 547 c 128,-1,25
 281 519 281 519 266.5 368.5 c 128,-1,26
 252 218 252 218 252 207 c 1,27,28
 260 215 260 215 298 288 c 0,29,30
 332 355 332 355 352.5 385 c 128,-1,31
 373 415 373 415 420 465 c 0,32,33
 514 566 514 566 554 566 c 0,34,35
 581 566 581 566 596 531 c 0,36,37
 615 490 615 490 615 455 c 0,38,39
 615 425 615 425 599.5 336 c 128,-1,40
 584 247 584 247 569 173 c 2,41,-1
 554 99 l 2,42,43
 539 28 539 28 528 10 c 128,-1,44
 517 -8 517 -8 495 -8 c 0,45,46
 484 -8 484 -8 484 4 c 0,47,48
 484 12 484 12 503 90.5 c 128,-1,49
 522 169 522 169 541.5 270.5 c 128,-1,50
 561 372 561 372 561 437 c 0,0,1
EndSplineSet
EndChar

StartChar: o
Encoding: 111 111 90
Width: 651
Flags: W
HStem: -19 57<236.844 393.49> 501 68<404.866 599.658>
VStem: 96 76<100.745 275.756> 626 58<349.987 476.281>
LayerCount: 3
Fore
SplineSet
541 569 m 0
 660 569 684 522 684 455 c 0
 684 321 565 91 436 22 c 0
 386 -5 334 -19 286 -19 c 0
 222 -19 166 6 136 52 c 0
 108 95 96 124 96 162 c 0
 96 182 100 205 106 235 c 0
 124 320 167 385 248 449 c 0
 375 549 434 569 541 569 c 0
626 439 m 0
 626 471 580 501 539 501 c 0
 522 501 512 496 449 490 c 0
 402 486 379 474 330 435 c 0
 236 361 172 283 172 181 c 0
 172 95 229 38 322 38 c 0
 434 38 582 220 623 415 c 0
 625 425 626 433 626 439 c 0
EndSplineSet
Validated: 1
Layer: 2
SplineSet
541 569 m 0,0,1
 624 569 624 569 654 540 c 128,-1,2
 684 511 684 511 684 455 c 0,3,4
 684 388 684 388 649.5 300 c 128,-1,5
 615 212 615 212 556.5 133.5 c 128,-1,6
 498 55 498 55 436 22 c 0,7,8
 360 -19 360 -19 286 -19 c 0,9,10
 182 -19 182 -19 136 52 c 0,11,12
 96 113 96 113 96 162 c 0,13,14
 96 185 96 185 106 235 c 0,15,16
 132 357 132 357 248 449 c 0,17,18
 341 522 341 522 400 545.5 c 128,-1,19
 459 569 459 569 541 569 c 0,0,1
626 439 m 0,20,21
 626 463 626 463 598 482 c 128,-1,22
 570 501 570 501 539 501 c 0,23,24
 532 501 532 501 523.5 499.5 c 128,-1,25
 515 498 515 498 495.5 495.5 c 128,-1,26
 476 493 476 493 449 490 c 0,27,28
 414 487 414 487 391 476 c 128,-1,29
 368 465 368 465 330 435 c 0,30,31
 253 375 253 375 212.5 314 c 128,-1,32
 172 253 172 253 172 181 c 0,33,34
 172 116 172 116 212.5 77 c 128,-1,35
 253 38 253 38 322 38 c 0,36,37
 406 38 406 38 499 154 c 128,-1,38
 592 270 592 270 623 415 c 0,39,40
 626 430 626 430 626 439 c 0,20,21
EndSplineSet
EndChar

StartChar: p
Encoding: 112 112 91
Width: 655
Flags: W
HStem: -246 21G<177 211> 45 67<282.659 388.829> 509 72<375.826 598.79>
VStem: 158 81<-239.674 49.3752> 203 49<179.785 350.812> 615 74<388.853 501.258>
LayerCount: 3
Fore
SplineSet
158 -138 m 0xf4
 158 69 203 307 203 378 c 0xec
 203 410 195 414 180 414 c 0
 161 414 152 421 152 430 c 0
 152 455 218 478 225 512 c 0
 228 525 250 581 284 581 c 0
 311 581 300 550 325 550 c 0
 357 550 434 581 519 581 c 0
 549 581 577 577 608 570 c 0
 662 557 689 526 689 477 c 0
 689 427 661 351 577 228 c 0
 497 110 402 45 313 45 c 0
 304 45 294 45 284 47 c 2
 239 54 l 1
 239 0 l 2
 239 -241 230 -246 192 -246 c 0
 162 -246 158 -235 158 -138 c 0xf4
330 112 m 0
 417 112 615 329 615 444 c 0
 615 477 601 499 593 502 c 0
 582 507 561 509 535 509 c 0
 483 509 412 500 365 486 c 2
 294 464 l 1
 282 400 l 2
 274 354 252 214 252 168 c 0
 252 145 256 138 266 137 c 1
 296 137 302 112 330 112 c 0
EndSplineSet
Validated: 1
Layer: 2
SplineSet
158 -138 m 0,0,1
 158 -18 158 -18 180.5 170.5 c 128,-1,2
 203 359 203 359 203 378 c 0,3,4
 203 400 203 400 197.5 407 c 128,-1,5
 192 414 192 414 180 414 c 0,6,7
 152 414 152 414 152 430 c 0,8,9
 152 442 152 442 186.5 468 c 128,-1,10
 221 494 221 494 225 512 c 128,-1,11
 229 530 229 530 245.5 555.5 c 128,-1,12
 262 581 262 581 284 581 c 0,13,14
 298 581 298 581 305.5 565.5 c 128,-1,15
 313 550 313 550 325 550 c 0,16,17
 334 550 334 550 402 565.5 c 128,-1,18
 470 581 470 581 519 581 c 0,19,20
 559 581 559 581 608 570 c 0,21,22
 689 550.5 689 550.5 689 477 c 0,23,24
 689 392 689 392 577 228 c 0,25,26
 517 140 517 140 448.5 92.5 c 128,-1,27
 380 45 380 45 313 45 c 0,28,29
 294 45 294 45 284 47 c 2,30,-1
 239 54 l 1,31,-1
 239 0 l 2,32,33
 239 -92 239 -92 237.5 -140.5 c 128,-1,34
 236 -189 236 -189 229.5 -213.5 c 128,-1,35
 223 -238 223 -238 216 -242 c 128,-1,36
 209 -246 209 -246 192 -246 c 0,37,38
 169 -246 169 -246 163.5 -228 c 128,-1,39
 158 -210 158 -210 158 -138 c 0,0,1
330 112 m 0,40,41
 372 112 372 112 440.5 170.5 c 128,-1,42
 509 229 509 229 562 309 c 128,-1,43
 615 389 615 389 615 444 c 0,44,45
 615 466 615 466 607.5 482.5 c 128,-1,46
 600 499 600 499 593 502 c 0,47,48
 578 509 578 509 535 509 c 0,49,50
 442 509 442 509 365 486 c 2,51,-1
 294 464 l 1,52,-1
 282 400 l 2,53,54
 252 227 252 227 252 168 c 0,55,56
 252 138 252 138 266 137 c 0,57,58
 281 137 281 137 298.5 124.5 c 128,-1,59
 316 112 316 112 330 112 c 0,40,41
EndSplineSet
EndChar

StartChar: q
Encoding: 113 113 92
Width: 662
Flags: W
HStem: -248 63<386.5 448.85> 62 54<148.963 230.287> 523 51<378.109 490.459>
VStem: 83 58<120.926 279.776> 348 60<-184.744 68.2218> 491 52<453.145 544.5> 510 56<-74.8431 64.2292>
LayerCount: 3
Fore
SplineSet
83 165 m 0xfa
 83 355 271 574 471 574 c 0
 500 574 543 564 543 525 c 0xfc
 543 462 438 241 438 174 c 0
 438 166 440 161 445 161 c 0
 452 161 481 180 510 203 c 0
 568 250 634 285 660 285 c 0
 666 285 669 281 669 276 c 0
 669 261 506 130 493 130 c 1
 493 129 515 121 527 106 c 0
 555 69 566 56 566 34 c 0
 566 15 556 -23 547 -63 c 0
 533 -127 528 -124 505 -165 c 0
 458 -247 428 -248 404 -248 c 0
 369 -248 348 -245 348 -144 c 0
 348 -105 351 -52 358 22 c 2
 372 178 l 1
 296 124 l 2
 234 80 197 62 163 62 c 0
 102 62 83 111 83 165 c 0xfa
471 523 m 0
 301 511 141 358 141 181 c 0
 141 139 154 116 180 116 c 0
 229 116 360 240 388 282 c 0
 427 340 461 446 481 474 c 0
 486 482 491 495 491 504 c 0
 491 519 479 523 471 523 c 0
510 26 m 0xfa
 510 36 487 81 455 81 c 0
 427 81 408 51 408 -64 c 0
 408 -130 418 -185 430 -185 c 0
 442 -185 473 -115 489 -97 c 0
 496 -90 494 -96 500 -40 c 0
 505 4 510 17 510 26 c 0xfa
EndSplineSet
Validated: 1
Layer: 2
SplineSet
83 165 m 0,0,1
 83 259 83 259 137.5 354 c 128,-1,2
 192 449 192 449 283 511.5 c 128,-1,3
 374 574 374 574 471 574 c 0,4,5
 499 574 499 574 521 562.5 c 128,-1,6
 543 551 543 551 543 525 c 0,7,8
 543 494 543 494 490.5 351 c 128,-1,9
 438 208 438 208 438 174 c 0,10,11
 438 161 438 161 445 161 c 0,12,13
 457 161 457 161 510 203 c 0,14,15
 553 238 553 238 596.5 261.5 c 128,-1,16
 640 285 640 285 660 285 c 0,17,18
 669 285 669 285 669 276 c 0,19,20
 669 265 669 265 586 197.5 c 128,-1,21
 503 130 503 130 493 130 c 1,22,-1
 499 127 l 2,23,24
 505 124 505 124 513.5 118.5 c 128,-1,25
 522 113 522 113 527 106 c 0,26,27
 545 82 545 82 550.5 74.5 c 128,-1,28
 556 67 556 67 561 56 c 128,-1,29
 566 45 566 45 566 34 c 0,30,31
 566 21 566 21 547 -63 c 0,32,33
 542 -86 542 -86 537 -101 c 128,-1,34
 532 -116 532 -116 530 -121.5 c 128,-1,35
 528 -127 528 -127 519 -142 c 128,-1,36
 510 -157 510 -157 505 -165 c 0,37,38
 483 -203 483 -203 462.5 -222.5 c 128,-1,39
 442 -242 442 -242 431 -245 c 128,-1,40
 420 -248 420 -248 404 -248 c 0,41,42
 383 -248 383 -248 373 -243.5 c 128,-1,43
 363 -239 363 -239 355.5 -215.5 c 128,-1,44
 348 -192 348 -192 348 -144 c 0,45,46
 348 -84 348 -84 358 22 c 2,47,-1
 372 178 l 1,48,-1
 296 124 l 2,49,50
 209 62 209 62 163 62 c 0,51,52
 83 62 83 62 83 165 c 0,0,1
471 523 m 0,53,54
 341 514 341 514 241 413 c 128,-1,55
 141 312 141 312 141 181 c 0,56,57
 141 116 141 116 180 116 c 0,58,59
 213 116 213 116 287.5 180 c 128,-1,60
 362 244 362 244 388 282 c 0,61,62
 410 314 410 314 441.5 388.5 c 128,-1,63
 473 463 473 463 481 474 c 0,64,65
 491 490 491 490 491 504 c 0,66,67
 491 523 491 523 471 523 c 0,53,54
510 26 m 0,68,69
 510 37 510 37 493 59 c 128,-1,70
 476 81 476 81 455 81 c 0,71,72
 408 81 408 81 408 -64 c 0,73,74
 408 -114 408 -114 414.5 -149.5 c 128,-1,75
 421 -185 421 -185 430 -185 c 0,76,77
 435 -185 435 -185 446 -167.5 c 128,-1,78
 457 -150 457 -150 470 -127 c 128,-1,79
 483 -104 483 -104 489 -97 c 0,80,81
 490 -96 490 -96 490.435589345 -95.6076940683 c 0,82,83
 495 -92 495 -92 497.427084538 -64.7628623345 c 0,84,85
 499 -50 499 -50 500 -40 c 0,86,87
 502 -21 502 -21 504.5 -6 c 128,-1,88
 507 9 507 9 508.5 15.5 c 128,-1,89
 510 22 510 22 510 26 c 0,68,69
EndSplineSet
EndChar

StartChar: r
Encoding: 114 114 93
Width: 526
Flags: W
HStem: 431 55<470.956 551.286> 521 20G<242.5 250.5>
VStem: 130 107<61.106 158.743>
LayerCount: 3
Fore
SplineSet
258 525 m 0
 258 523 237 397 237 295 c 0
 237 279 238 269 240 269 c 0
 245 269 267 295 289 324 c 0
 355 412 462 486 517 486 c 0
 541 486 554 467 554 459 c 0
 554 448 527 437 511 431 c 0
 421 398 285 245 241 126 c 0
 192 -8 176 -38 154 -38 c 0
 135 -38 130 -28 130 -7 c 0
 130 47 189 468 212 509 c 0
 223 530 238 541 247 541 c 0
 254 541 258 535 258 525 c 0
EndSplineSet
Validated: 1
Layer: 2
SplineSet
258 525 m 2,0,1
 256 510.5 l 2,2,3
 254 496 254 496 251 472 c 128,-1,4
 248 448 248 448 244.5 419.5 c 128,-1,5
 241 391 241 391 239 357.5 c 128,-1,6
 237 324 237 324 237 295 c 0,7,8
 237 269 237 269 240 269 c 0,9,10
 247 269 247 269 289 324 c 0,11,12
 338 389 338 389 406.5 437.5 c 128,-1,13
 475 486 475 486 517 486 c 0,14,15
 533 486 533 486 543.5 476.5 c 128,-1,16
 554 467 554 467 554 459 c 0,17,18
 554 447 554 447 511 431 c 0,19,20
 443 406 443 406 358.5 310.5 c 128,-1,21
 274 215 274 215 241 126 c 0,22,23
 204 26 204 26 187.5 -6 c 128,-1,24
 171 -38 171 -38 154 -38 c 0,25,26
 130 -38 130 -38 130 -7 c 0,27,28
 130 41 130 41 163 261 c 128,-1,29
 196 481 196 481 212 509 c 0,30,31
 229 541 229 541 247 541 c 0,32,33
 258 541 258 541 258 525 c 2,0,1
EndSplineSet
EndChar

